<svg width="627" height="433" viewBox="0 0 627 433" fill="none" xmlns="http://www.w3.org/2000/svg">
<g clip-path="url(#clip0)">
<path opacity="0.1" d="M354.65 58.9506C314.46 59.0044 275.775 47.6078 238.774 34.9474C201.772 22.2869 165.055 8.10973 125.613 2.10219C100.246 -1.75942 71.4009 -1.40445 51.5721 12.6167C32.4852 26.1055 26.9581 48.4307 24.2913 69.0564C22.2859 84.5727 21.3611 100.858 28.8722 115.051C34.0874 124.904 43.0126 133.026 49.3031 142.416C71.2611 175.084 58.0562 216.814 36.7166 250.24C26.7108 265.923 14.9898 280.955 7.425 297.537C-0.13984 314.118 -3.24212 332.92 4.47326 349.286C12.1187 365.507 29.3883 377.28 47.9214 385.321C85.5574 401.682 129.376 405.188 172.018 406.538C266.409 409.534 360.983 403.424 455.304 397.314C490.209 395.056 525.27 392.78 559.454 386.235C578.433 382.605 597.977 377.216 611.435 365.405C628.516 350.41 632.011 325.928 619.58 308.331C598.735 278.815 543.771 273.248 528.824 241.312C520.581 223.73 527.689 203.567 538.157 186.62C560.61 150.258 599.257 117.687 599.907 77.0163C600.354 49.0869 580.256 21.8405 550.239 9.7017C518.775 -3.01256 475.875 0.257439 453.831 23.9541C431.164 48.3662 390.135 58.913 354.65 58.9506Z" fill="#3DB83A"/>
<path d="M533.641 347.093C533.641 347.093 527.033 342.731 520.485 345.834C520.485 345.834 522.501 349.717 530.792 349.352L533.641 347.093Z" fill="#3DB83A"/>
<path d="M534.48 347.324C534.48 347.324 536.491 354.982 531.448 360.194C531.448 360.194 528.415 357.037 531.448 349.303L534.48 347.324Z" fill="#3DB83A"/>
<path d="M542.695 339.972C542.695 339.972 542.206 333.459 527.501 335.621C527.501 335.621 527.431 339.821 532.593 341.811C537.754 343.801 540.12 342.123 542.695 339.972Z" fill="#3DB83A"/>
<path d="M543.62 339.929C543.62 339.929 549.835 341.924 544.292 355.719C544.292 355.719 540.19 354.805 539.453 349.314C538.717 343.823 540.899 341.929 543.62 339.929Z" fill="#3DB83A"/>
<path d="M551.922 330.689C551.922 330.689 552.766 319.97 537.738 321.067C537.738 321.067 536.663 330.748 549.271 333.265L551.922 330.689Z" fill="#3DB83A"/>
<path d="M561.852 318.588C561.852 318.588 559.793 306.438 544.771 310.058C544.771 310.058 544.717 320.562 559.4 321.481L561.852 318.588Z" fill="#3DB83A"/>
<path d="M569.11 306.078C569.11 306.078 565.659 294.246 550.776 297.785C550.776 297.785 554.319 308.428 568.121 308.262L569.11 306.078Z" fill="#3DB83A"/>
<path d="M576.003 293.859C576.003 293.859 572.632 281.58 558.26 285.253C558.26 285.253 563.056 296.919 575.052 295.935L576.003 293.859Z" fill="#3DB83A"/>
<path d="M580.444 282.252C580.444 282.252 577.853 267.236 564.454 270.56C564.454 270.56 568.347 284.221 579.46 284.441L580.444 282.252Z" fill="#3DB83A"/>
<path d="M584.611 268.231C584.611 268.231 581.498 253.097 567.944 257.475C567.944 257.475 573.256 271.781 583.649 270.302L584.611 268.231Z" fill="#3DB83A"/>
<path d="M587.17 255.183C587.17 255.183 582.229 240.043 571.75 240.452C571.75 240.452 576.799 256.442 586.294 258.2L587.17 255.183Z" fill="#3DB83A"/>
<path d="M588.826 242.447C588.826 242.447 583.45 224.226 574.922 225.63C574.922 225.63 578.643 239.559 588.525 245.287L588.826 242.447Z" fill="#3DB83A"/>
<path d="M589.762 227.254C589.762 227.254 584.719 212.071 576.32 211.463C576.32 211.463 579.751 226.404 589.595 231.201L589.762 227.254Z" fill="#3DB83A"/>
<path d="M590.778 213.077C590.778 213.077 584.493 197.878 578.949 197.534C578.949 197.534 581.681 212.501 590.24 215.572L590.778 213.077Z" fill="#3DB83A"/>
<path d="M591.471 199.889C591.471 199.889 587.606 183.383 582.052 182.012C582.052 182.012 582.81 195.517 590.912 201.126L591.471 199.889Z" fill="#3DB83A"/>
<path d="M593.568 182.614C593.568 182.614 589.504 169.454 585.004 167.448C585.004 167.448 585.891 182.964 592.531 185.831L593.568 182.614Z" fill="#3DB83A"/>
<path d="M595.305 171.32L596.122 148.118C596.122 148.118 587.708 165.608 594.698 175.391L595.305 171.32Z" fill="#3DB83A"/>
<path d="M601.8 148.241C601.8 148.241 607.859 131.3 609.327 130.353C609.327 130.353 597.445 141.346 598.606 155.486L601.8 148.241Z" fill="#3DB83A"/>
<path d="M552.33 330.608C552.33 330.608 562.986 329.215 562.669 344.28C562.669 344.28 553.04 345.85 549.895 333.389L552.33 330.608Z" fill="#3DB83A"/>
<path d="M562.357 318.179C562.357 318.179 574.67 318.142 573.648 333.561C573.648 333.561 563.309 335.411 559.9 321.094L562.357 318.179Z" fill="#3DB83A"/>
<path d="M569.229 307.073C569.229 307.073 580.407 301.829 587.557 315.366C587.557 315.366 577.234 319.734 568.239 309.262L569.229 307.073Z" fill="#3DB83A"/>
<path d="M576.25 293.971C576.25 293.971 587.697 288.394 594.418 301.614C594.418 301.614 582.493 305.723 575.304 296.063L576.25 293.971Z" fill="#3DB83A"/>
<path d="M580.299 282.58C580.299 282.58 591.316 272.055 600.106 282.699C600.106 282.699 588.853 291.363 579.794 284.925L580.299 282.58Z" fill="#3DB83A"/>
<path d="M583.987 267.871C583.987 267.871 595.069 257.114 603.789 268.366C603.789 268.366 591.353 277.202 583.589 270.13L583.987 267.871Z" fill="#3DB83A"/>
<path d="M586.057 254.753C586.057 254.753 594.595 241.307 604.65 244.308C604.65 244.308 595.789 258.545 586.154 257.91L586.057 254.753Z" fill="#3DB83A"/>
<path d="M588.574 242.362C588.574 242.362 597.176 225.431 605.316 228.378C605.316 228.378 599.112 241.393 588.353 245.217L588.574 242.362Z" fill="#3DB83A"/>
<path d="M589.17 226.372C589.17 226.372 598.015 213.044 606.3 214.674C606.3 214.674 599.069 228.19 588.31 230.228L589.17 226.372Z" fill="#3DB83A"/>
<path d="M589.859 212.781C589.859 212.781 596.714 197.824 602.284 197.722C602.284 197.722 598.993 212.571 590.321 215.319L589.859 212.781Z" fill="#3DB83A"/>
<path d="M591.203 199.566C591.203 199.566 598.821 184.421 604.547 184.389C604.547 184.389 600.649 197.34 591.455 200.895L591.203 199.566Z" fill="#3DB83A"/>
<path d="M592.348 183.561C592.348 183.561 598.047 171.029 602.768 169.61C602.768 169.61 599.918 184.884 592.977 186.885L592.348 183.561Z" fill="#3DB83A"/>
<path d="M595.983 170.863L608.72 151.452C608.72 151.452 605.456 170.599 594.122 174.579L595.983 170.863Z" fill="#3DB83A"/>
<path d="M604.725 149.807C604.725 149.807 619.526 139.588 620.064 137.937C620.064 137.937 612.537 152.248 598.558 154.776L604.725 149.807Z" fill="#3DB83A"/>
<path d="M605.612 145.208C605.612 145.208 622.607 128.864 626.946 128.88C626.946 128.88 612.929 129.52 605.203 144.337L605.612 145.208Z" fill="#3DB83A"/>
<path d="M592.515 185.986L593.133 186.067C596.327 161.063 600.983 146.268 606.241 144.455L606.037 143.864C600.461 145.8 595.773 160.369 592.515 185.986Z" fill="#444053"/>
<path d="M587.815 245.782L588.751 245.857C588.95 243.523 589.1 241.135 589.203 238.753C590.095 218.057 591.477 199.05 593.294 184.803L592.757 184.131C590.934 198.41 589.16 217.987 588.267 238.715C588.165 241.081 588.014 243.459 587.815 245.782Z" fill="#444053"/>
<path d="M516.2 359.022C516.361 358.952 532.829 351.594 549.921 334.051C559.935 323.775 568.256 311.976 574.573 299.092C582.477 282.994 587.294 263.213 588.907 243.997L587.934 244.454C584.305 287.588 564.675 317.061 549.067 333.115C532.141 350.503 515.856 357.785 515.694 357.855L516.2 359.022Z" fill="#444053"/>
<path d="M558.841 45.8391H42.2168C40.9962 45.8391 39.8256 46.3241 38.9625 47.1875C38.0994 48.0509 37.6145 49.2219 37.6145 50.4429V63.8563H563.444V50.4429C563.444 49.2219 562.959 48.0509 562.096 47.1875C561.232 46.3241 560.062 45.8391 558.841 45.8391Z" fill="#3F3D56"/>
<path d="M37.6145 63.8562V365.707C37.6145 368.169 38.5922 370.53 40.3325 372.271C42.0729 374.012 44.4333 374.99 46.8945 374.99H554.164C556.625 374.99 558.985 374.012 560.726 372.271C562.466 370.53 563.444 368.169 563.444 365.707V63.8562H37.6145Z" fill="white"/>
<path opacity="0.8" d="M45.9429 56.8646C47.1306 56.8646 48.0935 55.9015 48.0935 54.7133C48.0935 53.5252 47.1306 52.562 45.9429 52.562C44.7551 52.562 43.7922 53.5252 43.7922 54.7133C43.7922 55.9015 44.7551 56.8646 45.9429 56.8646Z" fill="#FA5959"/>
<path opacity="0.8" d="M51.857 56.8646C53.0448 56.8646 54.0077 55.9015 54.0077 54.7133C54.0077 53.5252 53.0448 52.562 51.857 52.562C50.6693 52.562 49.7064 53.5252 49.7064 54.7133C49.7064 55.9015 50.6693 56.8646 51.857 56.8646Z" fill="#FED253"/>
<path opacity="0.8" d="M57.7712 56.8646C58.959 56.8646 59.9219 55.9015 59.9219 54.7133C59.9219 53.5252 58.959 52.562 57.7712 52.562C56.5835 52.562 55.6206 53.5252 55.6206 54.7133C55.6206 55.9015 56.5835 56.8646 57.7712 56.8646Z" fill="#8CCF4D"/>
<path opacity="0.05" d="M509.092 114.186H86.4929V300.07H509.092V114.186Z" fill="black"/>
<path d="M505.866 115.595H89.7189V297.381H505.866V115.595Z" fill="#3F3D56"/>
<path d="M203.165 162.381C194.977 162.381 186.972 164.81 180.164 169.36C173.356 173.911 168.05 180.379 164.916 187.946C161.783 195.513 160.963 203.84 162.561 211.873C164.158 219.906 168.101 227.285 173.891 233.077C179.681 238.869 187.057 242.813 195.088 244.411C203.119 246.009 211.443 245.189 219.008 242.054C226.572 238.92 233.038 233.612 237.587 226.802C242.136 219.991 244.564 211.985 244.564 203.794C244.564 198.355 243.493 192.97 241.413 187.946C239.332 182.921 236.283 178.356 232.439 174.511C228.594 170.665 224.03 167.615 219.008 165.533C213.985 163.452 208.601 162.381 203.165 162.381ZM210.59 204.789V224.398H195.955V204.789C193.929 203.255 192.437 201.124 191.688 198.696C190.938 196.269 190.97 193.667 191.779 191.258C192.587 188.849 194.132 186.756 196.194 185.272C198.256 183.789 200.732 182.991 203.272 182.991C205.812 182.991 208.288 183.789 210.35 185.272C212.413 186.756 213.957 188.849 214.766 191.258C215.574 193.667 215.606 196.269 214.857 198.696C214.108 201.124 212.615 203.255 210.59 204.789Z" fill="#3DB83A"/>
<path opacity="0.05" d="M203.165 162.381C194.977 162.381 186.972 164.81 180.164 169.36C173.356 173.911 168.05 180.379 164.916 187.946C161.783 195.513 160.963 203.84 162.561 211.873C164.158 219.906 168.101 227.285 173.891 233.077C179.681 238.869 187.057 242.813 195.088 244.411C203.119 246.009 211.443 245.189 219.008 242.054C226.572 238.92 233.038 233.612 237.587 226.802C242.136 219.991 244.564 211.985 244.564 203.794C244.564 198.355 243.493 192.97 241.413 187.946C239.332 182.921 236.283 178.356 232.439 174.511C228.594 170.665 224.03 167.615 219.008 165.533C213.985 163.452 208.601 162.381 203.165 162.381ZM210.59 204.789V224.398H195.955V204.789C193.929 203.255 192.437 201.124 191.688 198.696C190.938 196.269 190.97 193.667 191.779 191.258C192.587 188.849 194.132 186.756 196.194 185.272C198.256 183.789 200.732 182.991 203.272 182.991C205.812 182.991 208.288 183.789 210.35 185.272C212.413 186.756 213.957 188.849 214.766 191.258C215.574 193.667 215.606 196.269 214.857 198.696C214.108 201.124 212.615 203.255 210.59 204.789Z" fill="black"/>
<path d="M203.165 150.549C192.637 150.549 182.346 153.672 173.593 159.522C164.839 165.373 158.017 173.689 153.988 183.418C149.96 193.147 148.905 203.853 150.959 214.181C153.013 224.51 158.083 233.997 165.527 241.444C172.971 248.89 182.455 253.961 192.78 256.016C203.106 258.07 213.808 257.016 223.534 252.986C233.26 248.956 241.573 242.131 247.422 233.375C253.271 224.619 256.393 214.325 256.393 203.794C256.393 189.672 250.785 176.129 240.803 166.144C230.82 156.159 217.282 150.549 203.165 150.549ZM212.708 205.074V230.282H193.89V205.074C191.285 203.102 189.365 200.361 188.401 197.239C187.437 194.117 187.478 190.77 188.518 187.673C189.558 184.575 191.544 181.882 194.196 179.974C196.848 178.066 200.032 177.04 203.299 177.04C206.566 177.04 209.75 178.066 212.402 179.974C215.054 181.882 217.041 184.575 218.08 187.673C219.12 190.77 219.161 194.117 218.197 197.239C217.233 200.361 215.313 203.102 212.708 205.074Z" fill="#3DB83A"/>
<path d="M450.487 196.807H278.437V215.094H450.487V196.807Z" fill="white"/>
<path d="M450.487 230.153H413.389V248.439H450.487V230.153Z" fill="#3DB83A"/>
<path d="M295.373 205.676H292.26L295.029 202.912C295.078 202.861 295.106 202.792 295.106 202.721C295.106 202.65 295.078 202.581 295.029 202.53C295.004 202.505 294.974 202.485 294.941 202.471C294.909 202.457 294.873 202.45 294.838 202.45C294.802 202.45 294.767 202.457 294.735 202.471C294.702 202.485 294.672 202.505 294.647 202.53L291.878 205.3V202.18C291.878 202.109 291.85 202.041 291.799 201.99C291.749 201.94 291.681 201.911 291.609 201.911C291.538 201.913 291.471 201.942 291.421 201.992C291.371 202.042 291.342 202.109 291.341 202.18V205.3L288.577 202.514C288.552 202.489 288.522 202.469 288.489 202.455C288.457 202.441 288.422 202.434 288.386 202.434C288.351 202.434 288.315 202.441 288.283 202.455C288.25 202.469 288.22 202.489 288.195 202.514C288.146 202.565 288.118 202.633 288.118 202.705C288.118 202.776 288.146 202.844 288.195 202.896L290.964 205.66H287.846C287.775 205.661 287.707 205.69 287.657 205.74C287.607 205.79 287.578 205.858 287.577 205.929C287.577 206 287.605 206.069 287.656 206.119C287.706 206.17 287.774 206.198 287.846 206.198H290.964L288.195 208.968C288.146 209.019 288.118 209.087 288.118 209.159C288.118 209.23 288.146 209.298 288.195 209.35C288.247 209.398 288.315 209.425 288.386 209.425C288.457 209.425 288.525 209.398 288.577 209.35L291.341 206.58V209.694C291.341 209.765 291.369 209.833 291.419 209.884C291.47 209.934 291.538 209.963 291.609 209.963C291.681 209.963 291.749 209.934 291.799 209.884C291.85 209.833 291.878 209.765 291.878 209.694V206.58L294.647 209.35C294.699 209.398 294.767 209.425 294.838 209.425C294.909 209.425 294.977 209.398 295.029 209.35C295.078 209.298 295.106 209.23 295.106 209.159C295.106 209.087 295.078 209.019 295.029 208.968L292.26 206.198H295.373C295.444 206.198 295.513 206.17 295.563 206.119C295.613 206.069 295.642 206 295.642 205.929C295.638 205.86 295.607 205.796 295.558 205.749C295.508 205.702 295.442 205.676 295.373 205.676Z" fill="#3DB83A"/>
<path d="M306.664 205.676H303.551L306.32 202.912C306.369 202.861 306.397 202.792 306.397 202.721C306.397 202.65 306.369 202.581 306.32 202.53C306.295 202.505 306.265 202.485 306.232 202.471C306.199 202.457 306.164 202.45 306.129 202.45C306.093 202.45 306.058 202.457 306.025 202.471C305.993 202.485 305.963 202.505 305.938 202.53L303.169 205.3V202.18C303.169 202.109 303.141 202.041 303.09 201.99C303.04 201.94 302.971 201.911 302.9 201.911C302.829 201.913 302.762 201.942 302.712 201.992C302.661 202.042 302.633 202.109 302.631 202.18V205.3L299.868 202.514C299.843 202.489 299.813 202.469 299.78 202.455C299.747 202.441 299.712 202.434 299.677 202.434C299.641 202.434 299.606 202.441 299.573 202.455C299.541 202.469 299.511 202.489 299.486 202.514C299.436 202.565 299.409 202.633 299.409 202.705C299.409 202.776 299.436 202.844 299.486 202.896L302.255 205.66H299.137C299.066 205.661 298.998 205.69 298.948 205.74C298.898 205.79 298.869 205.858 298.868 205.929C298.868 206 298.896 206.069 298.946 206.119C298.997 206.17 299.065 206.198 299.137 206.198H302.255L299.486 208.968C299.436 209.019 299.409 209.087 299.409 209.159C299.409 209.23 299.436 209.298 299.486 209.35C299.538 209.398 299.606 209.425 299.677 209.425C299.748 209.425 299.816 209.398 299.868 209.35L302.631 206.58V209.694C302.631 209.765 302.66 209.833 302.71 209.884C302.76 209.934 302.829 209.963 302.9 209.963C302.971 209.963 303.04 209.934 303.09 209.884C303.141 209.833 303.169 209.765 303.169 209.694V206.58L305.938 209.35C305.99 209.398 306.058 209.425 306.129 209.425C306.2 209.425 306.268 209.398 306.32 209.35C306.369 209.298 306.397 209.23 306.397 209.159C306.397 209.087 306.369 209.019 306.32 208.968L303.551 206.198H306.664C306.735 206.198 306.803 206.17 306.854 206.119C306.904 206.069 306.933 206 306.933 205.929C306.928 205.86 306.898 205.796 306.848 205.749C306.798 205.702 306.732 205.676 306.664 205.676Z" fill="#3DB83A"/>
<path d="M317.954 205.676H314.841L317.61 202.912C317.66 202.861 317.688 202.792 317.688 202.721C317.688 202.65 317.66 202.581 317.61 202.53C317.585 202.505 317.556 202.485 317.523 202.471C317.49 202.457 317.455 202.45 317.419 202.45C317.384 202.45 317.349 202.457 317.316 202.471C317.283 202.485 317.254 202.505 317.229 202.53L314.46 205.3V202.18C314.46 202.109 314.431 202.041 314.381 201.99C314.331 201.94 314.262 201.911 314.191 201.911C314.12 201.913 314.052 201.942 314.002 201.992C313.952 202.042 313.923 202.109 313.922 202.18V205.3L311.158 202.514C311.133 202.489 311.104 202.469 311.071 202.455C311.038 202.441 311.003 202.434 310.968 202.434C310.932 202.434 310.897 202.441 310.864 202.455C310.831 202.469 310.802 202.489 310.777 202.514C310.727 202.565 310.699 202.633 310.699 202.705C310.699 202.776 310.727 202.844 310.777 202.896L313.546 205.66H310.427C310.356 205.661 310.289 205.69 310.239 205.74C310.189 205.79 310.16 205.858 310.158 205.929C310.158 206 310.187 206.069 310.237 206.119C310.288 206.17 310.356 206.198 310.427 206.198H313.546L310.777 208.968C310.727 209.019 310.699 209.087 310.699 209.159C310.699 209.23 310.727 209.298 310.777 209.35C310.829 209.398 310.897 209.425 310.968 209.425C311.038 209.425 311.107 209.398 311.158 209.35L313.922 206.58V209.694C313.922 209.765 313.95 209.833 314.001 209.884C314.051 209.934 314.12 209.963 314.191 209.963C314.262 209.963 314.331 209.934 314.381 209.884C314.431 209.833 314.46 209.765 314.46 209.694V206.58L317.229 209.35C317.28 209.398 317.349 209.425 317.419 209.425C317.49 209.425 317.559 209.398 317.61 209.35C317.66 209.298 317.688 209.23 317.688 209.159C317.688 209.087 317.66 209.019 317.61 208.968L314.841 206.198H317.954C318.026 206.198 318.094 206.17 318.145 206.119C318.195 206.069 318.223 206 318.223 205.929C318.219 205.86 318.189 205.796 318.139 205.749C318.089 205.702 318.023 205.676 317.954 205.676Z" fill="#3DB83A"/>
<path d="M329.245 205.676H326.132L328.901 202.912C328.951 202.861 328.978 202.792 328.978 202.721C328.978 202.65 328.951 202.581 328.901 202.53C328.876 202.505 328.846 202.485 328.814 202.471C328.781 202.457 328.746 202.45 328.71 202.45C328.675 202.45 328.64 202.457 328.607 202.471C328.574 202.485 328.544 202.505 328.519 202.53L325.75 205.3V202.18C325.75 202.109 325.722 202.041 325.672 201.99C325.621 201.94 325.553 201.911 325.482 201.911C325.411 201.913 325.343 201.942 325.293 201.992C325.243 202.042 325.214 202.109 325.213 202.18V205.3L322.449 202.514C322.424 202.489 322.395 202.469 322.362 202.455C322.329 202.441 322.294 202.434 322.258 202.434C322.223 202.434 322.188 202.441 322.155 202.455C322.122 202.469 322.092 202.489 322.068 202.514C322.018 202.565 321.99 202.633 321.99 202.705C321.99 202.776 322.018 202.844 322.068 202.896L324.836 205.66H321.718C321.647 205.661 321.58 205.69 321.529 205.74C321.479 205.79 321.451 205.858 321.449 205.929C321.449 206 321.478 206.069 321.528 206.119C321.578 206.17 321.647 206.198 321.718 206.198H324.836L322.068 208.968C322.018 209.019 321.99 209.087 321.99 209.159C321.99 209.23 322.018 209.298 322.068 209.35C322.119 209.398 322.187 209.425 322.258 209.425C322.329 209.425 322.397 209.398 322.449 209.35L325.213 206.58V209.694C325.213 209.765 325.241 209.833 325.292 209.884C325.342 209.934 325.41 209.963 325.482 209.963C325.553 209.963 325.621 209.934 325.672 209.884C325.722 209.833 325.75 209.765 325.75 209.694V206.58L328.519 209.35C328.571 209.398 328.639 209.425 328.71 209.425C328.781 209.425 328.849 209.398 328.901 209.35C328.951 209.298 328.978 209.23 328.978 209.159C328.978 209.087 328.951 209.019 328.901 208.968L326.132 206.198H329.245C329.317 206.198 329.385 206.17 329.435 206.119C329.486 206.069 329.514 206 329.514 205.929C329.51 205.86 329.48 205.796 329.43 205.749C329.38 205.702 329.314 205.676 329.245 205.676Z" fill="#3DB83A"/>
<path d="M340.536 205.676H337.423L340.192 202.912C340.242 202.861 340.269 202.792 340.269 202.721C340.269 202.65 340.242 202.581 340.192 202.53C340.167 202.505 340.137 202.485 340.105 202.471C340.072 202.457 340.037 202.45 340.001 202.45C339.966 202.45 339.931 202.457 339.898 202.471C339.865 202.485 339.835 202.505 339.81 202.53L337.041 205.3V202.18C337.041 202.109 337.013 202.041 336.963 201.99C336.912 201.94 336.844 201.911 336.773 201.911C336.702 201.913 336.634 201.942 336.584 201.992C336.534 202.042 336.505 202.109 336.504 202.18V205.3L333.74 202.514C333.715 202.489 333.685 202.469 333.653 202.455C333.62 202.441 333.585 202.434 333.549 202.434C333.514 202.434 333.479 202.441 333.446 202.455C333.413 202.469 333.383 202.489 333.358 202.514C333.309 202.565 333.281 202.633 333.281 202.705C333.281 202.776 333.309 202.844 333.358 202.896L336.127 205.66H333.009C332.938 205.661 332.87 205.69 332.82 205.74C332.77 205.79 332.741 205.858 332.74 205.929C332.74 206 332.768 206.069 332.819 206.119C332.869 206.17 332.938 206.198 333.009 206.198H336.127L333.358 208.968C333.309 209.019 333.281 209.087 333.281 209.159C333.281 209.23 333.309 209.298 333.358 209.35C333.41 209.398 333.478 209.425 333.549 209.425C333.62 209.425 333.688 209.398 333.74 209.35L336.504 206.58V209.694C336.504 209.765 336.532 209.833 336.582 209.884C336.633 209.934 336.701 209.963 336.773 209.963C336.844 209.963 336.912 209.934 336.963 209.884C337.013 209.833 337.041 209.765 337.041 209.694V206.58L339.81 209.35C339.862 209.398 339.93 209.425 340.001 209.425C340.072 209.425 340.14 209.398 340.192 209.35C340.242 209.298 340.269 209.23 340.269 209.159C340.269 209.087 340.242 209.019 340.192 208.968L337.423 206.198H340.536C340.607 206.198 340.676 206.17 340.726 206.119C340.777 206.069 340.805 206 340.805 205.929C340.801 205.86 340.771 205.796 340.721 205.749C340.671 205.702 340.605 205.676 340.536 205.676Z" fill="#3DB83A"/>
<path d="M351.827 205.676H348.714L351.483 202.912C351.532 202.861 351.56 202.792 351.56 202.721C351.56 202.65 351.532 202.581 351.483 202.53C351.458 202.505 351.428 202.485 351.395 202.471C351.363 202.457 351.327 202.45 351.292 202.45C351.256 202.45 351.221 202.457 351.189 202.471C351.156 202.485 351.126 202.505 351.101 202.53L348.332 205.3V202.18C348.332 202.109 348.304 202.041 348.253 201.99C348.203 201.94 348.135 201.911 348.063 201.911C347.992 201.913 347.925 201.942 347.875 201.992C347.825 202.042 347.796 202.109 347.794 202.18V205.3L345.031 202.514C345.006 202.489 344.976 202.469 344.943 202.455C344.911 202.441 344.876 202.434 344.84 202.434C344.805 202.434 344.769 202.441 344.737 202.455C344.704 202.469 344.674 202.489 344.649 202.514C344.6 202.565 344.572 202.633 344.572 202.705C344.572 202.776 344.6 202.844 344.649 202.896L347.418 205.66H344.3C344.229 205.661 344.161 205.69 344.111 205.74C344.061 205.79 344.032 205.858 344.031 205.929C344.031 206 344.059 206.069 344.11 206.119C344.16 206.17 344.228 206.198 344.3 206.198H347.418L344.649 208.968C344.6 209.019 344.572 209.087 344.572 209.159C344.572 209.23 344.6 209.298 344.649 209.35C344.701 209.398 344.769 209.425 344.84 209.425C344.911 209.425 344.979 209.398 345.031 209.35L347.794 206.58V209.694C347.794 209.765 347.823 209.833 347.873 209.884C347.924 209.934 347.992 209.963 348.063 209.963C348.135 209.963 348.203 209.934 348.253 209.884C348.304 209.833 348.332 209.765 348.332 209.694V206.58L351.101 209.35C351.153 209.398 351.221 209.425 351.292 209.425C351.363 209.425 351.431 209.398 351.483 209.35C351.532 209.298 351.56 209.23 351.56 209.159C351.56 209.087 351.532 209.019 351.483 208.968L348.714 206.198H351.827C351.898 206.198 351.967 206.17 352.017 206.119C352.067 206.069 352.096 206 352.096 205.929C352.092 205.86 352.062 205.796 352.012 205.749C351.962 205.702 351.896 205.676 351.827 205.676Z" fill="#3DB83A"/>
<path d="M363.118 205.676H360.005L362.774 202.912C362.823 202.861 362.851 202.792 362.851 202.721C362.851 202.65 362.823 202.581 362.774 202.53C362.749 202.505 362.719 202.485 362.686 202.471C362.653 202.457 362.618 202.45 362.583 202.45C362.547 202.45 362.512 202.457 362.479 202.471C362.447 202.485 362.417 202.505 362.392 202.53L359.623 205.3V202.18C359.623 202.109 359.595 202.041 359.544 201.99C359.494 201.94 359.425 201.911 359.354 201.911C359.283 201.913 359.216 201.942 359.166 201.992C359.115 202.042 359.087 202.109 359.085 202.18V205.3L356.322 202.514C356.297 202.489 356.267 202.469 356.234 202.455C356.202 202.441 356.166 202.434 356.131 202.434C356.095 202.434 356.06 202.441 356.028 202.455C355.995 202.469 355.965 202.489 355.94 202.514C355.89 202.565 355.863 202.633 355.863 202.705C355.863 202.776 355.89 202.844 355.94 202.896L358.709 205.66H355.591C355.52 205.661 355.452 205.69 355.402 205.74C355.352 205.79 355.323 205.858 355.322 205.929C355.322 206 355.35 206.069 355.401 206.119C355.451 206.17 355.519 206.198 355.591 206.198H358.709L355.94 208.968C355.89 209.019 355.863 209.087 355.863 209.159C355.863 209.23 355.89 209.298 355.94 209.35C355.992 209.398 356.06 209.425 356.131 209.425C356.202 209.425 356.27 209.398 356.322 209.35L359.085 206.58V209.694C359.085 209.765 359.114 209.833 359.164 209.884C359.215 209.934 359.283 209.963 359.354 209.963C359.425 209.963 359.494 209.934 359.544 209.884C359.595 209.833 359.623 209.765 359.623 209.694V206.58L362.392 209.35C362.444 209.398 362.512 209.425 362.583 209.425C362.654 209.425 362.722 209.398 362.774 209.35C362.823 209.298 362.851 209.23 362.851 209.159C362.851 209.087 362.823 209.019 362.774 208.968L360.005 206.198H363.118C363.189 206.198 363.257 206.17 363.308 206.119C363.358 206.069 363.387 206 363.387 205.929C363.383 205.86 363.352 205.796 363.302 205.749C363.252 205.702 363.186 205.676 363.118 205.676Z" fill="#3DB83A"/>
<path d="M374.409 205.676H371.296L374.064 202.912C374.114 202.861 374.142 202.792 374.142 202.721C374.142 202.65 374.114 202.581 374.064 202.53C374.039 202.505 374.01 202.485 373.977 202.471C373.944 202.457 373.909 202.45 373.874 202.45C373.838 202.45 373.803 202.457 373.77 202.471C373.737 202.485 373.708 202.505 373.683 202.53L370.914 205.3V202.18C370.914 202.109 370.885 202.041 370.835 201.99C370.785 201.94 370.716 201.911 370.645 201.911C370.574 201.913 370.507 201.942 370.456 201.992C370.406 202.042 370.378 202.109 370.376 202.18V205.3L367.613 202.514C367.588 202.489 367.558 202.469 367.525 202.455C367.492 202.441 367.457 202.434 367.422 202.434C367.386 202.434 367.351 202.441 367.318 202.455C367.286 202.469 367.256 202.489 367.231 202.514C367.181 202.565 367.153 202.633 367.153 202.705C367.153 202.776 367.181 202.844 367.231 202.896L370 205.66H366.881C366.811 205.661 366.743 205.69 366.693 205.74C366.643 205.79 366.614 205.858 366.613 205.929C366.613 206 366.641 206.069 366.691 206.119C366.742 206.17 366.81 206.198 366.881 206.198H370L367.231 208.968C367.181 209.019 367.153 209.087 367.153 209.159C367.153 209.23 367.181 209.298 367.231 209.35C367.283 209.398 367.351 209.425 367.422 209.425C367.493 209.425 367.561 209.398 367.613 209.35L370.376 206.58V209.694C370.376 209.765 370.404 209.833 370.455 209.884C370.505 209.934 370.574 209.963 370.645 209.963C370.716 209.963 370.785 209.934 370.835 209.884C370.885 209.833 370.914 209.765 370.914 209.694V206.58L373.683 209.35C373.735 209.398 373.803 209.425 373.874 209.425C373.944 209.425 374.013 209.398 374.064 209.35C374.114 209.298 374.142 209.23 374.142 209.159C374.142 209.087 374.114 209.019 374.064 208.968L371.296 206.198H374.409C374.48 206.198 374.548 206.17 374.599 206.119C374.649 206.069 374.677 206 374.677 205.929C374.673 205.86 374.643 205.796 374.593 205.749C374.543 205.702 374.477 205.676 374.409 205.676Z" fill="#3DB83A"/>
<path d="M385.699 205.676H382.586L385.355 202.912C385.405 202.861 385.433 202.792 385.433 202.721C385.433 202.65 385.405 202.581 385.355 202.53C385.33 202.505 385.301 202.485 385.268 202.471C385.235 202.457 385.2 202.45 385.164 202.45C385.129 202.45 385.094 202.457 385.061 202.471C385.028 202.485 384.999 202.505 384.974 202.53L382.205 205.3V202.18C382.205 202.109 382.176 202.041 382.126 201.99C382.075 201.94 382.007 201.911 381.936 201.911C381.865 201.913 381.797 201.942 381.747 201.992C381.697 202.042 381.668 202.109 381.667 202.18V205.3L378.903 202.514C378.878 202.489 378.849 202.469 378.816 202.455C378.783 202.441 378.748 202.434 378.712 202.434C378.677 202.434 378.642 202.441 378.609 202.455C378.576 202.469 378.547 202.489 378.522 202.514C378.472 202.565 378.444 202.633 378.444 202.705C378.444 202.776 378.472 202.844 378.522 202.896L381.291 205.66H378.172C378.101 205.661 378.034 205.69 377.984 205.74C377.933 205.79 377.905 205.858 377.903 205.929C377.903 206 377.932 206.069 377.982 206.119C378.032 206.17 378.101 206.198 378.172 206.198H381.291L378.522 208.968C378.472 209.019 378.444 209.087 378.444 209.159C378.444 209.23 378.472 209.298 378.522 209.35C378.573 209.398 378.642 209.425 378.712 209.425C378.783 209.425 378.852 209.398 378.903 209.35L381.667 206.58V209.694C381.667 209.765 381.695 209.833 381.746 209.884C381.796 209.934 381.864 209.963 381.936 209.963C382.007 209.963 382.075 209.934 382.126 209.884C382.176 209.833 382.205 209.765 382.205 209.694V206.58L384.974 209.35C385.025 209.398 385.094 209.425 385.164 209.425C385.235 209.425 385.303 209.398 385.355 209.35C385.405 209.298 385.433 209.23 385.433 209.159C385.433 209.087 385.405 209.019 385.355 208.968L382.586 206.198H385.699C385.771 206.198 385.839 206.17 385.889 206.119C385.94 206.069 385.968 206 385.968 205.929C385.964 205.86 385.934 205.796 385.884 205.749C385.834 205.702 385.768 205.676 385.699 205.676Z" fill="#3DB83A"/>
<path d="M396.99 205.676H393.877L396.646 202.912C396.696 202.861 396.723 202.792 396.723 202.721C396.723 202.65 396.696 202.581 396.646 202.53C396.621 202.505 396.591 202.485 396.559 202.471C396.526 202.457 396.491 202.45 396.455 202.45C396.42 202.45 396.385 202.457 396.352 202.471C396.319 202.485 396.289 202.505 396.264 202.53L393.495 205.3V202.18C393.495 202.109 393.467 202.041 393.417 201.99C393.366 201.94 393.298 201.911 393.227 201.911C393.156 201.913 393.088 201.942 393.038 201.992C392.988 202.042 392.959 202.109 392.958 202.18V205.3L390.194 202.514C390.169 202.489 390.139 202.469 390.107 202.455C390.074 202.441 390.039 202.434 390.003 202.434C389.968 202.434 389.933 202.441 389.9 202.455C389.867 202.469 389.837 202.489 389.812 202.514C389.763 202.565 389.735 202.633 389.735 202.705C389.735 202.776 389.763 202.844 389.812 202.896L392.581 205.66H389.463C389.392 205.661 389.324 205.69 389.274 205.74C389.224 205.79 389.195 205.858 389.194 205.929C389.194 206 389.222 206.069 389.273 206.119C389.323 206.17 389.392 206.198 389.463 206.198H392.581L389.812 208.968C389.763 209.019 389.735 209.087 389.735 209.159C389.735 209.23 389.763 209.298 389.812 209.35C389.864 209.398 389.932 209.425 390.003 209.425C390.074 209.425 390.142 209.398 390.194 209.35L392.958 206.58V209.694C392.958 209.765 392.986 209.833 393.036 209.884C393.087 209.934 393.155 209.963 393.227 209.963C393.298 209.963 393.366 209.934 393.417 209.884C393.467 209.833 393.495 209.765 393.495 209.694V206.58L396.264 209.35C396.316 209.398 396.384 209.425 396.455 209.425C396.526 209.425 396.594 209.398 396.646 209.35C396.696 209.298 396.723 209.23 396.723 209.159C396.723 209.087 396.696 209.019 396.646 208.968L393.877 206.198H396.99C397.061 206.198 397.13 206.17 397.18 206.119C397.231 206.069 397.259 206 397.259 205.929C397.255 205.86 397.225 205.796 397.175 205.749C397.125 205.702 397.059 205.676 396.99 205.676Z" fill="#3DB83A"/>
<path d="M408.281 205.676H405.168L407.937 202.912C407.986 202.861 408.014 202.792 408.014 202.721C408.014 202.65 407.986 202.581 407.937 202.53C407.912 202.505 407.882 202.485 407.849 202.471C407.817 202.457 407.781 202.45 407.746 202.45C407.71 202.45 407.675 202.457 407.643 202.471C407.61 202.485 407.58 202.505 407.555 202.53L404.786 205.3V202.18C404.786 202.109 404.758 202.041 404.707 201.99C404.657 201.94 404.589 201.911 404.517 201.911C404.446 201.913 404.379 201.942 404.329 201.992C404.279 202.042 404.25 202.109 404.248 202.18V205.3L401.485 202.514C401.46 202.489 401.43 202.469 401.397 202.455C401.365 202.441 401.329 202.434 401.294 202.434C401.259 202.434 401.223 202.441 401.191 202.455C401.158 202.469 401.128 202.489 401.103 202.514C401.054 202.565 401.026 202.633 401.026 202.705C401.026 202.776 401.054 202.844 401.103 202.896L403.872 205.66H400.754C400.683 205.661 400.615 205.69 400.565 205.74C400.515 205.79 400.486 205.858 400.485 205.929C400.485 206 400.513 206.069 400.564 206.119C400.614 206.17 400.682 206.198 400.754 206.198H403.872L401.103 208.968C401.054 209.019 401.026 209.087 401.026 209.159C401.026 209.23 401.054 209.298 401.103 209.35C401.155 209.398 401.223 209.425 401.294 209.425C401.365 209.425 401.433 209.398 401.485 209.35L404.248 206.58V209.694C404.248 209.765 404.277 209.833 404.327 209.884C404.378 209.934 404.446 209.963 404.517 209.963C404.589 209.963 404.657 209.934 404.707 209.884C404.758 209.833 404.786 209.765 404.786 209.694V206.58L407.555 209.35C407.607 209.398 407.675 209.425 407.746 209.425C407.817 209.425 407.885 209.398 407.937 209.35C407.986 209.298 408.014 209.23 408.014 209.159C408.014 209.087 407.986 209.019 407.937 208.968L405.168 206.198H408.281C408.352 206.198 408.421 206.17 408.471 206.119C408.521 206.069 408.55 206 408.55 205.929C408.546 205.86 408.515 205.796 408.466 205.749C408.416 205.702 408.35 205.676 408.281 205.676Z" fill="#3DB83A"/>
<path d="M494.838 271.103C494.823 270.453 494.742 269.806 494.596 269.172C494.113 267.354 493.021 265.155 491.225 264.606C489.371 264.038 487.58 263.281 485.881 262.347C485.558 256.582 486.881 250.682 485.44 245.094C484.902 243.05 484.015 241.092 483.779 239C483.483 236.397 484.193 233.622 483.155 231.223C482.338 229.33 480.542 227.996 478.612 227.297C476.682 226.598 474.601 226.409 472.553 226.221C469.972 226.012 461.617 225.022 458.702 227.329C458.501 227.485 458.321 227.666 458.165 227.867C458.1 227.956 458.043 228.049 457.993 228.147L457.966 228.19C457.907 228.302 457.859 228.419 457.821 228.539C457.78 228.671 457.75 228.806 457.729 228.943C457.729 228.986 457.729 229.029 457.729 229.072C457.729 229.115 457.729 229.26 457.729 229.357V229.502C457.729 229.599 457.729 229.696 457.729 229.798C457.729 229.9 457.729 229.873 457.729 229.911C457.767 230.395 457.837 230.879 457.837 231.358C457.843 231.596 457.821 231.834 457.772 232.067C457.593 232.702 457.29 233.294 456.88 233.81L456.783 233.95C456.724 234.036 456.665 234.117 456.611 234.203C456.557 234.289 456.514 234.353 456.471 234.429C456.428 234.504 456.385 234.552 456.348 234.622C456.296 234.711 456.249 234.802 456.208 234.896C456.208 234.95 456.149 234.999 456.127 235.052C456.06 235.198 456.006 235.349 455.966 235.504C455.84 235.971 455.829 236.462 455.934 236.935C456.078 237.538 456.328 238.111 456.67 238.629C456.805 238.849 456.95 239.065 457.1 239.28L457.477 239.791C457.406 240.29 457.369 240.793 457.364 241.297C457.364 242.981 457.746 244.643 458.482 246.158C459.218 247.673 460.288 249.001 461.611 250.042C461.824 252.313 461.801 254.6 461.541 256.867C461.493 257.34 461.434 257.819 461.369 258.292C461.305 258.765 461.256 259.077 461.192 259.47C460.405 259.583 459.603 259.522 458.842 259.292C458.491 259.136 458.132 258.997 457.767 258.878C456.202 258.486 454.606 260.045 453.057 259.572C453.057 259.647 453.014 259.717 452.987 259.787C452.664 259.586 452.292 259.477 451.912 259.47C450.992 259.427 450.245 258.76 449.578 258.131L447.53 256.2C447.396 256.082 447.277 255.948 447.175 255.802C447.065 255.593 446.982 255.37 446.928 255.14C446.584 254.027 445.75 253.14 444.944 252.295C444.791 252.103 444.588 251.956 444.358 251.87C444.269 251.857 444.178 251.857 444.089 251.87C444.034 251.795 443.975 251.723 443.912 251.655C443.772 251.495 443.623 251.344 443.465 251.203C442.487 250.3 442.39 249.525 441.54 248.514C440.8 247.55 440.128 246.534 439.53 245.476C439.46 244.911 439.363 244.33 439.245 243.744C438.974 242.402 438.579 241.087 438.067 239.818L436.992 237.435L436.868 237.559C436.089 236.397 435.255 235.762 434.508 235.913C433.255 236.171 432.637 238.602 432.836 241.781L433.266 245.008C433.266 245.088 433.304 245.169 433.325 245.25C433.248 245.632 433.208 246.021 433.207 246.411C433.207 246.863 433.626 247.197 433.847 247.6C434.199 248.146 434.386 248.783 434.384 249.434C434.357 249.665 434.287 249.886 434.277 250.112C434.306 250.617 434.482 251.103 434.782 251.51L437.47 256.028L438.008 256.974L438.04 257.017C438.21 257.348 438.457 257.632 438.761 257.846C438.866 258.977 439.166 260.081 439.648 261.11C439.739 261.315 439.841 261.508 439.949 261.702C440.672 262.89 441.523 263.996 442.487 264.999L443.766 266.435C445.03 267.844 446.293 269.258 447.664 270.56C448.155 271.082 448.748 271.498 449.406 271.781C449.729 271.91 450.08 271.951 450.423 271.901C450.767 271.851 451.091 271.711 451.363 271.496C451.363 272.163 451.363 272.829 451.363 273.496C451.563 273.509 451.756 273.574 451.922 273.686C452.088 273.797 452.221 273.951 452.307 274.132C452.394 274.312 452.431 274.512 452.414 274.712C452.398 274.911 452.328 275.102 452.213 275.266C451.084 278.165 449.944 281.09 448.234 283.688C449.441 284.403 450.56 285.257 451.568 286.232C452.222 286.957 452.803 287.744 453.304 288.582C453.353 288.98 453.39 289.373 453.412 289.766C453.81 296.177 451.331 302.539 449.111 308.649C448.471 310.381 447.772 312.193 447.826 313.995C447.404 314.255 447.002 314.544 446.621 314.861C447.062 316.012 446.89 317.039 446.842 318.271C446.826 319.009 446.674 319.738 446.396 320.422C446.162 320.896 445.903 321.357 445.621 321.804C444.229 324.262 443.922 327.182 443.643 329.99C443.476 331.684 444.132 333.755 443.363 335.271C442.035 337.874 440.858 340.65 440.675 343.543C440.668 344.194 440.585 344.842 440.428 345.474C440.261 346.012 439.965 346.469 439.815 346.996C439.66 347.702 439.623 348.429 439.707 349.147C439.809 351.725 439.426 354.3 438.578 356.736C437.906 358.656 437.164 360.711 437.691 362.684C436.394 364.047 435.593 365.807 435.417 367.681C435.403 368.16 435.345 368.637 435.245 369.106C435.08 369.585 434.864 370.045 434.599 370.478C433.517 372.449 433.01 374.686 433.137 376.931C431.524 379.12 430.717 381.82 430.239 384.504C429.76 387.188 429.551 389.92 428.938 392.572C428.121 396.078 426.642 399.622 426.352 403.215C424.61 404.328 423.857 406.485 423.524 408.523C423.19 410.562 423.136 412.702 422.282 414.585C421.841 415.564 421.206 416.44 420.787 417.441C420.493 418.237 420.277 419.06 420.142 419.899C419.884 421.211 419.658 422.674 419.975 423.932C419.519 424.415 418.987 424.821 418.4 425.132C418.486 424.798 418.556 424.465 418.615 424.126C417.228 425.384 414.711 424.943 413.604 426.455C413.271 426.942 413.141 427.539 413.242 428.121C413.342 428.702 413.665 429.221 414.141 429.569C414.488 429.78 414.863 429.941 415.254 430.047C417.943 430.908 420.706 431.774 423.47 431.317C423.797 431.281 424.113 431.181 424.4 431.021C424.759 430.756 425.055 430.414 425.266 430.02C425.68 429.364 426.094 428.708 426.502 428.052C427.492 428.348 428.5 428.583 429.518 428.757C429.621 429.617 429.696 430.478 429.734 431.338C430.271 431.446 430.992 431.478 431.244 430.978C431.321 430.789 431.352 430.584 431.336 430.381C431.336 429.999 431.39 429.493 431.422 428.977H431.529C433.17 429.043 434.802 428.713 436.288 428.014C435.712 423.249 437.61 418.592 439.255 414.085C440.992 409.341 442.481 404.511 443.981 399.682C445.057 396.283 446.245 392.991 447.299 389.587C448.625 385.284 449.957 380.981 451.294 376.679C451.874 374.786 452.46 372.914 453.127 371.032C454.53 367.222 456.196 363.515 458.111 359.936C458.649 358.92 459.186 357.914 459.627 356.86C460.165 355.574 460.547 354.23 460.977 352.901C461.914 350.175 463.042 347.519 464.353 344.952C464.391 344.882 464.418 344.818 464.455 344.753C464.891 346.533 465.326 348.341 465.617 350.131C466.01 352.327 466.041 354.573 465.708 356.779C465.45 358.28 464.961 359.764 465.02 361.286C465.101 363.389 466.224 365.298 466.778 367.326C467.135 368.843 467.337 370.393 467.38 371.951C467.531 374.371 468.843 377.087 467.918 379.33C465.041 386.435 466.434 394.459 464.794 401.919C463.95 405.748 461.364 409.346 461.568 413.262C461.712 416.041 461.955 418.812 462.299 421.577C462.382 422.449 462.609 423.301 462.971 424.099C463.186 424.519 463.432 424.921 463.708 425.304C463.471 425.395 463.273 425.637 463.101 426.148C462.66 427.493 463.101 429.16 464.294 429.913C464.78 430.173 465.305 430.355 465.848 430.451C466.579 430.659 467.335 430.764 468.095 430.763C468.332 430.75 468.567 430.721 468.8 430.677C469.631 431.026 470.48 431.331 471.343 431.591C471.343 431.811 471.386 432.032 471.413 432.252C471.414 432.368 471.44 432.481 471.488 432.586C471.536 432.691 471.606 432.784 471.692 432.86C471.826 432.923 471.975 432.949 472.122 432.936H475.042C475.042 432.693 475.042 432.446 475.042 432.204C475.376 432.239 475.714 432.203 476.033 432.1C476.353 431.996 476.647 431.826 476.897 431.602C477.155 431.272 477.339 430.891 477.434 430.483C478.23 427.783 479.021 425.081 479.806 422.378C480.747 419.39 481.138 416.255 480.961 413.127C479.924 403.215 482.203 393.271 481.462 383.332C481.015 377.358 481.322 371.351 482.376 365.454C482.617 364.12 482.913 362.765 483.021 361.437C483.257 358.93 482.967 356.397 483.144 353.907C483.204 353.036 483.322 352.17 483.429 351.304C484.166 345.93 484.552 340.513 484.585 335.088C484.569 333.291 484.458 331.496 484.252 329.71C484.812 329.567 485.321 329.269 485.72 328.85C486.198 328.226 486.075 327.349 486.069 326.553C486.069 324.649 486.87 322.853 487.516 321.056C488.344 318.579 489.022 316.054 489.548 313.495C490.103 311.432 490.407 309.31 490.451 307.175C490.451 306.96 490.44 306.745 490.419 306.53C490.621 306.389 490.79 306.206 490.913 305.992C491.054 305.677 491.141 305.341 491.172 304.997C491.365 303.625 491.564 302.249 491.758 300.872C491.901 299.886 492.043 298.902 492.182 297.919L493.892 285.985C494.037 284.947 494.188 283.914 494.333 282.881L494.779 279.794C494.828 279.429 494.881 279.063 494.919 278.719C496.231 276.524 494.978 273.599 494.838 271.103ZM480.574 315.786C479.94 314.28 479.349 312.736 479.499 311.112H479.44C479.581 310.612 479.557 310.08 479.37 309.595C479.203 309.203 478.913 308.869 478.736 308.477C478.545 307.997 478.446 307.487 478.445 306.971C478.312 303.7 478.57 300.424 479.214 297.215C479.284 296.838 479.359 296.456 479.429 296.08C479.655 295.949 479.861 295.788 480.042 295.601C480.325 295.279 480.559 294.916 480.736 294.525C481.343 293.305 481.897 292.062 482.408 290.798C482.574 290.39 482.816 289.916 483.23 289.814C483.144 292.96 483.467 296.171 482.187 299.011C481.944 299.469 481.763 299.957 481.65 300.463C481.531 301.264 481.865 302.077 481.746 302.873C481.687 303.287 481.51 303.669 481.44 304.077C481.387 304.278 481.388 304.489 481.443 304.689C481.497 304.89 481.604 305.072 481.752 305.217C481.823 305.267 481.901 305.307 481.983 305.336C481.951 305.551 481.924 305.771 481.902 305.981C481.859 306.422 481.838 306.836 481.811 307.094C481.687 308.41 481.639 309.732 481.666 311.053C481.666 312.478 481.72 313.903 481.698 315.356C481.718 315.772 481.648 316.189 481.494 316.576C481.387 316.776 481.249 316.958 481.085 317.114C480.929 316.63 480.757 316.205 480.574 315.786Z" fill="url(#paint0_linear)"/>
<path d="M438.133 253.381C439.774 253.045 440.332 249.005 439.38 244.358C438.428 239.711 436.326 236.216 434.686 236.553C433.045 236.889 432.487 240.929 433.439 245.576C434.391 250.223 436.492 253.718 438.133 253.381Z" fill="#FBBEBE"/>
<path d="M463.186 426.25C462.746 427.584 463.186 429.251 464.38 429.977C464.864 430.235 465.384 430.417 465.923 430.515C466.653 430.721 467.407 430.824 468.165 430.822C469.095 430.779 469.988 430.413 470.918 430.284C471.025 430.257 471.139 430.272 471.235 430.327C471.282 430.377 471.317 430.437 471.337 430.502C471.358 430.567 471.363 430.636 471.354 430.703C471.363 431.232 471.403 431.76 471.472 432.285C471.473 432.4 471.498 432.514 471.546 432.619C471.594 432.723 471.664 432.817 471.751 432.892C471.886 432.955 472.034 432.981 472.181 432.968H475.096C475.162 430.407 474.881 427.849 474.262 425.363C474.222 425.172 474.149 424.991 474.047 424.825C473.8 424.554 473.475 424.366 473.117 424.287C472.405 423.991 471.635 423.856 470.864 423.894C469.923 424.018 469.138 424.626 468.337 425.131C467.536 425.637 466.445 426.083 465.472 425.825C464.498 425.567 463.686 424.755 463.186 426.25Z" fill="#3F3D56"/>
<path d="M420.4 423.889C419.58 424.767 418.576 425.45 417.459 425.89L416.964 426.126C416.896 426.152 416.837 426.2 416.797 426.261C416.788 426.303 416.788 426.346 416.797 426.388C416.806 426.43 416.825 426.469 416.851 426.503C417.263 427.14 417.871 427.625 418.583 427.884C419.296 428.143 420.073 428.162 420.798 427.939C421.118 427.859 421.414 427.704 421.663 427.487C422.073 427.001 422.308 426.391 422.33 425.755C422.493 425.1 422.465 424.411 422.249 423.771C421.502 422.087 421.228 422.851 420.4 423.889Z" fill="#FBBEBE"/>
<path d="M431.572 430.515C431.589 430.719 431.557 430.923 431.481 431.112C431.228 431.607 430.524 431.58 429.975 431.473C429.892 429.648 429.671 427.832 429.314 426.04C428.271 425.992 427.518 426.982 426.959 427.869L425.518 430.155C425.31 430.548 425.016 430.89 424.658 431.155C424.37 431.313 424.054 431.413 423.728 431.451C420.975 431.908 418.195 431.042 415.539 430.182C415.148 430.077 414.773 429.917 414.426 429.708C413.952 429.36 413.632 428.842 413.531 428.262C413.431 427.683 413.559 427.087 413.889 426.6C415.002 425.094 417.502 425.524 418.889 424.276C418.744 425.154 418.506 426.014 418.179 426.842C420.034 426.562 421.281 424.863 422.776 423.728C423.152 423.409 423.604 423.194 424.088 423.104C424.45 423.073 424.815 423.112 425.163 423.217C426.887 423.651 428.499 424.445 429.895 425.546C430.459 425.992 431.341 426.621 431.588 427.31C431.852 428.133 431.572 429.639 431.572 430.515Z" fill="#3F3D56"/>
<path d="M468.558 253.064C474.692 253.064 479.666 248.09 479.666 241.953C479.666 235.816 474.692 230.841 468.558 230.841C462.423 230.841 457.45 235.816 457.45 241.953C457.45 248.09 462.423 253.064 468.558 253.064Z" fill="#FBBEBE"/>
<path d="M490.44 307.557C490.396 309.681 490.094 311.792 489.543 313.844C489.017 316.393 488.338 318.907 487.51 321.374C486.87 323.165 486.069 324.961 486.075 326.86C486.075 327.65 486.204 328.527 485.72 329.151C485.289 329.589 484.746 329.899 484.15 330.049C483.853 330.128 483.578 330.276 483.348 330.48C483.118 330.685 482.94 330.941 482.827 331.227C482.322 330.472 481.945 329.64 481.709 328.764C480.745 325.809 479.849 322.838 479.021 319.852C478.945 319.68 478.912 319.492 478.925 319.305C478.938 319.117 478.997 318.936 479.096 318.776C479.232 318.657 479.391 318.568 479.564 318.513C480.115 318.288 480.62 317.963 481.053 317.555C481.256 317.375 481.424 317.158 481.548 316.915C481.704 316.53 481.775 316.115 481.757 315.7C481.757 314.274 481.757 312.855 481.72 311.429C481.697 310.114 481.747 308.797 481.87 307.487C481.87 307.229 481.919 306.815 481.962 306.374C482.042 305.529 482.204 304.551 482.661 304.222C483.343 303.765 485.386 304.378 486.161 304.486C487.494 304.669 488.849 304.884 490.15 305.137C490.339 305.93 490.437 306.742 490.44 307.557Z" fill="#3F3D56"/>
<path d="M445.589 254.393C445.159 255.253 444.127 255.667 443.331 256.21L440.605 258.082C440.423 258.246 440.209 258.372 439.977 258.451C439.745 258.531 439.5 258.563 439.255 258.545C439.034 258.463 438.83 258.337 438.658 258.176C438.485 258.014 438.346 257.819 438.25 257.603C438.252 257.589 438.252 257.575 438.25 257.56L437.685 256.614L434.997 252.107C434.698 251.703 434.524 251.221 434.497 250.719C434.497 250.488 434.578 250.273 434.599 250.042C434.607 249.392 434.419 248.755 434.062 248.213C433.847 247.81 433.416 247.476 433.427 247.024C433.407 246.431 433.509 245.839 433.728 245.287C434.01 244.776 434.415 244.344 434.906 244.029C435.158 243.846 435.416 243.674 435.685 243.491C435.828 243.393 435.986 243.321 436.153 243.276C436.599 243.184 437.04 243.555 437.492 243.572C439.433 244.873 440.18 247.336 441.707 249.111C442.567 250.122 442.653 250.897 443.627 251.8C443.782 251.94 443.933 252.091 444.078 252.247C444.271 252.457 444.433 252.692 444.562 252.946C444.739 253.408 445.809 253.952 445.589 254.393Z" fill="#3F3D56"/>
<path d="M464.654 253.07C465.455 254.764 466.079 256.625 465.848 258.485C465.801 258.99 465.641 259.477 465.38 259.911C464.606 261.099 462.982 261.314 461.568 261.384C461.27 261.359 460.97 261.394 460.686 261.486C460.402 261.579 460.139 261.727 459.912 261.922C459.723 262.197 459.631 262.526 459.649 262.859C459.668 263.192 459.796 263.509 460.014 263.762C460.469 264.247 461.033 264.616 461.66 264.837C463.896 265.821 466.31 266.634 468.74 266.408C469.87 266.3 470.966 265.972 472.09 265.805C473.315 265.673 474.546 265.604 475.778 265.601C477.241 265.547 478.698 265.402 480.155 265.257L484.015 264.875C484.226 264.878 484.431 264.803 484.591 264.665C484.876 264.332 484.51 263.842 484.155 263.589C482.107 262.073 479.499 261.029 478.332 258.749C477.795 257.673 477.628 256.393 477.23 255.232C476.832 254.07 476.198 253.021 475.95 251.838C475.819 250.8 475.759 249.754 475.773 248.708C475.787 247.653 475.403 246.631 474.698 245.846C473.929 245.131 472.816 244.948 471.773 244.905C469.203 244.792 466.466 245.405 464.644 247.218C464.154 247.707 463.735 248.294 463.23 248.735C462.724 249.176 462.036 249.305 462.369 249.886C462.703 250.466 463.359 250.827 463.713 251.338C464.073 251.889 464.387 252.468 464.654 253.07Z" fill="#FBBEBE"/>
<path d="M486.553 268.715C485.875 272.856 484.772 276.917 483.263 280.832C482.504 282.6 481.857 284.415 481.327 286.264C480.913 287.932 480.994 289.717 480.612 291.39C480.139 293.471 479.666 295.558 479.284 297.656C478.643 300.859 478.387 304.127 478.52 307.39C478.522 307.904 478.62 308.413 478.811 308.891C478.988 309.278 479.273 309.611 479.44 310.009C479.565 310.359 479.616 310.731 479.59 311.101C479.564 311.471 479.461 311.832 479.289 312.161C479.013 312.776 478.639 313.343 478.182 313.839C473.171 315.334 467.81 314.845 462.59 315.162C457.778 315.452 452.912 316.442 448.17 315.619C447.632 313.468 448.53 311.214 449.299 309.117C451.53 303.023 453.998 296.677 453.6 290.293C453.558 289.548 453.474 288.806 453.347 288.071C452.568 283.548 453.417 278.864 454.777 274.481C455.622 271.748 455.584 268.839 455.39 265.994C455.295 265.07 455.282 264.139 455.353 263.213C455.431 262.267 455.782 261.365 456.364 260.615C456.364 260.578 456.412 260.54 456.439 260.502C456.466 260.465 456.675 260.47 456.842 260.502C456.885 260.52 456.93 260.53 456.976 260.53C457.023 260.53 457.068 260.52 457.111 260.502L457.17 260.465C457.193 260.449 457.22 260.44 457.248 260.44C457.276 260.44 457.303 260.449 457.326 260.465C457.45 260.54 457.52 260.798 457.788 260.847C458.186 260.907 458.586 260.944 458.987 260.96C459.47 260.974 459.95 261.042 460.418 261.164H460.482C461.181 261.282 461.899 261.221 462.568 260.986C463.014 260.875 463.443 260.709 463.848 260.492C463.966 260.363 464.708 260.244 464.859 260.153C465.348 259.857 465.24 258.469 465.342 257.899C465.399 257.328 465.535 256.766 465.746 256.232C465.991 255.838 466.328 255.509 466.73 255.276C467.131 255.042 467.583 254.911 468.047 254.893C468.973 254.871 469.898 254.954 470.805 255.14C472.811 255.425 474.864 255.377 476.832 255.839C477.822 256.071 478.902 256.42 479.811 255.969C480.058 256.028 480.096 256.243 480.096 256.506C480.073 256.757 480.022 257.004 479.945 257.243C479.601 258.728 480.768 260.094 481.843 261.169C482.297 261.676 482.834 262.104 483.429 262.433C483.967 262.681 484.505 262.783 485.042 263.052C485.478 263.284 485.848 263.623 486.118 264.036C486.427 264.51 486.636 265.043 486.73 265.601C486.846 266.642 486.786 267.694 486.553 268.715Z" fill="#3F3D56"/>
<path opacity="0.1" d="M486.553 268.715C485.875 272.856 484.773 276.917 483.263 280.832C482.504 282.6 481.857 284.415 481.327 286.264C480.913 287.931 480.994 289.717 480.612 291.39C480.139 293.471 479.666 295.558 479.284 297.655C479.171 297.72 479.053 297.779 478.935 297.833C478.266 298.152 477.557 298.38 476.827 298.511C475.516 298.669 474.189 298.626 472.891 298.381L465.219 297.354C462.154 296.94 458.891 296.44 456.616 294.364C455.353 293.224 454.525 291.718 453.616 290.266C453.575 289.521 453.49 288.779 453.364 288.044C452.584 283.521 453.433 278.837 454.794 274.454C455.638 271.721 455.6 268.812 455.407 265.967C455.311 265.043 455.298 264.112 455.369 263.186C455.447 262.24 455.798 261.338 456.38 260.588C456.537 260.542 456.697 260.506 456.858 260.481C456.967 260.459 457.076 260.444 457.186 260.438H457.342C457.523 260.438 457.704 260.46 457.88 260.502C458.246 260.619 458.605 260.757 458.955 260.916H459.02C459.481 261.068 459.965 261.137 460.45 261.121C461.16 261.121 461.891 261.008 462.601 260.959C463.477 260.822 464.375 260.983 465.149 261.417C465.649 261.818 466.123 262.251 466.568 262.713C467.106 263.135 467.712 263.464 468.359 263.686C472.987 265.453 478.122 265.345 482.671 263.385C483.108 263.136 483.604 263.01 484.107 263.019C484.478 263.092 484.83 263.242 485.139 263.46C485.462 263.649 485.779 263.831 486.107 263.998C486.417 264.472 486.626 265.005 486.72 265.563C486.843 266.616 486.787 267.681 486.553 268.715Z" fill="black"/>
<path d="M491.236 265.155C489.095 264.5 487.038 263.598 485.107 262.465C484.797 262.249 484.445 262.099 484.075 262.025C483.571 262.019 483.074 262.145 482.634 262.39C478.086 264.35 472.953 264.458 468.327 262.691C467.68 262.468 467.075 262.139 466.536 261.718C466.089 261.258 465.615 260.825 465.117 260.422C463.348 259.276 460.901 260.621 458.923 259.884C458.572 259.727 458.213 259.589 457.848 259.47C456.283 259.077 454.692 260.637 453.154 260.164C452.582 261.719 452.159 263.325 451.89 264.961C451.672 266.839 451.555 268.728 451.541 270.619C451.541 271.754 451.487 272.889 451.541 274.023C451.73 274.054 451.911 274.124 452.072 274.229C452.233 274.334 452.371 274.471 452.476 274.631C452.547 274.819 452.576 275.019 452.561 275.219C452.546 275.419 452.488 275.613 452.39 275.788C451.267 278.676 450.127 281.596 448.422 284.183C449.624 284.899 450.739 285.751 451.745 286.722C453.627 288.712 454.552 291.503 456.584 293.342C458.875 295.413 462.138 295.918 465.187 296.327L472.859 297.354C474.158 297.598 475.487 297.643 476.8 297.489C477.528 297.356 478.235 297.126 478.902 296.806C479.338 296.624 479.736 296.361 480.074 296.031C480.358 295.709 480.592 295.347 480.768 294.956C481.375 293.74 481.929 292.498 482.44 291.239C482.617 290.793 482.886 290.271 483.37 290.234C486.22 287.663 488.908 285.027 491.758 282.457C492.903 281.507 493.93 280.424 494.817 279.23C496.231 277.137 494.946 274.174 494.817 271.646C494.801 271 494.72 270.356 494.575 269.726C494.113 267.892 493.027 265.698 491.236 265.155Z" fill="#3DB83A"/>
<path opacity="0.1" d="M445.589 254.393C445.159 255.253 444.127 255.667 443.331 256.21L440.605 258.082C440.423 258.246 440.209 258.372 439.977 258.451C439.745 258.531 439.5 258.563 439.255 258.545C439.034 258.463 438.83 258.337 438.658 258.176C438.485 258.014 438.346 257.819 438.25 257.603C438.25 257.48 438.25 257.345 438.25 257.216C438.229 256.781 438.288 256.345 438.422 255.931C438.689 255.323 439.103 254.79 439.626 254.382C440.639 253.423 441.843 252.69 443.159 252.231C443.364 252.151 443.587 252.128 443.804 252.166C443.888 252.188 443.967 252.222 444.041 252.268C444.233 252.478 444.396 252.713 444.524 252.967C444.739 253.408 445.809 253.952 445.589 254.393Z" fill="black"/>
<path d="M452.009 260.061C451.095 260.018 450.347 259.357 449.681 258.728L447.643 256.834C447.506 256.719 447.387 256.585 447.288 256.436C447.178 256.227 447.095 256.005 447.041 255.775C446.609 254.688 445.931 253.717 445.062 252.935C444.911 252.742 444.707 252.597 444.476 252.516C444.257 252.475 444.032 252.498 443.825 252.58C442.509 253.039 441.305 253.772 440.293 254.732C439.77 255.14 439.356 255.672 439.089 256.28C438.954 256.695 438.895 257.13 438.917 257.566C438.929 258.987 439.248 260.388 439.852 261.675C439.944 261.874 440.046 262.073 440.153 262.266C440.871 263.452 441.718 264.555 442.68 265.553L443.96 266.983C445.218 268.392 446.476 269.801 447.842 271.098C448.331 271.62 448.925 272.034 449.584 272.313C449.915 272.448 450.276 272.49 450.629 272.433C450.982 272.376 451.312 272.223 451.584 271.99C451.841 271.692 452.035 271.344 452.154 270.969C452.982 268.817 453.767 266.58 453.815 264.262C453.827 263.333 453.787 262.405 453.697 261.481C453.616 260.502 452.923 260.121 452.009 260.061Z" fill="#3DB83A"/>
<path d="M484.591 335.357C484.56 340.767 484.175 346.169 483.44 351.53C483.333 352.395 483.214 353.261 483.155 354.127C482.978 356.639 483.268 359.161 483.032 361.657C482.908 363.007 482.628 364.346 482.392 365.664C481.341 371.545 481.034 377.535 481.478 383.493C482.22 393.405 479.945 403.322 480.978 413.208C481.103 415.13 480.996 417.06 480.66 418.957C480.468 420.134 480.189 421.295 479.827 422.431C479.042 425.124 478.254 427.813 477.461 430.499C477.368 430.907 477.184 431.29 476.924 431.618C476.649 431.855 476.328 432.031 475.98 432.134C475.632 432.237 475.267 432.264 474.908 432.215C471.805 432.118 468.886 430.779 466.068 429.472C465.744 429.344 465.444 429.162 465.181 428.934C464.595 428.326 464.644 427.369 464.386 426.567C464.127 425.766 463.429 425.013 463.031 424.19C462.704 423.412 462.506 422.585 462.445 421.743C462.086 418.989 461.842 416.225 461.713 413.45C461.509 409.545 464.09 405.952 464.939 402.155C466.552 394.69 465.187 386.687 468.052 379.604C468.956 377.367 467.644 374.656 467.515 372.247C467.468 370.692 467.267 369.146 466.913 367.632C466.375 365.61 465.24 363.706 465.16 361.608C465.101 360.092 465.59 358.613 465.843 357.118C466.178 354.917 466.147 352.676 465.751 350.486C465.466 348.679 465.031 346.872 464.595 345.108L464.498 345.307C463.188 347.868 462.062 350.519 461.127 353.24C460.697 354.557 460.321 355.902 459.783 357.182C459.342 358.258 458.799 359.242 458.267 360.253C456.358 363.819 454.696 367.512 453.294 371.305C452.627 373.166 452.041 375.07 451.46 376.937L447.476 389.844C446.401 393.238 445.223 396.519 444.17 399.907C442.68 404.748 441.191 409.545 439.46 414.278C437.847 418.769 435.927 423.421 436.503 428.165C435.02 428.862 433.392 429.192 431.755 429.127C428.984 428.882 426.265 428.222 423.69 427.17C422.663 426.788 421.599 426.358 420.905 425.513C419.712 424.056 420.007 421.92 420.368 420.065C420.503 419.229 420.719 418.407 421.013 417.612C421.421 416.623 422.088 415.746 422.507 414.767C423.352 412.89 423.405 410.766 423.739 408.728C424.072 406.689 424.814 404.538 426.556 403.43C426.852 399.848 428.325 396.314 429.137 392.813C429.75 390.162 429.954 387.435 430.438 384.746C430.922 382.057 431.701 379.368 433.325 377.189C433.197 374.943 433.704 372.707 434.788 370.735C435.049 370.302 435.264 369.843 435.427 369.364C435.528 368.897 435.585 368.422 435.599 367.944C435.777 366.075 436.576 364.32 437.868 362.958C437.331 360.995 438.078 358.946 438.75 357.042C439.597 354.613 439.979 352.046 439.879 349.475C439.796 348.757 439.83 348.03 439.981 347.324C440.132 346.786 440.428 346.329 440.6 345.812C440.753 345.18 440.834 344.532 440.842 343.882C441.051 340.972 442.229 338.229 443.53 335.631C444.304 334.115 443.648 332.055 443.809 330.366C444.089 327.559 444.395 324.654 445.788 322.207C446.046 321.745 446.326 321.304 446.557 320.825C446.837 320.141 446.988 319.412 447.003 318.674C447.051 317.442 447.224 316.42 446.783 315.275C449.659 312.881 453.584 312.209 457.326 312.048C461.068 311.886 464.853 312.225 468.515 311.429C469.59 311.187 470.665 310.854 471.8 310.692C474.375 310.316 476.988 310.902 479.531 311.483C479.354 313.096 479.945 314.645 480.607 316.146C483.189 322.224 484.543 328.753 484.591 335.357Z" fill="#33313F"/>
<path opacity="0.1" d="M471.929 336.589L465.751 350.486C465.466 348.679 465.031 346.872 464.595 345.108L464.498 345.307V345.017L467.864 337.611L471.929 336.589Z" fill="black"/>
<path opacity="0.1" d="M490.44 307.557C490.084 307.824 489.658 307.982 489.214 308.014C488.533 308.038 487.853 307.946 487.204 307.74L482.365 306.53C482.213 306.492 482.065 306.44 481.924 306.374C482.004 305.529 482.166 304.551 482.623 304.222C483.306 303.765 485.349 304.378 486.123 304.486C487.456 304.669 488.811 304.884 490.112 305.137C490.314 305.928 490.424 306.74 490.44 307.557Z" fill="black"/>
<path d="M494.532 275.556C494.634 276.003 494.779 276.444 494.865 276.895C495.01 278.004 494.972 279.129 494.752 280.225L494.311 283.301L493.871 286.394L492.166 298.296L491.747 301.243L491.155 305.357C491.127 305.7 491.04 306.035 490.897 306.347C490.721 306.639 490.475 306.883 490.181 307.057C489.888 307.231 489.555 307.329 489.214 307.342C488.534 307.363 487.854 307.271 487.204 307.068L482.365 305.852C482.153 305.814 481.951 305.732 481.773 305.61C481.625 305.466 481.519 305.284 481.464 305.085C481.409 304.885 481.408 304.675 481.461 304.475C481.531 304.067 481.709 303.685 481.768 303.276C481.886 302.48 481.553 301.662 481.671 300.872C481.787 300.368 481.968 299.882 482.209 299.425C483.822 295.859 482.886 291.697 483.435 287.824C483.928 284.776 485.215 281.912 487.166 279.52C488.37 278.01 489.753 276.652 491.284 275.476C491.887 275.008 492.844 274.045 493.602 273.862C494.575 273.658 494.371 274.879 494.532 275.556Z" fill="#3DB83A"/>
<path d="M457.912 229.228C457.557 230.357 458.111 231.6 457.858 232.751C457.584 234.02 456.391 234.902 456.052 236.176C455.514 238.118 457.159 239.887 458.364 241.501C462.826 247.492 462.24 255.786 460.713 263.095C459.485 268.959 457.786 274.714 455.632 280.305C454.96 282.042 454.218 283.807 452.896 285.108C455.369 284.398 457.998 283.683 460.477 284.371C463.617 285.243 466.326 288.292 469.509 287.598C471.423 287.173 472.768 285.474 474.488 284.533C477.714 282.795 481.601 283.887 485.198 284.447C485.973 284.629 486.784 284.588 487.537 284.328C488.112 284.019 488.601 283.569 488.956 283.021C490.562 280.961 491.523 278.473 491.72 275.868C491.805 274.571 491.614 273.271 491.159 272.054C490.703 270.836 489.995 269.729 489.08 268.807C488.317 268.086 487.403 267.505 486.817 266.655C486.247 265.663 485.941 264.54 485.929 263.396C485.505 257.48 486.946 251.44 485.462 245.718C484.924 243.679 484.048 241.727 483.811 239.64C483.515 237.042 484.22 234.262 483.187 231.885C482.375 229.997 480.585 228.658 478.655 227.969C476.725 227.281 474.66 227.087 472.612 226.894C469.665 226.646 459.143 225.382 457.912 229.228Z" fill="#33313F"/>
<g opacity="0.1">
<path opacity="0.1" d="M460.713 263.095C459.491 268.934 457.801 274.666 455.659 280.235C456.03 279.498 456.342 278.724 456.638 277.955C458.793 272.365 460.493 266.609 461.719 260.744C463.251 253.43 463.837 245.147 459.374 239.151C458.299 237.72 456.917 236.171 456.966 234.493C456.568 235 456.259 235.571 456.052 236.182C455.514 238.123 457.159 239.893 458.364 241.506C462.826 247.492 462.24 255.786 460.713 263.095Z" fill="black"/>
<path opacity="0.1" d="M457.923 232.207C458.354 231.671 458.676 231.055 458.869 230.395C458.952 229.596 458.931 228.789 458.805 227.996C458.39 228.308 458.08 228.737 457.912 229.228C457.595 230.18 457.96 231.212 457.923 232.207Z" fill="black"/>
<path opacity="0.1" d="M489.967 280.655C489.611 281.201 489.123 281.649 488.548 281.956C487.796 282.222 486.984 282.263 486.209 282.075C482.612 281.537 478.682 280.429 475.499 282.166C473.773 283.102 472.434 284.802 470.515 285.232C467.337 285.942 464.627 282.892 461.488 282.005C459.262 281.386 456.917 281.897 454.675 282.543C454.23 283.493 453.628 284.362 452.896 285.113C455.369 284.404 457.998 283.688 460.477 284.377C463.617 285.248 466.326 288.297 469.509 287.604C471.423 287.179 472.768 285.479 474.488 284.538C477.714 282.801 481.601 283.893 485.198 284.452C485.973 284.635 486.784 284.594 487.537 284.334C488.112 284.024 488.601 283.575 488.956 283.027C489.931 281.741 490.683 280.301 491.182 278.767C490.823 279.425 490.417 280.056 489.967 280.655Z" fill="black"/>
</g>
</g>
<defs>
<linearGradient id="paint0_linear" x1="413.244" y1="329.377" x2="495.505" y2="329.377" gradientUnits="userSpaceOnUse">
<stop stop-color="#808080" stop-opacity="0.25"/>
<stop offset="0.54" stop-color="#808080" stop-opacity="0.12"/>
<stop offset="1" stop-color="#808080" stop-opacity="0.1"/>
</linearGradient>
<clipPath id="clip0">
<rect width="627" height="433" fill="white"/>
</clipPath>
</defs>
</svg>
