<svg width="202" height="175" viewBox="0 0 202 175" fill="none" xmlns="http://www.w3.org/2000/svg">
<path d="M64.424 173.816C63.7627 172.749 63.2453 171.624 62.872 170.44C62.4987 169.256 62.312 167.96 62.312 166.552C62.312 165.144 62.4987 163.853 62.872 162.68C63.2453 161.496 63.7627 160.365 64.424 159.288L65.24 159.672C64.6213 160.696 64.1573 161.795 63.848 162.968C63.5493 164.131 63.4 165.325 63.4 166.552C63.4 167.779 63.5493 168.979 63.848 170.152C64.1573 171.315 64.6213 172.408 65.24 173.432L64.424 173.816ZM67.1078 171V169.912H69.4438V162.392H67.5878V161.544C68.0571 161.459 68.4624 161.357 68.8038 161.24C69.1558 161.112 69.4704 160.963 69.7478 160.792H70.7558V169.912H72.8678V171H67.1078ZM74.4369 171V170.216C75.2049 169.448 75.8875 168.755 76.4849 168.136C77.0822 167.517 77.5835 166.947 77.9889 166.424C78.3942 165.891 78.7035 165.405 78.9169 164.968C79.1302 164.52 79.2369 164.088 79.2369 163.672C79.2369 163.085 79.0769 162.605 78.7569 162.232C78.4369 161.859 77.9515 161.672 77.3009 161.672C76.8742 161.672 76.4795 161.795 76.1169 162.04C75.7542 162.275 75.4235 162.563 75.1249 162.904L74.3729 162.152C74.7995 161.683 75.2529 161.309 75.7329 161.032C76.2129 160.744 76.7889 160.6 77.4609 160.6C78.4102 160.6 79.1569 160.877 79.7009 161.432C80.2449 161.976 80.5169 162.701 80.5169 163.608C80.5169 164.088 80.4102 164.573 80.1969 165.064C79.9942 165.544 79.7062 166.045 79.3329 166.568C78.9702 167.08 78.5329 167.619 78.0209 168.184C77.5195 168.739 76.9649 169.331 76.3569 169.96C76.6342 169.939 76.9222 169.917 77.2209 169.896C77.5195 169.875 77.8022 169.864 78.0689 169.864H81.0289V171H74.4369ZM82.822 173.72L82.502 172.952C82.9607 172.749 83.318 172.477 83.574 172.136C83.83 171.805 83.9527 171.427 83.942 171C83.91 171.011 83.8567 171.016 83.782 171.016C83.526 171.016 83.302 170.941 83.11 170.792C82.9287 170.632 82.838 170.403 82.838 170.104C82.838 169.816 82.934 169.592 83.126 169.432C83.318 169.261 83.5473 169.176 83.814 169.176C84.1553 169.176 84.422 169.315 84.614 169.592C84.8167 169.869 84.918 170.248 84.918 170.728C84.918 171.421 84.7313 172.024 84.358 172.536C83.9847 173.048 83.4727 173.443 82.822 173.72ZM89.7344 171.192C89.2544 171.192 88.8064 171.123 88.3904 170.984C87.985 170.845 87.633 170.653 87.3344 170.408C87.0464 170.152 86.817 169.853 86.6464 169.512C86.4757 169.171 86.3904 168.797 86.3904 168.392C86.3904 168.061 86.4437 167.757 86.5504 167.48C86.6677 167.192 86.8117 166.936 86.9824 166.712C87.1637 166.477 87.3664 166.275 87.5904 166.104C87.825 165.923 88.065 165.768 88.3104 165.64V165.576C87.937 165.309 87.6064 164.989 87.3184 164.616C87.0304 164.232 86.8864 163.768 86.8864 163.224C86.8864 162.829 86.961 162.472 87.1104 162.152C87.2597 161.832 87.4624 161.56 87.7184 161.336C87.9744 161.101 88.2784 160.92 88.6304 160.792C88.9824 160.664 89.3664 160.6 89.7824 160.6C90.2304 160.6 90.6304 160.669 90.9824 160.808C91.3344 160.936 91.633 161.123 91.8784 161.368C92.1344 161.603 92.3264 161.891 92.4544 162.232C92.593 162.563 92.6624 162.925 92.6624 163.32C92.6624 163.587 92.6144 163.843 92.5184 164.088C92.433 164.333 92.321 164.563 92.1824 164.776C92.0544 164.989 91.905 165.181 91.7344 165.352C91.5744 165.523 91.4144 165.667 91.2544 165.784V165.848C91.4784 165.976 91.697 166.125 91.9104 166.296C92.1237 166.456 92.3104 166.643 92.4704 166.856C92.641 167.059 92.7744 167.293 92.8704 167.56C92.977 167.827 93.0304 168.131 93.0304 168.472C93.0304 168.856 92.9504 169.213 92.7904 169.544C92.6304 169.875 92.4064 170.163 92.1184 170.408C91.8304 170.653 91.4837 170.845 91.0784 170.984C90.673 171.123 90.225 171.192 89.7344 171.192ZM90.4544 165.432C90.7957 165.123 91.057 164.797 91.2384 164.456C91.4304 164.115 91.5264 163.757 91.5264 163.384C91.5264 162.872 91.3717 162.445 91.0624 162.104C90.753 161.752 90.3157 161.576 89.7504 161.576C89.2704 161.576 88.8757 161.725 88.5664 162.024C88.257 162.323 88.1024 162.723 88.1024 163.224C88.1024 163.533 88.1664 163.8 88.2944 164.024C88.4224 164.237 88.593 164.429 88.8064 164.6C89.0304 164.771 89.281 164.925 89.5584 165.064C89.8464 165.192 90.145 165.315 90.4544 165.432ZM89.7664 170.216C90.3637 170.216 90.8437 170.051 91.2064 169.72C91.5797 169.389 91.7664 168.957 91.7664 168.424C91.7664 168.093 91.6917 167.811 91.5424 167.576C91.393 167.341 91.1904 167.139 90.9344 166.968C90.6784 166.787 90.3797 166.627 90.0384 166.488C89.7077 166.339 89.361 166.189 88.9984 166.04C88.593 166.317 88.2517 166.643 87.9744 167.016C87.7077 167.379 87.5744 167.795 87.5744 168.264C87.5744 168.552 87.6277 168.813 87.7344 169.048C87.8517 169.283 88.0064 169.491 88.1984 169.672C88.401 169.843 88.6357 169.976 88.9024 170.072C89.169 170.168 89.457 170.216 89.7664 170.216ZM98.5515 171V168.184H93.9595V167.32L98.3275 160.792H99.7995V167.128H101.192V168.184H99.7995V171H98.5515ZM95.3515 167.128H98.5515V164.168C98.5515 163.891 98.5568 163.565 98.5675 163.192C98.5888 162.808 98.6102 162.477 98.6315 162.2H98.5675C98.4395 162.445 98.3062 162.685 98.1675 162.92C98.0288 163.155 97.8848 163.395 97.7355 163.64L95.3515 167.128ZM105.625 171.192C104.59 171.192 103.785 170.733 103.209 169.816C102.633 168.899 102.345 167.581 102.345 165.864C102.345 164.147 102.633 162.84 103.209 161.944C103.785 161.048 104.59 160.6 105.625 160.6C106.649 160.6 107.449 161.048 108.025 161.944C108.601 162.84 108.889 164.147 108.889 165.864C108.889 167.581 108.601 168.899 108.025 169.816C107.449 170.733 106.649 171.192 105.625 171.192ZM105.625 170.136C105.923 170.136 106.19 170.056 106.425 169.896C106.67 169.725 106.878 169.469 107.049 169.128C107.23 168.776 107.369 168.333 107.465 167.8C107.561 167.256 107.609 166.611 107.609 165.864C107.609 165.117 107.561 164.477 107.465 163.944C107.369 163.411 107.23 162.979 107.049 162.648C106.878 162.307 106.67 162.056 106.425 161.896C106.19 161.736 105.923 161.656 105.625 161.656C105.326 161.656 105.054 161.736 104.809 161.896C104.563 162.056 104.35 162.307 104.169 162.648C103.998 162.979 103.865 163.411 103.769 163.944C103.673 164.477 103.625 165.117 103.625 165.864C103.625 167.357 103.806 168.445 104.169 169.128C104.542 169.8 105.027 170.136 105.625 170.136ZM115.901 171.192C115.25 171.192 114.706 171 114.269 170.616C113.842 170.232 113.629 169.688 113.629 168.984C113.629 168.131 114.008 167.48 114.765 167.032C115.522 166.573 116.733 166.253 118.397 166.072C118.397 165.827 118.37 165.587 118.317 165.352C118.274 165.117 118.194 164.909 118.077 164.728C117.96 164.547 117.794 164.403 117.581 164.296C117.378 164.179 117.117 164.12 116.797 164.12C116.349 164.12 115.928 164.205 115.533 164.376C115.138 164.547 114.786 164.739 114.477 164.952L113.965 164.04C114.328 163.805 114.77 163.581 115.293 163.368C115.816 163.144 116.392 163.032 117.021 163.032C117.97 163.032 118.658 163.325 119.085 163.912C119.512 164.488 119.725 165.261 119.725 166.232V171H118.637L118.525 170.072H118.477C118.104 170.381 117.704 170.648 117.277 170.872C116.85 171.085 116.392 171.192 115.901 171.192ZM116.285 170.136C116.658 170.136 117.01 170.051 117.341 169.88C117.672 169.699 118.024 169.437 118.397 169.096V166.936C117.746 167.021 117.197 167.123 116.749 167.24C116.312 167.357 115.954 167.496 115.677 167.656C115.41 167.816 115.213 168.003 115.085 168.216C114.968 168.419 114.909 168.643 114.909 168.888C114.909 169.336 115.042 169.656 115.309 169.848C115.576 170.04 115.901 170.136 116.285 170.136ZM124.827 171.192C123.846 171.192 123.062 170.84 122.475 170.136C121.899 169.432 121.611 168.429 121.611 167.128C121.611 166.499 121.702 165.933 121.883 165.432C122.075 164.92 122.326 164.488 122.635 164.136C122.945 163.784 123.302 163.512 123.707 163.32C124.113 163.128 124.539 163.032 124.987 163.032C125.435 163.032 125.825 163.112 126.155 163.272C126.486 163.432 126.822 163.651 127.163 163.928L127.099 162.6V159.608H128.427V171H127.339L127.227 170.088H127.179C126.87 170.387 126.513 170.648 126.107 170.872C125.713 171.085 125.286 171.192 124.827 171.192ZM125.115 170.088C125.478 170.088 125.819 170.003 126.139 169.832C126.459 169.651 126.779 169.379 127.099 169.016V164.952C126.769 164.653 126.449 164.445 126.139 164.328C125.841 164.2 125.531 164.136 125.211 164.136C124.902 164.136 124.609 164.211 124.331 164.36C124.065 164.499 123.83 164.701 123.627 164.968C123.425 165.224 123.265 165.533 123.147 165.896C123.03 166.259 122.971 166.664 122.971 167.112C122.971 168.051 123.158 168.781 123.531 169.304C123.905 169.827 124.433 170.088 125.115 170.088ZM133.078 171.192C132.524 171.192 131.996 171.091 131.494 170.888C130.993 170.685 130.556 170.429 130.182 170.12L130.838 169.24C131.18 169.517 131.526 169.741 131.878 169.912C132.241 170.083 132.657 170.168 133.126 170.168C133.638 170.168 134.022 170.051 134.278 169.816C134.534 169.581 134.662 169.293 134.662 168.952C134.662 168.749 134.609 168.573 134.502 168.424C134.396 168.275 134.257 168.147 134.086 168.04C133.926 167.923 133.74 167.821 133.526 167.736C133.313 167.651 133.1 167.565 132.886 167.48C132.609 167.384 132.332 167.277 132.054 167.16C131.777 167.032 131.526 166.883 131.302 166.712C131.089 166.531 130.913 166.323 130.774 166.088C130.636 165.853 130.566 165.571 130.566 165.24C130.566 164.931 130.625 164.643 130.742 164.376C130.87 164.099 131.046 163.864 131.27 163.672C131.505 163.469 131.788 163.315 132.118 163.208C132.449 163.091 132.822 163.032 133.238 163.032C133.729 163.032 134.177 163.117 134.582 163.288C134.998 163.459 135.356 163.667 135.654 163.912L135.03 164.744C134.764 164.541 134.486 164.376 134.198 164.248C133.91 164.12 133.596 164.056 133.254 164.056C132.764 164.056 132.401 164.168 132.166 164.392C131.942 164.616 131.83 164.877 131.83 165.176C131.83 165.357 131.878 165.517 131.974 165.656C132.07 165.784 132.198 165.901 132.358 166.008C132.518 166.104 132.7 166.195 132.902 166.28C133.116 166.355 133.334 166.435 133.558 166.52C133.836 166.627 134.113 166.739 134.39 166.856C134.678 166.973 134.934 167.123 135.158 167.304C135.382 167.475 135.564 167.688 135.702 167.944C135.852 168.2 135.926 168.509 135.926 168.872C135.926 169.192 135.862 169.491 135.734 169.768C135.617 170.045 135.436 170.291 135.19 170.504C134.956 170.717 134.657 170.883 134.294 171C133.942 171.128 133.537 171.192 133.078 171.192ZM137.862 173.816L137.046 173.432C137.664 172.408 138.123 171.315 138.422 170.152C138.731 168.979 138.886 167.779 138.886 166.552C138.886 165.325 138.731 164.131 138.422 162.968C138.123 161.795 137.664 160.696 137.046 159.672L137.862 159.288C138.523 160.365 139.04 161.496 139.414 162.68C139.787 163.853 139.974 165.144 139.974 166.552C139.974 167.96 139.787 169.256 139.414 170.44C139.04 171.624 138.523 172.749 137.862 173.816Z" fill="#A3A3A3"/>
<path d="M2.656 141V120.072H6.848L10.56 130.312C10.7947 130.973 11.0187 131.656 11.232 132.36C11.4453 133.043 11.6693 133.725 11.904 134.408H12.032C12.2667 133.725 12.48 133.043 12.672 132.36C12.8853 131.656 13.1093 130.973 13.344 130.312L16.96 120.072H21.184V141H17.76V131.432C17.76 130.941 17.7707 130.408 17.792 129.832C17.8347 129.256 17.8773 128.68 17.92 128.104C17.9627 127.507 18.016 126.931 18.08 126.376C18.144 125.8 18.1973 125.267 18.24 124.776H18.112L16.416 129.64L12.992 139.048H10.784L7.328 129.64L5.664 124.776H5.536C5.57867 125.267 5.62133 125.8 5.664 126.376C5.728 126.931 5.78133 127.507 5.824 128.104C5.888 128.68 5.93067 129.256 5.952 129.832C5.99467 130.408 6.016 130.941 6.016 131.432V141H2.656ZM32.6118 141.384C31.6304 141.384 30.6918 141.203 29.7958 140.84C28.8998 140.477 28.0998 139.944 27.3958 139.24C26.7131 138.536 26.1691 137.672 25.7638 136.648C25.3584 135.624 25.1558 134.461 25.1558 133.16C25.1558 131.859 25.3584 130.696 25.7638 129.672C26.1691 128.648 26.7131 127.784 27.3958 127.08C28.0998 126.376 28.8998 125.843 29.7958 125.48C30.6918 125.096 31.6304 124.904 32.6118 124.904C33.5931 124.904 34.5318 125.096 35.4278 125.48C36.3451 125.843 37.1451 126.376 37.8278 127.08C38.5104 127.784 39.0544 128.648 39.4598 129.672C39.8864 130.696 40.0998 131.859 40.0998 133.16C40.0998 134.461 39.8864 135.624 39.4598 136.648C39.0544 137.672 38.5104 138.536 37.8278 139.24C37.1451 139.944 36.3451 140.477 35.4278 140.84C34.5318 141.203 33.5931 141.384 32.6118 141.384ZM32.6118 138.376C33.7638 138.376 34.6704 137.907 35.3318 136.968C35.9931 136.008 36.3238 134.739 36.3238 133.16C36.3238 131.56 35.9931 130.291 35.3318 129.352C34.6704 128.392 33.7638 127.912 32.6118 127.912C31.4598 127.912 30.5531 128.392 29.8918 129.352C29.2518 130.291 28.9318 131.56 28.9318 133.16C28.9318 134.739 29.2518 136.008 29.8918 136.968C30.5531 137.907 31.4598 138.376 32.6118 138.376ZM51.3583 141.384C50.6329 141.384 49.8969 141.213 49.1503 140.872C48.4249 140.509 47.7316 139.997 47.0703 139.336H46.9743L46.6543 141H43.7423V118.408H47.4223V124.232L47.3263 126.856C47.9876 126.28 48.7023 125.811 49.4703 125.448C50.2596 125.085 51.0596 124.904 51.8703 124.904C52.8516 124.904 53.7263 125.096 54.4943 125.48C55.2623 125.843 55.9129 126.376 56.4463 127.08C56.9796 127.763 57.3849 128.595 57.6623 129.576C57.9396 130.557 58.0783 131.656 58.0783 132.872C58.0783 134.216 57.8863 135.421 57.5023 136.488C57.1396 137.533 56.6489 138.419 56.0303 139.144C55.4116 139.869 54.6969 140.424 53.8863 140.808C53.0756 141.192 52.2329 141.384 51.3583 141.384ZM50.5903 138.344C51.6356 138.344 52.5103 137.896 53.2143 137C53.9183 136.083 54.2703 134.728 54.2703 132.936C54.2703 131.357 54.0036 130.131 53.4703 129.256C52.9369 128.381 52.0729 127.944 50.8783 127.944C49.7689 127.944 48.6169 128.531 47.4223 129.704V137.032C47.9769 137.523 48.5209 137.864 49.0543 138.056C49.6089 138.248 50.1209 138.344 50.5903 138.344ZM61.7735 141V125.288H65.4535V141H61.7735ZM63.6295 122.536C62.9682 122.536 62.4242 122.344 61.9975 121.96C61.5708 121.576 61.3575 121.075 61.3575 120.456C61.3575 119.837 61.5708 119.336 61.9975 118.952C62.4242 118.547 62.9682 118.344 63.6295 118.344C64.2908 118.344 64.8348 118.547 65.2615 118.952C65.6882 119.336 65.9015 119.837 65.9015 120.456C65.9015 121.075 65.6882 121.576 65.2615 121.96C64.8348 122.344 64.2908 122.536 63.6295 122.536ZM73.7325 141.384C72.4098 141.384 71.4818 140.989 70.9485 140.2C70.4152 139.411 70.1485 138.333 70.1485 136.968V118.408H73.8285V137.16C73.8285 137.608 73.9138 137.928 74.0845 138.12C74.2552 138.291 74.4365 138.376 74.6285 138.376C74.7138 138.376 74.7885 138.376 74.8525 138.376C74.9378 138.376 75.0552 138.355 75.2045 138.312L75.6845 141.064C75.1938 141.277 74.5432 141.384 73.7325 141.384ZM85.556 141.384C84.468 141.384 83.4547 141.203 82.516 140.84C81.5773 140.456 80.756 139.912 80.052 139.208C79.348 138.504 78.7933 137.651 78.388 136.648C78.004 135.624 77.812 134.461 77.812 133.16C77.812 131.88 78.0147 130.728 78.42 129.704C78.8253 128.68 79.3587 127.816 80.02 127.112C80.7027 126.408 81.4813 125.864 82.356 125.48C83.2307 125.096 84.1267 124.904 85.044 124.904C86.1107 124.904 87.0493 125.085 87.86 125.448C88.6707 125.811 89.3427 126.323 89.876 126.984C90.4307 127.645 90.8467 128.435 91.124 129.352C91.4013 130.269 91.54 131.272 91.54 132.36C91.54 132.723 91.5187 133.064 91.476 133.384C91.4547 133.704 91.4227 133.96 91.38 134.152H81.396C81.5667 135.56 82.0573 136.648 82.868 137.416C83.7 138.163 84.756 138.536 86.036 138.536C86.7187 138.536 87.348 138.44 87.924 138.248C88.5213 138.035 89.108 137.747 89.684 137.384L90.932 139.688C90.1853 140.179 89.3533 140.584 88.436 140.904C87.5187 141.224 86.5587 141.384 85.556 141.384ZM81.364 131.656H88.34C88.34 130.44 88.0733 129.491 87.54 128.808C87.028 128.104 86.228 127.752 85.14 127.752C84.2013 127.752 83.38 128.083 82.676 128.744C81.972 129.405 81.5347 130.376 81.364 131.656ZM101.781 141V120.072H108.373C109.525 120.072 110.592 120.179 111.573 120.392C112.576 120.605 113.44 120.968 114.165 121.48C114.89 121.992 115.456 122.664 115.861 123.496C116.266 124.307 116.469 125.32 116.469 126.536C116.469 127.688 116.266 128.691 115.861 129.544C115.456 130.397 114.89 131.112 114.165 131.688C113.461 132.243 112.618 132.659 111.637 132.936C110.677 133.192 109.632 133.32 108.501 133.32H105.493V141H101.781ZM105.493 130.344H108.213C111.285 130.344 112.821 129.075 112.821 126.536C112.821 125.213 112.416 124.307 111.605 123.816C110.816 123.304 109.642 123.048 108.085 123.048H105.493V130.344ZM120.086 141V118.408H123.766V124.232L123.638 127.272C124.299 126.653 125.025 126.109 125.814 125.64C126.625 125.149 127.574 124.904 128.662 124.904C130.347 124.904 131.574 125.448 132.342 126.536C133.11 127.603 133.494 129.139 133.494 131.144V141H129.814V131.624C129.814 130.323 129.622 129.405 129.238 128.872C128.854 128.339 128.225 128.072 127.35 128.072C126.667 128.072 126.059 128.243 125.526 128.584C125.014 128.904 124.427 129.384 123.766 130.024V141H120.086ZM144.362 141.384C143.38 141.384 142.442 141.203 141.546 140.84C140.65 140.477 139.85 139.944 139.146 139.24C138.463 138.536 137.919 137.672 137.514 136.648C137.108 135.624 136.906 134.461 136.906 133.16C136.906 131.859 137.108 130.696 137.514 129.672C137.919 128.648 138.463 127.784 139.146 127.08C139.85 126.376 140.65 125.843 141.546 125.48C142.442 125.096 143.38 124.904 144.362 124.904C145.343 124.904 146.282 125.096 147.178 125.48C148.095 125.843 148.895 126.376 149.578 127.08C150.26 127.784 150.804 128.648 151.21 129.672C151.636 130.696 151.85 131.859 151.85 133.16C151.85 134.461 151.636 135.624 151.21 136.648C150.804 137.672 150.26 138.536 149.578 139.24C148.895 139.944 148.095 140.477 147.178 140.84C146.282 141.203 145.343 141.384 144.362 141.384ZM144.362 138.376C145.514 138.376 146.42 137.907 147.082 136.968C147.743 136.008 148.074 134.739 148.074 133.16C148.074 131.56 147.743 130.291 147.082 129.352C146.42 128.392 145.514 127.912 144.362 127.912C143.21 127.912 142.303 128.392 141.642 129.352C141.002 130.291 140.682 131.56 140.682 133.16C140.682 134.739 141.002 136.008 141.642 136.968C142.303 137.907 143.21 138.376 144.362 138.376ZM155.492 141V125.288H158.532L158.788 127.4H158.916C159.62 126.717 160.378 126.131 161.188 125.64C162.02 125.149 162.98 124.904 164.068 124.904C165.754 124.904 166.98 125.448 167.748 126.536C168.516 127.603 168.9 129.139 168.9 131.144V141H165.22V131.624C165.22 130.323 165.028 129.405 164.644 128.872C164.26 128.339 163.631 128.072 162.756 128.072C162.074 128.072 161.466 128.243 160.932 128.584C160.42 128.904 159.834 129.384 159.172 130.024V141H155.492ZM180.119 141.384C179.031 141.384 178.017 141.203 177.079 140.84C176.14 140.456 175.319 139.912 174.615 139.208C173.911 138.504 173.356 137.651 172.951 136.648C172.567 135.624 172.375 134.461 172.375 133.16C172.375 131.88 172.577 130.728 172.983 129.704C173.388 128.68 173.921 127.816 174.583 127.112C175.265 126.408 176.044 125.864 176.919 125.48C177.793 125.096 178.689 124.904 179.607 124.904C180.673 124.904 181.612 125.085 182.423 125.448C183.233 125.811 183.905 126.323 184.439 126.984C184.993 127.645 185.409 128.435 185.687 129.352C185.964 130.269 186.103 131.272 186.103 132.36C186.103 132.723 186.081 133.064 186.039 133.384C186.017 133.704 185.985 133.96 185.943 134.152H175.959C176.129 135.56 176.62 136.648 177.431 137.416C178.263 138.163 179.319 138.536 180.599 138.536C181.281 138.536 181.911 138.44 182.487 138.248C183.084 138.035 183.671 137.747 184.247 137.384L185.495 139.688C184.748 140.179 183.916 140.584 182.999 140.904C182.081 141.224 181.121 141.384 180.119 141.384ZM175.927 131.656H182.903C182.903 130.44 182.636 129.491 182.103 128.808C181.591 128.104 180.791 127.752 179.703 127.752C178.764 127.752 177.943 128.083 177.239 128.744C176.535 129.405 176.097 130.376 175.927 131.656ZM194.001 141.384C192.913 141.384 191.836 141.181 190.769 140.776C189.724 140.349 188.817 139.827 188.049 139.208L189.777 136.84C190.481 137.395 191.175 137.832 191.857 138.152C192.561 138.451 193.319 138.6 194.129 138.6C194.983 138.6 195.612 138.429 196.017 138.088C196.423 137.725 196.625 137.267 196.625 136.712C196.625 136.392 196.529 136.115 196.337 135.88C196.145 135.624 195.889 135.4 195.569 135.208C195.249 135.016 194.887 134.845 194.481 134.696C194.076 134.525 193.671 134.355 193.265 134.184C192.753 133.992 192.231 133.768 191.697 133.512C191.164 133.256 190.684 132.947 190.257 132.584C189.852 132.221 189.511 131.805 189.233 131.336C188.977 130.845 188.849 130.269 188.849 129.608C188.849 128.221 189.361 127.091 190.385 126.216C191.409 125.341 192.807 124.904 194.577 124.904C195.665 124.904 196.647 125.096 197.521 125.48C198.396 125.864 199.153 126.301 199.793 126.792L198.097 129.032C197.543 128.627 196.977 128.307 196.401 128.072C195.847 127.816 195.26 127.688 194.641 127.688C193.852 127.688 193.265 127.859 192.881 128.2C192.519 128.52 192.337 128.925 192.337 129.416C192.337 129.736 192.423 130.013 192.593 130.248C192.785 130.461 193.031 130.653 193.329 130.824C193.628 130.995 193.969 131.155 194.353 131.304C194.759 131.453 195.175 131.603 195.601 131.752C196.135 131.944 196.668 132.168 197.201 132.424C197.735 132.659 198.215 132.957 198.641 133.32C199.089 133.683 199.441 134.131 199.697 134.664C199.975 135.176 200.113 135.795 200.113 136.52C200.113 137.203 199.975 137.843 199.697 138.44C199.441 139.016 199.057 139.528 198.545 139.976C198.033 140.403 197.393 140.744 196.625 141C195.857 141.256 194.983 141.384 194.001 141.384Z" fill="#3A3A3A"/>
<circle cx="102" cy="50" r="50" fill="#00D7E4"/>
<path d="M113.25 16.25H90.75C87.0221 16.25 84 19.2721 84 23V77C84 80.7279 87.0221 83.75 90.75 83.75H113.25C116.978 83.75 120 80.7279 120 77V23C120 19.2721 116.978 16.25 113.25 16.25Z" stroke="white" stroke-width="2" stroke-linecap="round" stroke-linejoin="round"/>
<path d="M102.5 16.25H94.125C94.4234 16.25 94.7095 16.3685 94.9205 16.5795C95.1315 16.7905 95.25 17.0766 95.25 17.375C95.25 17.9717 95.4871 18.544 95.909 18.966C96.331 19.3879 96.9033 19.625 97.5 19.625H106.5C107.097 19.625 107.669 19.3879 108.091 18.966C108.513 18.544 108.75 17.9717 108.75 17.375C108.75 17.0766 108.869 16.7905 109.08 16.5795C109.29 16.3685 109.577 16.25 109.875 16.25H102.5Z" fill="white" stroke="white" stroke-linecap="round" stroke-linejoin="round"/>
</svg>
