<svg width="583" height="450" viewBox="0 0 583 450" fill="none" xmlns="http://www.w3.org/2000/svg">
<g clip-path="url(#clip0)">
<path opacity="0.1" d="M365.727 72.5487C341.455 87.9061 309.973 86.9067 282.39 78.9236C254.806 70.9405 229.461 56.7031 202.594 46.5892C180.026 38.1057 156.464 32.5545 132.483 30.0716C98.2287 26.5281 59.9786 30.8412 36.1088 55.6693C9.52951 83.323 11.5674 133.203 40.3167 158.577C54.9382 171.487 74.0891 177.822 90.7888 187.902C107.488 197.981 122.937 214.723 121.519 234.181C120.204 252.191 104.899 266.015 89.0608 274.688C76.816 281.39 61.7352 288.707 60.2599 302.588C58.8362 316.022 71.5116 326.549 83.6187 332.534C123.115 352.061 171.772 351.871 211.113 332.04C225.149 324.964 238.054 315.557 252.773 310.043C291.425 295.564 334.01 310.141 374.935 315.47C409.685 319.972 444.98 317.648 478.841 308.63C499.106 303.22 519.451 294.95 533.688 279.541C543.952 268.428 550.336 254.368 556.358 240.487C562.76 225.677 568.914 210.764 574.82 195.747C578.367 186.73 581.858 177.541 582.77 167.892C584.429 150.415 577.443 133.14 567.919 118.385C545.301 83.3574 507.235 58.7304 466.017 52.476C424.798 46.2216 381.175 58.449 349.2 85.1723" fill="#3DB83A"/>
<path opacity="0.1" d="M77.9239 450C120.96 450 155.848 443.175 155.848 434.757C155.848 426.339 120.96 419.515 77.9239 419.515C34.8877 419.515 0 426.339 0 434.757C0 443.175 34.8877 450 77.9239 450Z" fill="#3DB83A"/>
<path opacity="0.1" d="M309.417 418.165C399.63 418.165 472.762 411.341 472.762 402.923C472.762 394.504 399.63 387.68 309.417 387.68C219.204 387.68 146.071 394.504 146.071 402.923C146.071 411.341 219.204 418.165 309.417 418.165Z" fill="#3DB83A"/>
<path d="M420.292 294.399C420.292 294.399 443.192 253.817 477.699 242.135C492.171 237.225 504.806 227.995 513.446 215.383C517.535 209.387 521.067 203.03 523.997 196.39" stroke="#535461" stroke-width="2" stroke-miterlimit="10"/>
<path d="M545.657 188.889C541.725 192.703 523.423 196.648 523.423 196.648C523.423 196.648 527.918 178.471 531.845 174.652C533.732 172.819 536.27 171.812 538.899 171.851C541.529 171.891 544.035 172.973 545.866 174.861C547.698 176.749 548.705 179.288 548.666 181.919C548.626 184.549 547.544 187.057 545.657 188.889Z" fill="#3DB83A"/>
<path d="M535.306 221.792C529.933 222.855 512.43 216.215 512.43 216.215C512.43 216.215 526.075 203.397 531.443 202.328C532.733 202.043 534.066 202.018 535.366 202.255C536.665 202.492 537.905 202.986 539.011 203.708C540.117 204.431 541.067 205.367 541.807 206.462C542.546 207.557 543.06 208.789 543.317 210.085C543.574 211.381 543.57 212.716 543.305 214.01C543.04 215.305 542.519 216.534 541.773 217.624C541.027 218.714 540.07 219.645 538.96 220.361C537.85 221.076 536.607 221.563 535.306 221.792Z" fill="#3DB83A"/>
<path d="M497.59 257.395C492.424 255.603 480.655 241.032 480.655 241.032C480.655 241.032 498.905 236.851 504.077 238.643C505.337 239.046 506.504 239.697 507.509 240.557C508.513 241.418 509.336 242.471 509.928 243.654C510.52 244.837 510.87 246.127 510.956 247.447C511.043 248.768 510.865 250.092 510.432 251.342C509.999 252.593 509.321 253.744 508.437 254.729C507.553 255.713 506.482 256.511 505.285 257.074C504.089 257.638 502.792 257.957 501.47 258.012C500.149 258.067 498.829 257.857 497.59 257.395Z" fill="#3DB83A"/>
<path d="M463.026 277.904C457.624 277.014 443.571 264.631 443.571 264.631C443.571 264.631 460.85 257.429 466.252 258.314C467.537 258.525 468.767 258.988 469.873 259.676C470.978 260.364 471.938 261.262 472.696 262.321C473.455 263.38 473.998 264.577 474.294 265.846C474.59 267.114 474.633 268.429 474.421 269.714C474.209 270.999 473.746 272.23 473.059 273.336C472.372 274.442 471.473 275.402 470.415 276.161C469.357 276.92 468.16 277.463 466.892 277.759C465.624 278.055 464.31 278.098 463.026 277.887V277.904Z" fill="#3DB83A"/>
<path d="M497.165 202.03C497.165 207.509 507.074 223.401 507.074 223.401C507.074 223.401 516.994 207.515 516.999 202.036C516.937 199.446 515.865 196.983 514.012 195.173C512.159 193.363 509.672 192.35 507.082 192.35C504.493 192.35 502.006 193.363 500.153 195.173C498.3 196.983 497.228 199.446 497.165 202.036V202.03Z" fill="#3DB83A"/>
<path d="M457.027 226.514C458.663 231.74 472.865 243.939 472.865 243.939C472.865 243.939 477.584 225.813 475.948 220.587C475.162 218.073 473.411 215.975 471.079 214.754C468.747 213.532 466.026 213.288 463.514 214.074C461.001 214.86 458.904 216.612 457.683 218.945C456.463 221.278 456.218 224 457.004 226.514H457.027Z" fill="#3DB83A"/>
<path d="M421.274 255.683C422.003 261.116 433.949 275.538 433.949 275.538C433.949 275.538 441.659 258.474 440.93 253.041C440.58 250.434 439.208 248.072 437.118 246.476C435.027 244.879 432.388 244.179 429.781 244.53C427.175 244.88 424.814 246.252 423.219 248.344C421.623 250.435 420.924 253.075 421.274 255.683Z" fill="#3DB83A"/>
<path opacity="0.25" d="M545.657 188.889C541.725 192.703 523.423 196.648 523.423 196.648C523.423 196.648 527.918 178.471 531.845 174.652C533.732 172.819 536.27 171.812 538.899 171.851C541.529 171.891 544.035 172.973 545.866 174.861C547.698 176.749 548.705 179.288 548.666 181.919C548.626 184.549 547.544 187.057 545.657 188.889Z" fill="black"/>
<path opacity="0.25" d="M535.306 221.792C529.933 222.855 512.43 216.215 512.43 216.215C512.43 216.215 526.075 203.397 531.443 202.328C532.733 202.043 534.066 202.018 535.366 202.255C536.665 202.492 537.905 202.986 539.011 203.708C540.117 204.431 541.067 205.367 541.807 206.462C542.546 207.557 543.06 208.789 543.317 210.085C543.574 211.381 543.57 212.716 543.305 214.01C543.04 215.305 542.519 216.534 541.773 217.624C541.027 218.714 540.07 219.645 538.96 220.361C537.85 221.076 536.607 221.563 535.306 221.792Z" fill="black"/>
<path opacity="0.25" d="M497.59 257.395C492.424 255.603 480.655 241.032 480.655 241.032C480.655 241.032 498.905 236.851 504.077 238.643C505.337 239.046 506.504 239.697 507.509 240.557C508.513 241.418 509.336 242.471 509.928 243.654C510.52 244.837 510.87 246.127 510.956 247.447C511.043 248.768 510.865 250.092 510.432 251.342C509.999 252.593 509.321 253.744 508.437 254.729C507.553 255.713 506.482 256.511 505.285 257.074C504.089 257.638 502.792 257.957 501.47 258.012C500.149 258.067 498.829 257.857 497.59 257.395Z" fill="black"/>
<path opacity="0.25" d="M463.026 277.904C457.624 277.014 443.571 264.631 443.571 264.631C443.571 264.631 460.85 257.429 466.252 258.314C467.537 258.525 468.767 258.988 469.873 259.676C470.978 260.364 471.938 261.262 472.696 262.321C473.455 263.38 473.998 264.577 474.294 265.846C474.59 267.114 474.633 268.429 474.421 269.714C474.209 270.999 473.746 272.23 473.059 273.336C472.372 274.442 471.473 275.402 470.415 276.161C469.357 276.92 468.16 277.463 466.892 277.759C465.624 278.055 464.31 278.098 463.026 277.887V277.904Z" fill="black"/>
<path opacity="0.25" d="M497.165 202.03C497.165 207.509 507.074 223.401 507.074 223.401C507.074 223.401 516.994 207.515 516.999 202.036C516.937 199.446 515.865 196.983 514.012 195.173C512.159 193.363 509.672 192.35 507.082 192.35C504.493 192.35 502.006 193.363 500.153 195.173C498.3 196.983 497.228 199.446 497.165 202.036V202.03Z" fill="black"/>
<path opacity="0.25" d="M457.027 226.514C458.663 231.74 472.865 243.939 472.865 243.939C472.865 243.939 477.584 225.813 475.948 220.587C475.162 218.073 473.411 215.975 471.079 214.754C468.747 213.532 466.026 213.288 463.514 214.074C461.001 214.86 458.904 216.612 457.683 218.945C456.463 221.278 456.218 224 457.004 226.514H457.027Z" fill="black"/>
<path opacity="0.25" d="M421.274 255.683C422.003 261.116 433.949 275.538 433.949 275.538C433.949 275.538 441.659 258.474 440.93 253.041C440.58 250.434 439.208 248.072 437.118 246.476C435.027 244.879 432.388 244.179 429.781 244.53C427.175 244.88 424.814 246.252 423.219 248.344C421.623 250.435 420.924 253.075 421.274 255.683Z" fill="black"/>
<path d="M421.612 293.589C421.612 293.589 426.107 247.206 452.893 222.539C464.195 212.261 471.862 198.594 474.742 183.589C476.051 176.454 476.704 169.214 476.694 161.959" stroke="#535461" stroke-width="2" stroke-miterlimit="10"/>
<path d="M493.486 146.321C491.436 151.403 476.304 162.402 476.304 162.402C476.304 162.402 473.043 143.96 475.093 138.854C476.152 136.53 478.067 134.704 480.438 133.757C482.809 132.811 485.455 132.815 487.823 133.771C490.19 134.727 492.098 136.56 493.149 138.888C494.2 141.216 494.312 143.86 493.463 146.269L493.486 146.321Z" fill="#3DB83A"/>
<path d="M497.343 180.585C492.866 183.738 474.174 184.766 474.174 184.766C474.174 184.766 481.459 167.536 485.937 164.36C488.088 162.88 490.737 162.308 493.307 162.77C495.877 163.232 498.162 164.689 499.664 166.826C501.166 168.963 501.765 171.607 501.331 174.183C500.896 176.759 499.463 179.059 497.343 180.585Z" fill="#3DB83A"/>
<path d="M477.303 228.414C471.849 228.874 455.195 220.322 455.195 220.322C455.195 220.322 470.184 209.106 475.644 208.646C476.941 208.537 478.247 208.685 479.488 209.081C480.728 209.477 481.878 210.114 482.873 210.954C483.867 211.795 484.686 212.824 485.283 213.981C485.881 215.139 486.244 216.402 486.353 217.7C486.462 218.998 486.314 220.305 485.918 221.546C485.522 222.787 484.886 223.938 484.046 224.933C483.205 225.927 482.177 226.747 481.02 227.344C479.863 227.942 478.6 228.305 477.303 228.414Z" fill="#3DB83A"/>
<path d="M453.996 261.185C448.697 262.558 430.838 256.947 430.838 256.947C430.838 256.947 443.72 243.352 449.018 241.98C451.564 241.319 454.268 241.698 456.534 243.032C458.801 244.366 460.445 246.546 461.105 249.093C461.765 251.639 461.387 254.344 460.054 256.612C458.72 258.88 456.541 260.525 453.996 261.185Z" fill="#3DB83A"/>
<path d="M454.466 177.966C456.688 182.974 472.182 193.472 472.182 193.472C472.182 193.472 474.817 174.933 472.601 169.925C471.535 167.519 469.558 165.635 467.104 164.688C464.65 163.741 461.92 163.808 459.515 164.874C457.11 165.94 455.227 167.918 454.281 170.374C453.334 172.829 453.401 175.56 454.466 177.966Z" fill="#3DB83A"/>
<path d="M427.692 216.641C431.308 220.753 449.237 226.146 449.237 226.146C449.237 226.146 446.205 207.664 442.595 203.546C440.859 201.566 438.408 200.357 435.781 200.184C433.154 200.012 430.567 200.891 428.587 202.627C426.608 204.364 425.399 206.816 425.227 209.444C425.055 212.072 425.933 214.661 427.669 216.641H427.692Z" fill="#3DB83A"/>
<path d="M406.824 257.802C409.695 262.472 426.452 270.817 426.452 270.817C426.452 270.817 426.59 252.088 423.725 247.419C422.349 245.176 420.138 243.573 417.58 242.961C415.022 242.35 412.326 242.779 410.085 244.156C407.844 245.533 406.241 247.745 405.63 250.304C405.018 252.863 405.448 255.56 406.824 257.802Z" fill="#3DB83A"/>
<path d="M161.795 0V15.725V405.163H453.077V15.725V0H161.795Z" fill="url(#paint0_linear)"/>
<path d="M450.522 3.55518H164.35V18.9987H450.522V3.55518Z" fill="#F6F7F9"/>
<g opacity="0.2">
<path opacity="0.2" d="M450.522 3.55518H164.35V18.9987H450.522V3.55518Z" fill="#3DB83A"/>
</g>
<path d="M450.522 18.9985H164.35V401.607H450.522V18.9985Z" fill="#F6F7F9"/>
<path d="M171.876 13.8931C173.322 13.8931 174.494 12.7206 174.494 11.2742C174.494 9.8278 173.322 8.65527 171.876 8.65527C170.43 8.65527 169.258 9.8278 169.258 11.2742C169.258 12.7206 170.43 13.8931 171.876 13.8931Z" fill="#F6F7F9"/>
<path d="M178.971 13.8931C180.417 13.8931 181.589 12.7206 181.589 11.2742C181.589 9.8278 180.417 8.65527 178.971 8.65527C177.526 8.65527 176.354 9.8278 176.354 11.2742C176.354 12.7206 177.526 13.8931 178.971 13.8931Z" fill="#F6F7F9"/>
<path d="M186.067 13.8931C187.512 13.8931 188.684 12.7206 188.684 11.2742C188.684 9.8278 187.512 8.65527 186.067 8.65527C184.621 8.65527 183.449 9.8278 183.449 11.2742C183.449 12.7206 184.621 13.8931 186.067 13.8931Z" fill="#F6F7F9"/>
<g opacity="0.2">
<path opacity="0.2" d="M399.442 42.5859H215.425V49.7937H399.442V42.5859Z" fill="#3DB83A"/>
</g>
<path d="M399.442 42.5859H374.992V49.7937H399.442V42.5859Z" fill="#3DB83A"/>
<g opacity="0.2">
<path opacity="0.2" d="M304.853 189.883H189.052V272.867H304.853V189.883Z" fill="#3DB83A"/>
</g>
<g opacity="0.2">
<path opacity="0.2" d="M304.853 82.2373H189.052V165.221H304.853V82.2373Z" fill="#3DB83A"/>
</g>
<g opacity="0.2">
<path opacity="0.2" d="M304.853 296.127H189.052V379.111H304.853V296.127Z" fill="#3DB83A"/>
</g>
<g opacity="0.2">
<path opacity="0.2" d="M425.82 189.883H310.019V272.867H425.82V189.883Z" fill="#3DB83A"/>
</g>
<g opacity="0.2">
<path opacity="0.2" d="M425.82 82.2373H310.019V165.221H425.82V82.2373Z" fill="#3DB83A"/>
</g>
<g opacity="0.2">
<path opacity="0.2" d="M425.82 296.127H310.019V379.111H425.82V296.127Z" fill="#3DB83A"/>
</g>
<path d="M534.784 364.409C534.784 364.409 538.883 369.767 532.895 377.854C526.908 385.94 521.988 392.786 523.969 397.817C523.969 397.817 532.999 382.793 540.353 382.586C547.706 382.379 542.873 373.443 534.784 364.409Z" fill="#3ACC6C"/>
<path opacity="0.1" d="M534.784 364.409C535.142 364.925 535.424 365.49 535.622 366.086C542.798 374.517 546.616 382.385 539.721 382.586C533.303 382.77 525.593 394.256 523.751 397.157C523.811 397.381 523.884 397.601 523.969 397.817C523.969 397.817 532.999 382.793 540.352 382.586C547.706 382.379 542.873 373.443 534.784 364.409Z" fill="black"/>
<path d="M542.402 371.237C542.402 373.121 542.19 374.649 541.931 374.649C541.673 374.649 541.455 373.121 541.455 371.237C541.455 369.353 541.719 370.238 541.983 370.238C542.247 370.238 542.402 369.348 542.402 371.237Z" fill="#FFD037"/>
<path d="M545.014 373.488C543.361 374.39 541.914 374.936 541.793 374.706C541.673 374.476 542.907 373.557 544.56 372.656C546.214 371.754 545.565 372.415 545.709 372.656C545.852 372.897 546.667 372.604 545.014 373.488Z" fill="#FFD037"/>
<path d="M513.153 364.409C513.153 364.409 509.054 369.767 515.042 377.854C521.029 385.94 525.949 392.786 523.969 397.817C523.969 397.817 514.939 382.793 507.585 382.586C500.231 382.379 505.053 373.443 513.153 364.409Z" fill="#3ACC6C"/>
<path opacity="0.1" d="M513.153 364.409C512.795 364.925 512.513 365.49 512.315 366.086C505.139 374.517 501.322 382.385 508.216 382.586C514.64 382.77 522.344 394.256 524.187 397.157C524.129 397.381 524.056 397.602 523.969 397.817C523.969 397.817 514.939 382.793 507.585 382.586C500.231 382.379 505.053 373.443 513.153 364.409Z" fill="black"/>
<path d="M505.535 371.237C505.535 373.121 505.748 374.649 506.012 374.649C506.276 374.649 506.483 373.121 506.483 371.237C506.483 369.353 506.219 370.238 505.96 370.238C505.702 370.238 505.535 369.348 505.535 371.237Z" fill="#FFD037"/>
<path d="M502.923 373.488C504.582 374.39 506.023 374.936 506.15 374.706C506.276 374.476 505.03 373.557 503.377 372.656C501.724 371.754 502.372 372.415 502.229 372.656C502.085 372.897 501.27 372.604 502.923 373.488Z" fill="#FFD037"/>
<path opacity="0.1" d="M523.969 438.812C547.62 438.812 566.794 435.868 566.794 432.236C566.794 428.604 547.62 425.66 523.969 425.66C500.317 425.66 481.143 428.604 481.143 432.236C481.143 435.868 500.317 438.812 523.969 438.812Z" fill="#3DB83A"/>
<path d="M546.013 390.598L545.806 392.269L545.519 394.635L545.399 395.617L545.112 397.983L544.985 398.971L544.698 401.332L541.42 428.21C541.128 430.611 537.212 432.477 532.482 432.477H515.455C510.725 432.477 506.844 430.611 506.523 428.21L503.239 401.32L502.952 398.96L502.832 397.972L502.539 395.606L502.418 394.624L502.131 392.257L501.925 390.586C501.764 389.259 503.905 388.111 506.557 388.111H541.386C544.055 388.111 546.179 389.259 546.013 390.598Z" fill="#65617D"/>
<path d="M545.806 392.269L545.519 394.63H502.418L502.131 392.269H545.806Z" fill="#9D9CB5"/>
<path d="M545.399 395.617L545.112 397.983H502.831L502.539 395.617H545.399Z" fill="#9D9CB5"/>
<path d="M544.985 398.965L544.698 401.332H503.239L502.952 398.965H544.985Z" fill="#9D9CB5"/>
<path d="M339.624 98.2726C339.624 98.2726 338.574 95.648 345.658 96.3027C352.742 96.9574 373.081 99.2203 381.875 97.2389C390.67 95.2574 395.911 94.6257 395.389 97.2389C394.867 99.852 380.17 105.756 380.17 105.756L361.14 107.726L347.104 105.492L339.567 101.029L339.624 98.2726Z" fill="#3DB83A"/>
<path opacity="0.1" d="M395.406 97.2386C394.878 99.8518 380.188 105.756 380.188 105.756L361.157 107.726L347.121 105.497L339.59 101.035L339.641 98.2781C339.568 98.051 339.568 97.8068 339.64 97.5793C339.712 97.3519 339.853 97.1525 340.043 97.0089C340.692 96.4346 342.207 95.9866 345.675 96.3082C352.764 96.9629 373.098 99.22 381.893 97.2386C389.057 95.6247 393.868 94.9068 395.096 96.09C395.248 96.2349 395.357 96.4185 395.411 96.621C395.466 96.8235 395.464 97.0371 395.406 97.2386Z" fill="black"/>
<path d="M406.715 136.999C394.471 139.358 382.923 144.474 372.949 151.96C372.444 150.617 371.493 149.488 370.256 148.761C369.411 148.237 368.489 147.85 367.524 147.613C366.645 147.389 365.802 147.923 365.027 148.693C364.135 149.68 363.387 150.787 362.805 151.983C349.423 142.794 329.124 136.93 329.124 136.93V135.093C329.124 134.731 329.188 134.294 329.256 133.8C329.325 133.306 329.411 132.87 329.52 132.336C331.243 123.572 338.051 103.545 338.051 103.545H340.158H345.749L360.675 106.646L377.467 105.618L394.379 102.098L396.572 101.638C400.228 104.51 404.379 124.611 406.009 133.169C406.216 134.254 406.377 135.15 406.497 135.81C406.641 136.557 406.715 136.999 406.715 136.999Z" fill="#3DB83A"/>
<path d="M331.903 133.203C332.345 124.789 339.027 106.555 340.158 103.528H338.051C338.051 103.528 330.841 124.778 329.377 133.071C329.374 133.092 329.374 133.113 329.377 133.134C329.337 133.358 329.297 133.576 329.268 133.783C329.199 134.277 329.153 134.714 329.136 135.075V136.913C329.136 136.913 349.435 142.783 362.816 151.966C363.399 150.77 364.146 149.662 365.038 148.675C359.923 144.023 340.525 136.442 331.903 133.203Z" fill="#3DB83A"/>
<path d="M406.497 135.788C406.446 135.495 406.382 135.156 406.314 134.782C406.227 134.3 406.124 133.754 406.009 133.146C404.379 124.577 400.228 104.47 396.572 101.615L394.379 102.075C395.711 105.653 404.293 129.016 403.564 133.576C389.212 136.448 374.665 145.781 370.268 148.761C371.505 149.488 372.455 150.617 372.96 151.96C382.935 144.474 394.482 139.358 406.727 136.999C406.727 136.999 406.641 136.557 406.497 135.788Z" fill="#3DB83A"/>
<path opacity="0.1" d="M332.431 132.674C332.867 124.261 339.555 106.026 340.686 103.005H338.574C338.574 103.005 331.363 124.255 329.899 132.542C329.899 132.542 329.899 132.588 329.899 132.606C329.857 132.835 329.823 133.054 329.796 133.26C329.727 133.754 329.681 134.191 329.664 134.552V136.39C329.664 136.39 349.957 142.254 363.345 151.443C363.922 150.246 364.668 149.138 365.561 148.152C360.446 143.512 341.054 135.914 332.431 132.674Z" fill="black"/>
<path d="M331.903 133.203C332.345 124.789 339.027 106.555 340.158 103.528H338.051C338.051 103.528 330.841 124.778 329.377 133.071C329.374 133.092 329.374 133.113 329.377 133.134C329.337 133.358 329.297 133.576 329.268 133.783C329.199 134.277 329.153 134.714 329.136 135.075V136.913C329.136 136.913 349.435 142.783 362.816 151.966C363.399 150.77 364.146 149.662 365.038 148.675C359.923 144.023 340.525 136.442 331.903 133.203Z" fill="#3DB83A"/>
<path opacity="0.1" d="M405.975 135.259L405.791 134.254C405.699 133.772 405.602 133.232 405.487 132.617C403.862 124.054 399.706 103.947 396.049 101.087L393.862 101.552C395.194 105.13 403.776 128.494 403.047 133.054C388.695 135.925 374.143 145.258 369.751 148.233C370.989 148.962 371.939 150.093 372.444 151.438C382.414 143.948 393.96 138.829 406.204 136.471C406.204 136.471 406.118 136.04 405.975 135.259Z" fill="black"/>
<path d="M406.497 135.788C406.446 135.495 406.382 135.156 406.314 134.782C406.227 134.3 406.124 133.754 406.009 133.146C404.379 124.577 400.228 104.47 396.572 101.615L394.379 102.075C395.711 105.653 404.293 129.016 403.564 133.576C389.212 136.448 374.665 145.781 370.268 148.761C371.505 149.488 372.455 150.617 372.96 151.96C382.935 144.474 394.482 139.358 406.727 136.999C406.727 136.999 406.641 136.557 406.497 135.788Z" fill="#3DB83A"/>
<path opacity="0.1" d="M336.891 113.911C336.891 113.911 350.21 122.297 353.321 110.018L356.283 110.81C356.283 110.81 357.259 124.416 336.007 116.651L336.891 113.911Z" fill="black"/>
<path d="M336.891 112.86C336.891 112.86 350.21 121.245 353.321 108.966L356.283 109.759C356.283 109.759 357.259 123.365 336.007 115.6L336.891 112.86Z" fill="#3DB83A"/>
<path opacity="0.1" d="M378.798 110.414C378.798 110.414 380.521 120.447 398.77 115.583L398.127 113.688C398.127 113.688 385.664 118.857 381.146 109.88L378.798 110.414Z" fill="black"/>
<path d="M378.798 109.363C378.798 109.363 380.521 119.396 398.77 114.532L398.127 112.636C398.127 112.636 385.664 117.805 381.146 108.829L378.798 109.363Z" fill="#3DB83A"/>
<path opacity="0.1" d="M366.651 110.282V131.221H369.889C369.889 131.221 374.367 129.608 374.263 120.194C374.16 110.781 373.477 108.249 373.477 108.249L366.651 110.282Z" fill="black"/>
<path d="M366.129 109.759V130.699H369.367C369.367 130.699 373.844 129.085 373.741 119.672C373.638 110.259 372.949 107.726 372.949 107.726L366.129 109.759Z" fill="#3DB83A"/>
<path opacity="0.1" d="M396.554 102.672C395.234 105.13 383.247 109.167 381.129 109.862L380.808 109.966C380.808 109.966 380.05 110.161 378.781 110.425C374.923 111.229 366.324 112.723 359.837 111.413C358.896 111.229 357.92 111.028 356.926 110.839L354.63 110.339C347.167 108.679 339.446 106.508 338.074 104.596C338.074 104.596 338.447 98.353 339.704 98.5195C340.962 98.6861 354.998 104.596 354.998 104.596L355.199 104.625C355.56 104.671 356.381 104.774 357.535 104.906C362.093 105.406 371.697 106.198 376.864 104.814C377.111 104.745 377.34 104.676 377.564 104.596C377.955 104.464 378.362 104.326 378.781 104.171C385.429 101.816 395.383 97.6006 395.383 97.6006C395.383 97.6006 398.013 99.9668 396.554 102.672Z" fill="black"/>
<path opacity="0.1" d="M395.406 97.239C394.878 99.8521 380.188 105.756 380.188 105.756L361.157 107.726L347.121 105.498L339.59 101.035L339.641 98.2785C339.568 98.0514 339.568 97.8071 339.64 97.5797C339.712 97.3522 339.853 97.1528 340.043 97.0092C342.54 97.7673 354.969 102.999 354.969 102.999L355.17 103.028C355.531 103.074 356.352 103.177 357.506 103.31C362.064 103.809 371.669 104.602 376.835 103.218C377.082 103.149 377.312 103.08 377.535 102.999C377.926 102.873 378.333 102.729 378.753 102.574C384.763 100.444 393.483 96.791 395.096 96.1133C395.244 96.2561 395.35 96.4358 395.405 96.6338C395.459 96.8318 395.46 97.0407 395.406 97.239Z" fill="black"/>
<path d="M396.554 101.615C395.234 104.073 383.247 108.105 381.129 108.8L380.808 108.909C380.808 108.909 380.05 109.099 378.781 109.363C374.923 110.167 366.324 111.66 359.837 110.351C358.896 110.167 357.92 109.966 356.926 109.776L354.63 109.277C347.167 107.617 339.446 105.446 338.074 103.533C338.074 103.533 338.447 97.2904 339.704 97.4627C340.962 97.635 354.998 103.533 354.998 103.533L355.199 103.562C355.56 103.608 356.381 103.717 357.535 103.843C362.093 104.343 371.697 105.136 376.864 103.752C377.111 103.683 377.34 103.614 377.564 103.533C377.955 103.407 378.362 103.263 378.781 103.108C385.429 100.754 395.383 96.5381 395.383 96.5381C395.383 96.5381 398.013 98.9215 396.554 101.615Z" fill="#3DB83A"/>
<path opacity="0.1" d="M368.924 110.351C370.085 110.351 371.026 109.409 371.026 108.249C371.026 107.088 370.085 106.146 368.924 106.146C367.764 106.146 366.823 107.088 366.823 108.249C366.823 109.409 367.764 110.351 368.924 110.351Z" fill="black"/>
<path d="M368.924 109.822C370.085 109.822 371.026 108.881 371.026 107.72C371.026 106.559 370.085 105.618 368.924 105.618C367.764 105.618 366.823 106.559 366.823 107.72C366.823 108.881 367.764 109.822 368.924 109.822Z" fill="#3DB83A"/>
<path opacity="0.1" d="M358.034 103.82L357.46 109.748L355.164 109.248L355.738 103.539C356.06 103.596 356.886 103.706 358.034 103.82Z" fill="black"/>
<path d="M357.518 103.82L356.944 109.748L354.647 109.248L355.222 103.539C355.537 103.596 356.37 103.706 357.518 103.82Z" fill="#3DB83A"/>
<path opacity="0.1" d="M380.618 108.8L380.297 108.909C380.297 108.909 379.545 109.098 378.27 109.363L376.313 103.74C376.56 103.671 376.795 103.602 377.019 103.522C377.409 103.395 377.817 103.252 378.236 103.097L380.618 108.8Z" fill="black"/>
<path d="M381.146 108.8L380.825 108.909C380.825 108.909 380.067 109.098 378.798 109.363L376.841 103.74C377.088 103.671 377.317 103.602 377.541 103.522C377.932 103.395 378.339 103.252 378.758 103.097L381.146 108.8Z" fill="#3DB83A"/>
<g opacity="0.5">
<path opacity="0.5" d="M233.083 93.4826C235.769 93.5002 238.402 94.2316 240.712 95.6019C240.712 95.6019 247.704 96.4519 251.516 95.6019C255.328 94.7519 257.257 91.7884 257.98 92.6326C258.704 93.4769 258.721 101.431 258.721 101.431L255.437 110.23L248.02 115.738L236.263 112.349L232.371 102.396L233.083 93.4826Z" fill="#3DB83A"/>
<path opacity="0.1" d="M258.721 101.443L255.437 110.242L248.02 115.749L236.263 112.361L232.371 102.396L233.112 93.4942H233.284C235.911 93.5611 238.478 94.2921 240.747 95.6192C240.747 95.6192 247.739 96.4692 251.551 95.6192C255.173 94.8152 257.079 92.0929 257.865 92.5524C257.912 92.574 257.953 92.6053 257.986 92.6442C258.721 93.4828 258.721 101.443 258.721 101.443Z" fill="black"/>
<path opacity="0.1" d="M258.721 101.443L255.437 110.242L248.02 115.749L236.263 112.361L232.371 102.396L233.112 93.4943H233.284C233.938 96.3027 236.728 105.17 245.615 105.796C254.754 106.434 257.349 95.5561 257.888 92.5581C257.935 92.5797 257.976 92.6111 258.009 92.65C258.721 93.4828 258.721 101.443 258.721 101.443Z" fill="black"/>
<path opacity="0.5" d="M233.083 93.4828C233.083 93.4828 234.989 105.882 245.586 106.623C256.183 107.364 257.98 92.6328 257.98 92.6328C257.98 92.6328 273.342 97.6696 276.924 106.652C280.507 115.634 283.176 122.842 283.176 122.842C283.176 122.842 282.028 124.852 280.736 125.065C279.445 125.277 270.673 131.319 270.673 131.319C270.673 131.319 270.57 148.492 271.522 149.548C272.475 150.605 272.16 155.165 269.295 154.953C266.43 154.74 246.625 150.289 229.684 153.999C229.684 153.999 222.589 156.544 222.796 152.408C223.002 148.273 223.324 132.06 223.324 132.06C223.324 132.06 212.623 127.397 211.992 127.397C211.36 127.397 209.764 126.558 211.458 123.796C213.151 121.033 215.275 111.608 215.275 111.608C215.275 111.608 219.523 98.0774 233.083 93.4828Z" fill="#3DB83A"/>
<path opacity="0.1" d="M266.029 115.749C266.029 115.749 269.209 118.081 268.468 119.884C267.728 121.688 266.029 115.749 266.029 115.749Z" fill="black"/>
<path opacity="0.1" d="M270.69 117.989C270.394 119.023 270.394 120.12 270.69 121.154V117.989Z" fill="black"/>
<path opacity="0.1" d="M272.808 123.807C272.808 123.807 273.233 126.679 271.964 126.983L272.808 123.807Z" fill="black"/>
<path opacity="0.1" d="M229.587 115.008C229.587 115.008 223.657 120.177 225.666 122.216L229.587 115.008Z" fill="black"/>
<path opacity="0.1" d="M225.878 127.517C225.878 127.517 225.781 132.921 227.417 133.346L225.878 127.517Z" fill="black"/>
<path opacity="0.1" d="M242.934 145.637C242.934 145.637 246.952 142.886 248.02 142.989L242.934 145.637Z" fill="black"/>
<path opacity="0.1" d="M246.952 148.503C246.952 148.503 251.304 145.424 252.469 145.631L246.952 148.503Z" fill="black"/>
</g>
<g opacity="0.5">
<path opacity="0.5" d="M341.444 197.809C341.444 197.809 376.106 199.451 393.34 198.44L392.961 202.989L362.466 207.009L353.442 204.23L341.444 197.809Z" fill="#3DB83A"/>
<path opacity="0.1" d="M393.363 198.44L392.984 202.989L362.495 207.009L353.465 204.23L341.444 197.809C341.444 197.809 342.156 197.849 343.425 197.9C350.945 198.228 378.024 199.285 392.892 198.475L393.363 198.44Z" fill="black"/>
<path opacity="0.5" d="M405.361 263.121C398.667 267.141 375.434 263.247 375.434 263.247L368.993 240.274L361.795 263.643C351.57 267.308 330.479 262.001 330.479 262.001L338.688 211.46L340.106 204.494L341.444 197.809L354.452 201.725C354.452 201.725 358.362 204.379 374.654 203.621C390.946 202.863 393.34 198.452 393.34 198.452C394.057 198.659 394.74 201.191 395.429 204.339C396.428 208.933 397.444 214.826 398.644 216.773C400.688 220.046 405.361 263.121 405.361 263.121Z" fill="#3DB83A"/>
<path opacity="0.1" d="M395.452 204.833C380.928 212.81 368.425 212.592 368.425 212.592C365.331 212.971 340.106 204.993 340.106 204.993L341.444 198.314L354.452 202.231C354.452 202.231 358.362 204.884 374.654 204.126C390.946 203.368 393.34 198.957 393.34 198.957C394.08 199.158 394.763 201.685 395.452 204.833Z" fill="black"/>
<path opacity="0.1" d="M393.363 198.44L392.984 202.989L362.495 207.009L353.465 204.23L341.444 197.809C341.444 197.809 342.156 197.849 343.425 197.9L354.447 201.22C354.447 201.22 358.356 203.873 374.648 203.115C387.444 202.541 391.669 199.669 392.892 198.469L393.363 198.44Z" fill="black"/>
<path opacity="0.5" d="M395.452 204.327C380.928 212.305 368.425 212.086 368.425 212.086C365.331 212.465 340.106 204.488 340.106 204.488L341.444 197.809L354.452 201.725C354.452 201.725 358.362 204.379 374.654 203.621C390.946 202.863 393.34 198.452 393.34 198.452C394.08 198.647 394.763 201.18 395.452 204.327Z" fill="#3DB83A"/>
<path opacity="0.1" d="M370.888 210.88C371.62 210.88 372.214 210.286 372.214 209.554C372.214 208.821 371.62 208.227 370.888 208.227C370.155 208.227 369.562 208.821 369.562 209.554C369.562 210.286 370.155 210.88 370.888 210.88Z" fill="black"/>
<path opacity="0.5" d="M370.888 210.375C371.62 210.375 372.214 209.781 372.214 209.048C372.214 208.315 371.62 207.721 370.888 207.721C370.155 207.721 369.562 208.315 369.562 209.048C369.562 209.781 370.155 210.375 370.888 210.375Z" stroke="#3DB83A" stroke-miterlimit="10"/>
<path opacity="0.1" d="M336.983 232.802C336.983 232.802 339.32 239.752 340.962 239.625C342.603 239.499 336.983 232.802 336.983 232.802Z" fill="black"/>
<path opacity="0.1" d="M335.468 239.625C335.468 239.625 336.92 243.795 338.436 244.49L335.468 239.625Z" fill="black"/>
<path opacity="0.1" d="M335.468 243.984C335.468 243.984 337.764 246.89 339.125 247.585L335.468 243.984Z" fill="black"/>
<path opacity="0.1" d="M397.128 217.709C397.128 217.709 399.275 220.931 397.128 221.626V217.709Z" fill="black"/>
<path opacity="0.1" d="M398.104 222.947C395.613 219.989 397.151 226.967 397.151 226.967C397.151 226.967 398.742 223.705 398.104 222.947Z" fill="black"/>
<path opacity="0.1" d="M399.362 226.548C399.362 226.548 395.573 232.17 396.33 232.802L399.362 226.548Z" fill="black"/>
<path opacity="0.1" d="M349.24 217.83C344.596 217.83 339.75 215.728 339.481 215.601L339.687 215.136C339.779 215.182 349.05 219.208 354.068 216.187C355.962 215.039 357.024 213.017 357.231 210.157L357.736 210.197C357.518 213.229 356.37 215.366 354.326 216.618C352.772 217.477 351.014 217.896 349.24 217.83Z" fill="black"/>
<path opacity="0.5" d="M349.24 217.324C344.596 217.324 339.75 215.222 339.481 215.096L339.687 214.637C339.779 214.677 349.05 218.703 354.068 215.682C355.962 214.533 357.024 212.512 357.231 209.651L357.736 209.692C357.518 212.724 356.37 214.86 354.326 216.113C352.772 216.972 351.014 217.391 349.24 217.324Z" fill="#3DB83A"/>
<path opacity="0.1" d="M387.369 218.209C386.18 218.226 385.002 217.972 383.925 217.468C380.159 215.653 379.551 211.208 379.522 211.018L380.027 210.955C380.027 211.001 380.63 215.326 384.149 217.014C387.283 218.525 391.732 217.589 397.352 214.143L397.611 214.573C393.609 216.997 390.182 218.209 387.369 218.209Z" fill="black"/>
<path opacity="0.5" d="M387.369 217.703C386.18 217.72 385.002 217.467 383.925 216.962C380.159 215.147 379.551 210.702 379.522 210.512L380.027 210.449C380.027 210.495 380.63 214.82 384.149 216.508C387.283 218.019 391.732 217.083 397.352 213.637L397.611 214.067C393.609 216.491 390.182 217.703 387.369 217.703Z" fill="#3DB83A"/>
</g>
<path d="M236.011 198.584C236.011 198.584 242.526 207.687 246.952 206.803C251.378 205.918 251.815 204.947 255.747 198.584L258.973 206.01L255.173 215.199L250.672 221.029L241.131 219.53L238.043 209.1L236.011 198.584Z" fill="#3DB83A"/>
<path opacity="0.1" d="M258.973 206.004L255.173 215.194L250.672 221.023L241.131 219.524L238.043 209.094L236.011 198.584C236.011 198.584 236.585 199.377 237.48 200.468C239.667 203.081 243.829 207.423 246.952 206.785C251.315 205.912 251.803 204.953 255.592 198.825L255.747 198.567L258.973 206.004Z" fill="black"/>
<path opacity="0.1" d="M258.973 206.004L255.173 215.193L250.672 221.023L241.131 219.524L238.043 209.094L236.011 198.584C236.011 198.584 236.585 199.377 237.48 200.468C238.904 205.062 241.964 212.431 246.952 212.368C252.584 212.305 254.857 202.972 255.592 198.842L255.747 198.584L258.973 206.004Z" fill="black"/>
<path d="M232.566 198.314C232.566 198.314 230.356 198.05 231.504 200.79C232.652 203.529 234.771 212.54 233.714 214.395C232.658 216.25 233.186 221.287 228.594 222.264L229.914 227.473C229.914 227.473 230.178 238.959 229.65 240.642C229.122 242.325 229.03 251.594 229.208 252.565C229.386 253.535 229.3 259.899 228.594 260.169C227.888 260.439 227.446 263.523 229.742 264.051C232.038 264.58 241.837 264.85 243.606 265.378C245.374 265.906 257.911 265.378 257.911 265.378C257.911 265.378 263.21 264.672 264.536 264.229C265.862 263.787 266.126 262.73 265.684 260.697C265.242 258.664 263.21 243.91 263.652 242.055C264.094 240.2 264.186 222.086 264.186 222.086C264.186 222.086 260.741 220.937 260.741 217.577C260.741 214.217 259.415 205.206 262.154 199.555C262.154 199.555 259.944 198.039 259.593 198.308C259.243 198.578 255.908 197.608 255.908 197.608C255.908 197.608 254.186 212.982 246.981 213.069C239.777 213.155 236.567 197.608 236.567 197.608C236.567 197.608 236.631 196.195 232.566 198.314Z" fill="#3DB83A"/>
<path opacity="0.1" d="M242.986 247.62C242.986 247.62 244.472 251.244 246.952 251.772C249.432 252.3 242.986 247.62 242.986 247.62Z" fill="black"/>
<path opacity="0.1" d="M240.689 250.445C240.689 250.445 245.488 254.333 245.282 255.132L240.689 250.445Z" fill="black"/>
<path opacity="0.1" d="M231.062 227.473C231.062 227.473 234.863 230.034 234.863 231.889L231.062 227.473Z" fill="black"/>
<path opacity="0.1" d="M233.622 235.513C233.622 235.513 232.566 231.803 231.86 231.01L233.622 235.513Z" fill="black"/>
<path opacity="0.1" d="M231.86 236.926C231.86 236.926 233.45 240.108 233.622 240.992L231.86 236.926Z" fill="black"/>
<path opacity="0.1" d="M262.682 230.476C262.682 230.476 257.739 231.981 258.175 233.836L262.682 230.476Z" fill="black"/>
<path opacity="0.1" d="M258.152 247.619C258.152 247.619 264.628 240.107 262.682 240.285C260.736 240.463 258.152 247.619 258.152 247.619Z" fill="black"/>
<g opacity="0.1">
<path opacity="0.1" d="M260.736 217.577C260.736 216.026 260.454 213.269 260.42 210.197C260.386 213.723 260.736 216.985 260.736 218.725C260.736 222.011 264.025 223.176 264.18 223.228C264.18 222.51 264.18 222.08 264.18 222.08C264.18 222.08 260.736 220.937 260.736 217.577Z" fill="black"/>
<path opacity="0.1" d="M265.667 261.846C265.734 262.147 265.786 262.452 265.822 262.759C265.895 262.068 265.843 261.369 265.667 260.697C265.288 258.974 263.75 247.913 263.589 243.594C263.417 246.546 265.265 259.916 265.667 261.846Z" fill="black"/>
<path opacity="0.1" d="M229.128 250.388C229.128 247.235 229.306 242.888 229.65 241.773C229.931 240.878 229.989 237.213 229.983 233.974C229.983 236.88 229.897 239.832 229.65 240.625C229.26 241.877 229.11 247.264 229.128 250.388Z" fill="black"/>
<path opacity="0.1" d="M232.566 199.463C236.625 197.344 236.539 198.756 236.539 198.756C236.539 198.756 239.719 214.309 246.952 214.217C254.186 214.125 255.908 198.756 255.908 198.756C255.908 198.756 259.266 199.727 259.616 199.457C259.966 199.187 261.143 200.031 261.792 200.445C261.913 200.141 262.039 199.842 262.182 199.555C262.182 199.555 259.972 198.039 259.616 198.308C259.26 198.578 255.908 197.608 255.908 197.608C255.908 197.608 254.186 212.982 246.981 213.069C239.777 213.155 236.567 197.608 236.567 197.608C236.567 197.608 236.654 196.195 232.595 198.314C232.595 198.314 230.798 198.107 231.298 200.089C231.585 199.348 232.566 199.463 232.566 199.463Z" fill="black"/>
<path opacity="0.1" d="M228.588 261.318C229.162 261.105 229.317 257.171 229.283 255C229.254 257.182 229.053 259.991 228.588 260.169C228.123 260.347 227.899 261.318 228.077 262.254C228.169 261.76 228.353 261.398 228.588 261.318Z" fill="black"/>
<path opacity="0.1" d="M233.714 215.544C233.995 214.791 234.088 213.981 233.984 213.184C233.979 213.602 233.887 214.014 233.714 214.395C232.652 216.25 233.181 221.287 228.588 222.264L228.864 223.343C233.158 222.229 232.675 217.365 233.714 215.544Z" fill="black"/>
</g>
<path d="M259.226 306.35C257.056 310.301 235.029 306.35 235.029 306.35L235.086 305.954L235.523 302.893H258.732L259.174 305.948L259.226 306.35Z" fill="#3DB83A"/>
<path opacity="0.1" d="M259.226 306.35C257.056 310.301 235.029 306.35 235.029 306.35L235.086 305.954C236.143 305.954 252.079 305.575 259.197 305.954L259.226 306.35Z" fill="black"/>
<path d="M235.029 306.35C235.029 306.35 231.079 307.338 224.954 323.936C218.829 340.534 216.659 361.979 216.659 361.979C216.659 361.979 213.214 367.814 227.916 368.205C227.916 368.205 226.734 372.059 235.029 371.467C243.324 370.875 242.13 370.881 242.13 370.881C242.13 370.881 247.463 367.521 249.834 368.113C252.205 368.704 253.686 368.905 256.252 371.076C258.818 373.247 267.022 372.363 267.119 370.686C267.185 369.862 267.185 369.034 267.119 368.211C267.119 368.211 279.663 369.003 277.292 359.912C274.921 350.82 272.946 335.899 272.946 335.899C272.946 335.899 266.528 306.752 259.214 306.356C251.901 305.96 235.029 306.35 235.029 306.35Z" fill="#3DB83A"/>
<path opacity="0.1" d="M232.386 317.822L227.74 368.217L228.134 368.254L232.78 317.858L232.386 317.822Z" fill="black"/>
<path opacity="0.1" d="M242.123 317.784L241.919 370.845L242.315 370.847L242.519 317.785L242.123 317.784Z" fill="black"/>
<path opacity="0.1" d="M254.518 317.773L254.122 317.788L256.102 371.049L256.498 371.034L254.518 317.773Z" fill="black"/>
<path opacity="0.1" d="M266.93 368.21C266.241 337.857 261.074 317.078 261.011 316.895L261.396 316.797C261.448 317.004 266.643 337.823 267.326 368.228L266.93 368.21Z" fill="black"/>
<path opacity="0.1" d="M235.718 309.313C235.718 309.313 235.029 309.71 235.718 311.611V309.313Z" fill="black"/>
<path opacity="0.1" d="M237.698 309.313C237.698 309.313 235.821 310.497 237.698 312.478V309.313Z" fill="black"/>
<path opacity="0.1" d="M255.276 309.313C255.276 309.313 257.842 311.783 257.251 312.478L255.276 309.313Z" fill="black"/>
<path opacity="0.1" d="M257.343 308.722C257.343 308.722 257.745 311.686 259.226 312.478L257.343 308.722Z" fill="black"/>
<g opacity="0.5">
<path opacity="0.5" d="M362.179 303.984C362.179 303.984 371.87 300.124 376.06 304.834C380.251 309.543 373.19 315.275 373.19 315.275L370.228 321.191L363.259 320.427L361.617 312.248L362.179 303.984Z" fill="#3DB83A"/>
<path opacity="0.1" d="M373.19 315.246L370.228 321.162L363.259 320.421L361.617 312.248L362.191 303.984L362.346 303.926C363.574 303.473 371.87 300.578 375.836 304.564C375.919 304.64 375.998 304.72 376.072 304.805C380.251 309.492 373.19 315.246 373.19 315.246Z" fill="black"/>
<path opacity="0.1" d="M373.19 315.246L370.228 321.162L363.259 320.421L361.617 312.248L362.191 303.984L362.346 303.926C363.546 310.502 366.749 313.276 367.288 313.69L367.369 313.747L369.338 313.586C373.167 311.473 375.188 306.448 375.836 304.547C375.919 304.623 375.998 304.703 376.072 304.788C380.251 309.491 373.19 315.246 373.19 315.246Z" fill="black"/>
<path opacity="0.5" d="M390.113 337.772C390.113 337.772 387.978 364.983 388.558 368.268C389.137 371.553 387.323 371.8 387.323 371.8C387.323 371.8 379.596 373.523 378.138 372.375C376.68 371.226 374.194 371.002 374.194 371.002C374.194 371.002 368.454 372.317 365.893 371.335C363.333 370.353 359.074 370.761 359.074 370.761C359.074 370.761 355.79 372.736 354.883 372.323C353.976 371.909 352.828 372.076 350.198 371.341C347.569 370.606 346.088 369.939 347.483 365.42C348.878 360.9 347.655 346.593 347.569 344.864C347.483 343.136 346.668 338.949 345.514 333.952C344.36 328.956 347.483 330.007 347.483 330.007C354.802 326.228 351.76 318.825 350.612 315.539C349.464 312.254 351.266 312.094 352.167 312.094C353.069 312.094 356.525 309.136 356.525 309.136L357.925 307.878L362.196 304.042C363.258 311.226 366.703 314.241 367.277 314.689L367.357 314.753L369.326 314.586C374.091 311.961 376.06 304.823 376.06 304.823C376.634 305.799 377.914 306.913 379.344 307.947C381.214 309.271 383.164 310.479 385.182 311.565C388.626 313.621 386.089 315.677 386.089 315.677C381.898 329.978 387.811 330.61 387.811 330.61C392.168 331.253 390.113 337.772 390.113 337.772Z" fill="#3DB83A"/>
<path opacity="0.1" d="M357.822 312.122C357.822 312.122 356.588 312.783 356.588 313.518L357.822 312.122Z" fill="black"/>
<path opacity="0.1" d="M358.563 313.518C358.563 313.518 356.921 315.241 357.208 315.74L358.563 313.518Z" fill="black"/>
<path opacity="0.1" d="M358.563 315.746C358.563 315.746 357.328 317.061 357.822 317.802L358.563 315.746Z" fill="black"/>
<path opacity="0.1" d="M366.783 315.677L361.617 320.668C361.427 315.12 358.746 310.68 357.426 308.808L361.697 304.972C362.742 312.214 366.215 315.229 366.783 315.677Z" fill="black"/>
<path opacity="0.5" d="M367.277 314.689L362.11 319.686C361.927 314.132 359.24 309.698 357.925 307.82L362.196 303.984C363.258 311.226 366.703 314.241 367.277 314.689Z" fill="#3DB83A"/>
<path opacity="0.1" d="M379.838 308.917C377.771 312.145 373.93 320.668 373.93 320.668L369.82 315.574C374.585 312.943 376.554 305.81 376.554 305.81C377.128 306.763 378.408 307.878 379.838 308.917Z" fill="black"/>
<path opacity="0.5" d="M379.332 307.93C377.271 311.163 373.425 319.686 373.425 319.686L369.326 314.597C374.091 311.973 376.06 304.834 376.06 304.834C376.634 305.782 377.914 306.896 379.332 307.93Z" fill="#3DB83A"/>
<path opacity="0.1" d="M376.313 360.624C376.313 360.624 375.434 368.09 374.929 368.515L376.313 360.624Z" fill="black"/>
<path opacity="0.1" d="M383.54 361.939C383.54 361.939 384.528 367.28 384.114 368.515L383.54 361.939Z" fill="black"/>
<path opacity="0.1" d="M362.506 362.266C362.506 362.266 361.605 367.28 362.506 367.854V362.266Z" fill="black"/>
<path opacity="0.1" d="M357.173 361.525C357.173 361.525 356.427 367.447 356.599 368.515L357.173 361.525Z" fill="black"/>
<path opacity="0.1" d="M384.774 332.671C384.774 332.671 382.478 334.48 382.639 334.969L384.774 332.671Z" fill="black"/>
<path opacity="0.1" d="M386.416 333.826C386.416 333.826 382.019 337.524 384.218 337.111C386.416 336.697 386.416 333.826 386.416 333.826Z" fill="black"/>
</g>
<path d="M142.816 227.874L142.845 227.834L142.794 227.794L142.484 227.587L142.547 227.633C142.324 227.505 142.062 227.464 141.811 227.519C141.561 227.575 141.34 227.722 141.192 227.932L141.066 228.11L134.091 238.149L132.874 239.935C129.194 238.827 123.218 243.49 120.192 246.167C120.003 246.333 119.825 246.488 119.664 246.638C119.423 246.098 119.28 245.753 119.28 245.753C119.13 247.396 113.332 249.86 111.978 250.755C111.362 251.128 110.672 251.359 109.957 251.433C110.152 245.19 105.324 238.62 105.324 238.62L93.5271 223.601C93.093 220.885 93.5144 218.101 94.7326 215.636C94.8302 215.44 94.9278 215.245 95.0368 215.061H95.0943C94.6479 216.323 94.3982 217.646 94.3537 218.984C94.3824 220 95.3239 224.928 96.65 224.727C96.7815 224.741 96.9142 224.718 97.0336 224.661C97.153 224.604 97.2546 224.516 97.3274 224.405C98.3837 223.176 98.4755 221.086 98.4239 219.15C98.4056 219.719 98.3422 220.286 98.2344 220.845C98.3205 219.237 98.1368 217.537 98.1368 216.325C98.1368 215.842 98.1368 215.366 98.1713 214.883H98.3148C98.3148 215.067 98.3148 215.262 98.3148 215.458C98.3148 215.257 98.3148 215.061 98.3148 214.883H98.464C101.11 214.399 103.59 213.248 105.669 211.541C106.182 211.52 106.686 211.397 107.151 211.179C107.616 210.961 108.034 210.653 108.378 210.271C108.504 210.691 108.523 211.136 108.434 211.565C108.345 211.994 108.15 212.395 107.867 212.729C109.446 212.655 110.784 211.426 111.392 209.984C111.913 208.512 112.067 206.935 111.84 205.39C111.613 203.844 111.5 202.283 111.501 200.72C111.61 199.877 111.656 199.026 111.639 198.176C111.614 197.916 111.567 197.659 111.501 197.407H111.547C111.698 197.41 111.849 197.383 111.99 197.328C112.13 197.272 112.259 197.19 112.368 197.085C113.022 196.58 113.235 195.592 113.401 194.834C113.854 193.089 114.059 191.289 114.01 189.487C113.975 190.032 113.906 190.584 113.826 191.129C113.97 189.062 113.683 187.051 112.316 185.552C111.375 184.524 110.06 183.921 108.797 183.318C108.346 183.157 107.948 182.872 107.649 182.497C107.426 182.055 107.304 181.568 107.293 181.073C106.851 178.052 104.01 175.95 101.179 174.755C97.5398 173.17 93.1424 172.492 89.6693 174.376C87.9471 175.289 86.6268 176.719 85.0768 177.885C83.1364 179.361 80.8976 180.395 78.8252 181.682C76.7528 182.968 74.8067 184.599 73.7906 186.816C72.2693 190.262 73.4117 194.167 73.6012 197.906C73.9054 203.793 71.4829 209.967 66.6837 213.413C66.1085 213.766 65.5946 214.21 65.1624 214.728C64.9515 214.99 64.8263 215.311 64.8037 215.647C64.7811 215.983 64.8622 216.318 65.0361 216.606C65.2829 216.928 65.6733 217.112 65.9431 217.416C66.4885 218.036 66.3794 218.984 66.167 219.776C65.47 222.37 64.0809 224.724 62.1485 226.588C62.2346 227.197 62.9867 227.438 63.6009 227.53C65.226 227.769 66.8666 227.888 68.5092 227.886H69.2153C69.1407 228.075 69.0603 228.276 68.9799 228.489C68.0901 230.832 66.9363 234.439 67.3209 236.644C67.8949 240.125 69.732 256.039 68.8249 258.83C67.9179 261.622 70.2831 281.861 70.2831 281.861C70.2831 281.861 70.5988 283.423 71.1442 285.755C69.7262 289.097 68.1073 292.807 67.2979 294.295C65.6676 297.276 66.4713 312.495 72.0914 319.261C72.0914 319.261 74.3876 322.546 73.8136 323.735C73.2395 324.924 73.9169 327.02 73.9169 327.02L74.8067 346.713C74.7877 348.726 74.6497 350.736 74.3934 352.732C71.9938 355.702 68.2968 360.032 66.5574 360.738C63.865 361.835 43.7841 386.204 43.7841 386.204C43.7841 386.204 43.9449 386.497 44.2606 386.974L43.6865 387.628L39.8345 392.097L39.5303 392.447C38.8069 392.309 33.9905 391.436 30.173 391.16H29.7941V391.092C28.4561 390.938 27.1033 390.975 25.7756 391.201C25.5245 391.247 25.2927 391.367 25.1097 391.545C23.8066 393.142 23.1062 418.205 23.1062 418.205C23.1062 418.205 24.4954 430.754 28.8469 431.455C29.0687 431.532 29.301 431.575 29.5358 431.581H29.7252C32.8252 431.352 34.2488 429.577 34.8918 428.359C35.082 427.996 35.2266 427.61 35.3224 427.211C35.3224 427.211 34.8172 424.977 36.172 421.892C37.5268 418.808 40.0584 413.381 40.0584 413.381C40.0584 413.381 44.651 408.551 43.83 406.208C43.9563 406.018 44.1056 405.811 44.2663 405.576C45.9885 403.118 49.4789 398.265 52.3033 395.026C52.487 394.807 52.6707 394.606 52.8773 394.405C53.9048 394.839 54.9801 395.15 56.0806 395.33C56.0806 395.33 60.3976 393.641 61.9993 389.862C62.6824 388.254 65.3633 385.406 68.2164 382.666L68.1246 383.396L68.027 407.368C68.9548 408.005 69.9431 408.55 70.9777 408.993V409.567C70.9979 412.983 70.7908 416.397 70.3577 419.785L70.2716 420.319C69.9157 420.066 69.6057 419.98 69.4105 420.175C68.5264 421.071 67.9753 426.791 67.9236 429.428C67.9236 429.514 67.9236 429.6 67.9236 429.692C67.7801 432.322 66.2818 436.147 70.794 436.342C74.1695 436.486 88.7221 436.704 96.5065 436.819C100.7 436.899 104.78 435.452 107.988 432.747C110.462 430.628 111.96 428.107 108.591 426.252C108.384 426.137 108.166 426.028 107.925 425.919L100.462 424.77L87.7118 418.257C87.7118 418.257 87.6371 414.317 86.1044 414.972C85.649 415.071 85.2128 415.244 84.8127 415.483C84.7381 415.339 84.6577 415.184 84.5831 415.024C83.5446 412.965 83.0057 410.69 83.0101 408.384C83.0101 408.178 83.0101 407.965 83.0388 407.753C83.4122 407.412 83.765 407.05 84.0951 406.667C84.0951 406.667 83.9975 397.713 85.0022 396.025C86.0068 394.336 89.1182 377.222 89.1182 377.222C89.1182 377.222 89.2158 374.04 91.2251 372.15C93.2343 370.261 92.5282 364.787 92.5282 364.787C92.5282 364.787 95.3411 363.294 96.2424 358.424C97.1437 353.554 100.06 342.917 100.06 342.917C100.06 342.917 106.082 327.198 105.686 317.256C105.29 307.315 106.26 302.134 106.26 302.134L107.511 279.024V278.668C108.011 279.047 108.349 279.357 108.349 279.357C108.349 279.357 108.349 279.265 108.349 279.104C108.533 279.259 108.637 279.357 108.637 279.357C108.637 279.357 109.279 268.87 109.061 264.712C112.575 263.517 117.925 261.553 118.246 260.553C118.694 259.066 124.722 254.362 124.722 254.362C124.592 254.341 124.467 254.294 124.354 254.224C124.544 254.138 124.739 254.035 124.929 253.926C128.878 251.812 136.215 245.632 134.98 241.865L143.017 230.327C143.269 229.957 143.387 229.511 143.35 229.065C143.313 228.619 143.125 228.199 142.816 227.874Z" fill="url(#paint1_linear)"/>
<path d="M124.119 255.741C123.533 256.109 122.879 256.357 122.196 256.47C119.687 256.545 117.603 249.751 117.603 249.751C117.603 249.751 118.315 249.027 119.452 248.028C122.816 245.035 129.871 239.51 133.178 242.6C136.909 246.052 128.465 253.403 124.119 255.741Z" fill="#ECB4B6"/>
<path d="M85.9838 417.775L76.7241 427.774C76.7241 427.774 68.159 427.872 69.8353 423.145C70.1702 422.12 70.4085 421.067 70.5472 419.998C70.9691 416.641 71.1705 413.261 71.1499 409.878C71.1499 407.661 71.1155 406.105 71.1155 406.105C71.1155 406.105 84.6003 400.195 83.2226 406.352C83.0512 407.121 82.9588 407.906 82.947 408.695C82.9416 410.977 83.4684 413.228 84.4855 415.271C84.9017 416.153 85.4036 416.991 85.9838 417.775Z" fill="#ECB4B6"/>
<path opacity="0.1" d="M85.9838 417.775L76.7241 427.773C76.7241 427.773 68.159 427.871 69.8353 423.144C70.1702 422.12 70.4085 421.066 70.5472 419.997C71.7699 420.945 73.5266 423.736 73.5266 423.736C73.5266 423.736 79.4337 425.459 81.0583 420.29C81.9654 417.418 83.4005 415.965 84.5027 415.271C84.9135 416.152 85.4096 416.99 85.9838 417.775Z" fill="black"/>
<path d="M107.465 432.834C104.326 435.509 100.314 436.94 96.1907 436.854C88.5556 436.745 74.2901 436.521 70.9777 436.383C66.5459 436.188 68.0155 432.403 68.159 429.795C68.159 429.703 68.159 429.623 68.159 429.537C68.2107 426.924 68.7331 421.261 69.6172 420.376C70.5012 419.492 73.5266 424.316 73.5266 424.316C73.5266 424.316 79.4337 426.039 81.0583 420.87C82.6829 415.701 85.9838 415.202 85.9838 415.202C87.4821 414.553 87.5568 418.452 87.5568 418.452L100.06 424.902L107.397 426.051C107.632 426.16 107.844 426.269 108.045 426.378C111.363 428.239 109.894 430.732 107.465 432.834Z" fill="#C17174"/>
<path opacity="0.25" d="M84.3649 422.892C84.663 422.892 84.9046 422.65 84.9046 422.352C84.9046 422.054 84.663 421.812 84.3649 421.812C84.0669 421.812 83.8253 422.054 83.8253 422.352C83.8253 422.65 84.0669 422.892 84.3649 422.892Z" fill="white"/>
<path opacity="0.25" d="M89.4397 425.407C89.7377 425.407 89.9793 425.166 89.9793 424.867C89.9793 424.569 89.7377 424.328 89.4397 424.328C89.1417 424.328 88.9001 424.569 88.9001 424.867C88.9001 425.166 89.1417 425.407 89.4397 425.407Z" fill="white"/>
<path opacity="0.25" d="M92.046 426.573C92.344 426.573 92.5856 426.332 92.5856 426.034C92.5856 425.735 92.344 425.494 92.046 425.494C91.7479 425.494 91.5063 425.735 91.5063 426.034C91.5063 426.332 91.7479 426.573 92.046 426.573Z" fill="white"/>
<path opacity="0.25" d="M97.4594 428.652C97.7574 428.652 97.999 428.411 97.999 428.113C97.999 427.814 97.7574 427.573 97.4594 427.573C97.1614 427.573 96.9198 427.814 96.9198 428.113C96.9198 428.411 97.1614 428.652 97.4594 428.652Z" fill="white"/>
<path opacity="0.25" d="M94.7039 427.768C95.002 427.768 95.2436 427.526 95.2436 427.228C95.2436 426.93 95.002 426.688 94.7039 426.688C94.4059 426.688 94.1643 426.93 94.1643 427.228C94.1643 427.526 94.4059 427.768 94.7039 427.768Z" fill="white"/>
<path d="M107.465 432.834C104.326 435.51 100.314 436.94 96.1907 436.854C88.5556 436.745 74.2901 436.521 70.9777 436.383C66.5459 436.188 68.0155 432.403 68.159 429.796L95.9841 431.519C95.9841 431.519 107.379 429.796 108.04 426.396C111.363 428.239 109.894 430.732 107.465 432.834Z" fill="#C17174"/>
<path opacity="0.25" d="M107.465 432.834C104.326 435.51 100.314 436.94 96.1907 436.854C88.5556 436.745 74.2901 436.521 70.9777 436.383C66.5459 436.188 68.0155 432.403 68.159 429.796L95.9841 431.519C95.9841 431.519 107.379 429.796 108.04 426.396C111.363 428.239 109.894 430.732 107.465 432.834Z" fill="white"/>
<path d="M55.6673 392.66C54.6435 393.495 53.7085 394.435 52.8773 395.462C50.1161 398.667 46.7004 403.503 45.0069 405.903C44.3524 406.845 43.9563 407.437 43.9563 407.437L40.2593 406.891C40.2593 406.891 36.2753 400.786 36.327 400.643C36.3786 400.499 39.4843 393.94 39.4843 393.94L40.6841 392.533L44.4673 388.111L46.1895 386.112C46.1895 386.112 59.0026 390.247 55.6673 392.66Z" fill="#ECB4B6"/>
<path opacity="0.1" d="M45.0069 405.915C44.3524 406.857 43.9563 407.448 43.9563 407.448L40.2593 406.903C40.2593 406.903 36.2753 400.798 36.327 400.654C36.3786 400.511 39.4843 393.94 39.4843 393.94L40.6841 392.533L41.0745 392.608H42.016C38.7151 396.054 42.2571 403.635 42.2571 403.635C42.2571 403.635 43.7841 403.778 45.0069 405.915Z" fill="black"/>
<path d="M40.8793 413.634C40.8793 413.634 38.4166 418.952 37.0848 422.007C35.7529 425.063 36.2466 427.274 36.2466 427.274C36.1529 427.672 36.0122 428.057 35.8276 428.422C35.3555 429.362 34.6372 430.155 33.7494 430.717C32.8616 431.28 31.8378 431.59 30.7872 431.616H30.5461C26.0569 431.501 24.6332 418.464 24.6332 418.464C24.6332 418.464 25.3221 393.647 26.6023 392.045C26.7783 391.866 27.0047 391.746 27.251 391.7C28.5573 391.474 29.8895 391.437 31.2063 391.591C35.265 391.884 40.4832 392.883 40.4832 392.883H41.419C38.1181 396.329 41.6601 403.916 41.6601 403.916C41.6601 403.916 43.2388 404.06 44.4673 406.276C45.6958 408.493 40.8793 413.634 40.8793 413.634Z" fill="#C17174"/>
<path opacity="0.25" d="M35.4602 406.788C35.7582 406.788 35.9998 406.546 35.9998 406.248C35.9998 405.95 35.7582 405.708 35.4602 405.708C35.1621 405.708 34.9205 405.95 34.9205 406.248C34.9205 406.546 35.1621 406.788 35.4602 406.788Z" fill="white"/>
<path opacity="0.25" d="M35.1903 411.089C35.4883 411.089 35.7299 410.848 35.7299 410.55C35.7299 410.251 35.4883 410.01 35.1903 410.01C34.8923 410.01 34.6507 410.251 34.6507 410.55C34.6507 410.848 34.8923 411.089 35.1903 411.089Z" fill="white"/>
<path d="M35.4659 428.313C34.9938 429.253 34.2755 430.046 33.3877 430.608C32.4999 431.171 31.4761 431.481 30.4256 431.507H30.1902C25.701 431.392 24.2715 418.355 24.2715 418.355C24.2715 418.355 24.9604 393.538 26.2406 391.936C26.4166 391.757 26.643 391.637 26.8893 391.591C28.1956 391.365 29.5278 391.328 30.8446 391.482C30.77 395.945 30.5576 410.044 30.8446 411.446C31.1317 412.847 33.6748 424.575 35.4659 428.313Z" fill="#C17174"/>
<path opacity="0.25" d="M35.4659 428.313C34.9938 429.253 34.2755 430.046 33.3877 430.608C32.4999 431.171 31.4761 431.481 30.4256 431.507H30.1902C25.701 431.392 24.2715 418.355 24.2715 418.355C24.2715 418.355 24.9604 393.538 26.2406 391.936C26.4166 391.757 26.643 391.637 26.8893 391.591C28.1956 391.365 29.5278 391.328 30.8446 391.482C30.77 395.945 30.5576 410.044 30.8446 411.446C31.1317 412.847 33.6748 424.575 35.4659 428.313Z" fill="white"/>
<path d="M30.1844 431.518C25.6952 431.403 24.2658 418.366 24.2658 418.366C24.2658 418.366 24.9547 393.549 26.2349 391.947C26.4109 391.769 26.6373 391.649 26.8836 391.603C27.825 393.004 28.6517 396.105 27.9054 402.928C26.5047 415.856 28.1924 416.672 28.1924 416.672C28.1924 416.672 30.2993 427.659 30.1844 431.518Z" fill="#C17174"/>
<path opacity="0.1" d="M30.1844 431.518C25.6952 431.403 24.2658 418.366 24.2658 418.366C24.2658 418.366 24.9547 393.549 26.2349 391.947C26.4109 391.769 26.6373 391.649 26.8836 391.603C27.825 393.004 28.6517 396.105 27.9054 402.928C26.5047 415.856 28.1924 416.672 28.1924 416.672C28.1924 416.672 30.2993 427.659 30.1844 431.518Z" fill="black"/>
<path opacity="0.1" d="M124.119 255.74C123.533 256.108 122.879 256.356 122.196 256.47C119.687 256.545 117.603 249.75 117.603 249.75C117.603 249.75 118.315 249.027 119.452 248.027C120.273 249.865 122.535 254.822 124.119 255.74Z" fill="black"/>
<path d="M108.022 253.294C108.022 253.294 110.089 253.444 111.415 252.559C112.741 251.675 118.43 249.234 118.579 247.608C118.579 247.608 121.972 255.879 123.895 256.177C123.895 256.177 117.988 260.829 117.546 262.305C117.104 263.781 105.583 267.405 105.583 267.405L108.022 253.294Z" fill="#FF748E"/>
<path opacity="0.1" d="M108.022 253.294C108.022 253.294 110.089 253.444 111.415 252.559C112.741 251.675 118.43 249.234 118.579 247.608C118.579 247.608 121.972 255.879 123.895 256.177C123.895 256.177 117.988 260.829 117.546 262.305C117.104 263.781 105.583 267.405 105.583 267.405L108.022 253.294Z" fill="black"/>
<path opacity="0.1" d="M55.6673 392.66C54.6435 393.495 53.7086 394.435 52.8774 395.462C48.4226 393.596 45.5523 389.782 44.4615 388.111L46.1838 386.112C46.1838 386.112 59.0027 390.247 55.6673 392.66Z" fill="black"/>
<path d="M76.7356 350.78C76.7356 350.78 69.5138 360.434 66.8731 361.52C64.2324 362.605 44.5476 386.732 44.5476 386.732C44.5476 386.732 48.7785 394.515 56.5571 395.79C56.5571 395.79 60.788 394.118 62.3667 390.374C63.9453 386.629 76.3452 376.05 76.3452 376.05L76.7356 350.78Z" fill="#5E5A6B"/>
<path opacity="0.1" d="M76.7356 350.78C76.7356 350.78 69.5138 360.434 66.8731 361.52C64.2324 362.605 44.5476 386.732 44.5476 386.732C44.5476 386.732 48.7785 394.515 56.5571 395.79C56.5571 395.79 60.788 394.118 62.3667 390.374C63.9453 386.629 76.3452 376.05 76.3452 376.05L76.7356 350.78Z" fill="black"/>
<path opacity="0.1" d="M54.8579 383.086C57.0429 383.315 59.246 383.315 61.431 383.086C65.3174 382.712 62.3897 385.079 54.8579 383.086Z" fill="black"/>
<path opacity="0.1" d="M53.084 385.595C53.084 385.595 58.2507 388.547 60.2484 387.071C62.2462 385.595 58.3253 388.496 53.084 385.595Z" fill="black"/>
<path opacity="0.1" d="M83.234 406.352C83.0626 407.121 82.9703 407.906 82.9585 408.695C78.9687 412.319 74.1638 411.199 71.1614 409.878C71.1614 407.661 71.127 406.105 71.127 406.105C71.127 406.105 84.6118 400.172 83.234 406.352Z" fill="black"/>
<path d="M107.155 277.869L107.012 280.592L105.783 303.478C105.783 303.478 104.796 308.601 105.209 318.445C105.623 328.289 99.6753 343.888 99.6753 343.888C99.6753 343.888 96.805 354.427 95.9324 359.251C95.0598 364.075 92.2928 365.569 92.2928 365.569C92.2928 365.569 92.9817 370.984 91.0127 372.857C89.0436 374.729 88.946 377.876 88.946 377.876C88.946 377.876 85.892 394.819 84.9275 396.496C83.9631 398.173 84.0377 407.035 84.0377 407.035C77.6426 414.616 68.2911 407.724 68.2911 407.724L68.3887 383.987C68.3887 383.987 71.0466 362.123 73.0156 359.067C74.9847 356.012 74.9847 347.644 74.9847 347.644L74.1064 328.117C74.1064 328.117 73.406 326.049 74.0088 324.866C74.6116 323.683 72.3268 320.438 72.3268 320.438C66.81 313.736 66.012 298.666 67.6252 295.742C69.2383 292.819 74.0088 280.971 74.0088 280.971L80.5933 277.128L92.4938 277.479L107.155 277.869Z" fill="#5E5A6B"/>
<path opacity="0.1" d="M79.1524 393.94C79.1524 393.94 80.7081 399.333 81.9596 399.925C83.2111 400.516 79.1524 393.94 79.1524 393.94Z" fill="black"/>
<path opacity="0.1" d="M81.2937 375.993C81.2937 375.993 85.3122 379.174 87.0344 379.169C88.7566 379.163 81.2937 375.993 81.2937 375.993Z" fill="black"/>
<path d="M105.582 242.657V249.159L101.294 247.309L97.0174 245.466L87.706 236.305C87.706 236.305 80.3407 231.521 76.4026 227.162C74.1523 224.675 73.0214 222.326 75.0019 221.086C75.9618 220.457 76.8293 219.697 77.5795 218.829C79.5587 216.494 81.2795 213.953 82.7116 211.248C82.7748 211.139 82.8379 211.029 82.8953 210.92C84.8127 207.4 86.0814 204.396 86.0814 204.396C86.0814 204.396 91.4776 206.119 94.945 208.577C95.2263 208.772 95.4904 208.973 95.743 209.18C97.6776 210.765 98.642 212.626 96.8567 214.441C96.398 214.915 95.9741 215.422 95.588 215.957C95.2997 216.355 95.0351 216.769 94.7958 217.198C94.6924 217.393 94.5891 217.582 94.4972 217.772C93.3027 220.217 92.8898 222.97 93.3147 225.657L105.582 242.657Z" fill="#ECB4B6"/>
<path d="M104.796 196.287C105.02 196.677 105.33 197.011 105.537 197.407C105.885 198.281 105.998 199.232 105.864 200.164C105.752 201.636 105.849 203.117 106.151 204.563C106.455 205.861 107.023 207.113 107.069 208.445C107.132 210.323 106.157 212.064 105.215 213.689C105.727 213.673 106.23 213.554 106.693 213.338C107.157 213.121 107.572 212.813 107.913 212.431C108.038 212.845 108.058 213.284 107.972 213.708C107.886 214.132 107.696 214.528 107.419 214.86C108.964 214.786 110.29 213.568 110.864 212.144C111.388 210.672 111.54 209.094 111.306 207.549C111.081 206.019 110.97 204.473 110.973 202.926C111.08 202.09 111.124 201.247 111.105 200.405C110.961 198.733 109.957 197.28 108.947 195.925L106.949 193.18C106.81 192.955 106.611 192.774 106.375 192.657C104.486 191.853 104.268 195.333 104.796 196.287Z" fill="#464353"/>
<path opacity="0.1" d="M96.8911 214.441C96.4325 214.916 96.0085 215.422 95.6224 215.957C95.3341 216.355 95.0696 216.769 94.8302 217.198C94.7269 217.393 94.6235 217.583 94.5317 217.772C92.2559 217.645 90.0362 217.016 88.0308 215.932C86.0254 214.848 84.2837 213.335 82.9298 211.501C82.8666 211.414 82.8035 211.328 82.7461 211.236C82.8092 211.127 82.8724 211.018 82.9298 210.909C84.8472 207.388 86.1159 204.385 86.1159 204.385C86.1159 204.385 91.5121 206.108 94.9795 208.566C95.2608 208.761 95.5248 208.962 95.7774 209.169C97.6891 210.765 98.6535 212.603 96.8911 214.441Z" fill="black"/>
<path d="M110.887 201.709C110.888 205.335 109.618 208.846 107.299 211.633C104.981 214.42 101.759 216.306 98.1942 216.963C97.2661 217.131 96.3246 217.216 95.3813 217.215H95.3124C95.1459 217.215 94.9737 217.215 94.8072 217.215C91.7686 217.103 88.8303 216.098 86.358 214.327C83.8857 212.556 81.9886 210.097 80.903 207.256C79.8174 204.414 79.5912 201.316 80.2525 198.347C80.9138 195.377 82.4335 192.668 84.6223 190.557C86.8111 188.445 89.5724 187.024 92.5624 186.471C95.5523 185.918 98.6389 186.257 101.438 187.445C104.237 188.634 106.624 190.62 108.304 193.156C109.983 195.692 110.879 198.666 110.881 201.709H110.887Z" fill="#ECB4B6"/>
<path opacity="0.1" d="M97.4135 240.05C97.4135 240.05 105.221 244.455 103.223 240.739L93.0334 225.669L104.601 240.538C104.601 240.538 111.983 250.687 107.948 257.676C107.948 257.676 107.374 263.488 108.045 264.867C108.717 266.245 107.85 280.948 107.85 280.948C107.85 280.948 105.089 278.386 103.613 278.874C102.138 279.362 91.7245 280.235 91.7245 280.235L97.4135 240.05Z" fill="black"/>
<path opacity="0.1" d="M107.155 277.869L107.012 280.591C106.076 279.914 104.773 279.156 103.906 279.443C102.431 279.937 92.0001 280.827 92.0001 280.827L92.4765 277.433L107.155 277.869Z" fill="black"/>
<path d="M97.7063 240.05C97.7063 240.05 105.519 244.455 103.516 240.739L93.3262 225.669L104.894 240.538C104.894 240.538 112.276 250.687 108.24 257.676C108.24 257.676 107.666 263.488 108.338 264.867C109.01 266.245 108.143 280.948 108.143 280.948C108.143 280.948 105.387 278.386 103.912 278.874C102.437 279.362 92.0001 280.258 92.0001 280.258L97.7063 240.05Z" fill="#464353"/>
<path opacity="0.1" d="M101.88 247.603C101.426 252.341 99.4802 257.975 99.4802 257.975C99.4802 257.975 98.1024 271.96 96.3171 276.118C94.5317 280.276 95.3297 285.967 94.348 296.506C93.9921 300.303 92.7693 302.91 91.1218 304.667C88.4122 307.539 84.5429 308.165 81.4889 307.987L80.7656 307.93C75.8401 307.441 71.1155 283.705 71.1155 283.705C71.1155 283.705 68.8537 263.511 69.7377 260.732C70.6218 257.952 68.8652 242.233 68.2739 238.787C67.895 236.599 69.0259 233.043 69.8985 230.712C70.4094 229.368 70.8285 228.414 70.8285 228.414C70.8285 228.414 72.5048 223.096 75.2603 220.339C75.6402 219.949 76.0946 219.639 76.5966 219.428C77.0985 219.217 77.6378 219.109 78.1823 219.11C79.4777 219.163 80.7358 219.559 81.8276 220.259C81.8718 220.285 81.914 220.313 81.9539 220.345C81.9539 220.345 99.8763 238.666 101.547 242.899C102.012 244.088 102.058 245.776 101.88 247.603Z" fill="black"/>
<path d="M101.294 247.309C100.835 252.042 98.8889 257.676 98.8889 257.676C98.8889 257.676 97.5111 271.667 95.7372 275.802C93.9634 279.937 94.7556 285.651 93.7682 296.19C93.4123 299.981 92.1895 302.588 90.5419 304.351C87.8323 307.223 83.9631 307.843 80.9091 307.671L80.1857 307.614C75.2602 307.12 70.5357 283.383 70.5357 283.383C70.5357 283.383 68.2739 263.195 69.1579 260.439C70.042 257.682 68.2738 241.922 67.6826 238.471C67.3037 236.288 68.4346 232.727 69.3072 230.396C69.8181 229.052 70.2372 228.127 70.2372 228.127C70.2372 228.127 71.9134 222.809 74.669 220.052C75.0478 219.661 75.5021 219.351 76.0044 219.14C76.5067 218.93 77.0465 218.824 77.591 218.829C78.8874 218.875 80.1471 219.272 81.2363 219.977L81.3626 220.058C81.3626 220.058 99.285 238.379 100.956 242.612C101.421 243.789 101.484 245.483 101.294 247.309Z" fill="#FF748E"/>
<path opacity="0.1" d="M81.2191 319.41C81.2191 319.41 77.1546 323.028 75.7539 322.856C74.3532 322.684 81.2191 319.41 81.2191 319.41Z" fill="black"/>
<path opacity="0.1" d="M82.2983 322.885C82.2983 322.885 78.0158 324.872 76.7356 325.182C75.4554 325.492 80.645 322.374 82.2983 322.885Z" fill="black"/>
<path opacity="0.1" d="M98.8659 268.514C98.8659 268.514 105.215 268.588 106.174 270.581C107.132 272.574 100.91 267.698 98.8659 268.514Z" fill="black"/>
<path opacity="0.1" d="M97.9761 271.982C97.9761 271.982 102.85 273.016 104.325 274.199C105.801 275.382 97.9761 271.982 97.9761 271.982Z" fill="black"/>
<path opacity="0.1" d="M89.7842 259.945C89.7842 259.945 89.2101 279.96 87.0172 282.55C84.8242 285.14 89.7842 259.945 89.7842 259.945Z" fill="black"/>
<path opacity="0.1" d="M84.319 316.527C84.319 316.527 80.2431 334.182 88.4179 335.273C96.5926 336.364 94.0667 315.172 94.0667 315.172L84.319 316.527Z" fill="black"/>
<path d="M84.0205 316.234C84.0205 316.234 79.9676 333.889 88.1251 334.991C96.2826 336.094 93.7682 314.89 93.7682 314.89L84.0205 316.234Z" fill="#ECB4B6"/>
<path opacity="0.1" d="M110.789 199.997C110.562 199.659 110.37 199.299 110.215 198.923C109.13 196.66 106.34 197.774 104.297 198.848L103.206 200.255C102.708 200.839 102.289 201.486 101.96 202.179C101.751 202.742 101.576 203.318 101.438 203.902C101.156 204.901 100.743 205.855 100.37 206.831C99.1324 210.077 98.3986 213.494 98.1942 216.962C97.2661 217.131 96.3247 217.216 95.3813 217.215H95.3124V217.146C95.4158 216.756 95.5019 216.359 95.5822 215.963C96.0096 213.728 96.062 211.438 95.7372 209.186C95.7372 209.134 95.7372 209.088 95.7372 209.037C95.6626 208.537 95.565 208.032 95.5248 207.532C95.3354 207.876 95.1517 208.227 94.9508 208.583C93.7165 210.88 92.4191 213.177 90.0884 214.183C89.1426 214.554 88.1456 214.779 87.132 214.849C85.8807 214.916 84.6407 215.122 83.435 215.463C83.0239 215.576 82.6522 215.8 82.3615 216.112C82.037 216.593 81.8503 217.153 81.8219 217.732C81.6974 218.496 81.5053 219.247 81.2478 219.977C80.1937 222.703 78.5465 225.159 76.4256 227.168L75.8917 227.685C74.9825 228.624 73.8981 229.375 72.6999 229.896C71.6113 230.262 70.4667 230.433 69.3187 230.401C69.8296 229.058 70.2487 228.133 70.2487 228.133C70.2487 228.133 71.9249 222.815 74.6805 220.058C75.0593 219.667 75.5136 219.356 76.0159 219.146C76.5182 218.936 77.058 218.83 77.6025 218.835C79.6594 216.402 81.4421 213.75 82.9183 210.926C81.5075 209.011 80.5561 206.797 80.1377 204.455C79.7193 202.113 79.8452 199.706 80.5056 197.42C81.166 195.135 82.3431 193.032 83.946 191.274C85.5489 189.517 87.5345 188.152 89.7491 187.285C91.9637 186.419 94.348 186.073 96.7174 186.276C99.0867 186.479 101.378 187.225 103.413 188.455C105.448 189.686 107.173 191.368 108.454 193.373C109.735 195.377 110.538 197.649 110.801 200.014L110.789 199.997Z" fill="black"/>
<path d="M111.777 187.896C110.858 186.874 109.566 186.276 108.332 185.685C107.893 185.518 107.506 185.236 107.213 184.869C106.999 184.43 106.881 183.95 106.868 183.462C106.438 180.464 103.648 178.391 100.875 177.173C97.3044 175.605 93.0161 174.933 89.589 176.794C87.9242 177.702 86.6095 179.12 85.1055 180.275C83.1996 181.733 81.0066 182.756 78.9744 184.031C76.9422 185.306 75.0019 186.902 74.0375 189.119C72.5449 192.508 73.6643 196.396 73.8538 200.095C74.1465 205.93 71.7756 212.023 67.0683 215.475C66.5011 215.823 65.9966 216.263 65.5757 216.779C65.3699 217.039 65.2482 217.356 65.2267 217.687C65.2051 218.019 65.2848 218.349 65.4552 218.634C65.6905 218.955 66.0809 219.139 66.3392 219.438C66.8788 220.052 66.7698 220.988 66.5574 221.781C65.8774 224.341 64.5164 226.67 62.6193 228.518C62.6996 229.127 63.4344 229.362 64.0372 229.454C65.6317 229.691 67.2417 229.808 68.8536 229.804C70.11 229.907 71.373 229.715 72.5421 229.244C73.7112 228.772 74.754 228.034 75.5874 227.088C78.4578 224.388 80.8861 221.017 81.5348 217.135C81.5686 216.557 81.7548 215.998 82.0744 215.515C82.3693 215.208 82.7394 214.985 83.1479 214.866C85.2892 214.131 87.7405 214.493 89.8014 213.585C92.488 212.437 93.8198 209.565 95.2263 206.935C95.2722 207.434 95.3641 207.94 95.4445 208.445C95.8544 211.148 95.7177 213.906 95.0426 216.555C94.658 218.054 94.1011 219.547 94.1413 221.092C94.17 222.24 95.3354 228.242 96.8681 226.445C98.4009 224.647 97.8383 220.673 97.8383 218.444C97.84 214.272 98.6047 210.136 100.094 206.24C100.462 205.269 100.881 204.31 101.162 203.311C101.301 202.727 101.474 202.152 101.679 201.588C102.012 200.896 102.433 200.249 102.93 199.664L104.027 198.257C106.07 197.171 108.86 196.069 109.945 198.331C110.359 199.199 110.583 200.158 111.668 199.313C112.305 198.814 112.511 197.832 112.678 197.085C113.361 193.955 113.924 190.274 111.777 187.896Z" fill="#464353"/>
<path opacity="0.1" d="M91.0012 242.118C90.5821 231.51 75.7425 229.316 72.2809 239.35C72.2527 239.417 72.2297 239.486 72.212 239.556C69.9444 246.351 70.9318 263.557 70.9318 263.557C70.9318 263.557 71.2246 275.113 72.3095 278.955C73.3945 282.797 76.4428 293.824 76.4428 295.61C76.4428 297.397 79.273 304.179 80.4613 304.673C81.6496 305.167 82.2524 309.004 82.5452 309.693C82.838 310.382 83.6933 319.347 83.6933 319.347C83.6933 319.347 94.8188 318.658 95.0139 316.883C95.2091 315.109 92.5512 306.442 92.5512 306.442C92.5512 306.442 90.5936 302.899 90.341 300.044C90.0884 297.19 88.5499 295.892 88.8542 293.922C89.1584 291.952 87.9644 290.97 87.9644 289.689C87.9644 288.408 87.0803 284.962 87.0803 284.962C87.0803 284.962 85.2089 283.481 85.5074 281.712C85.8059 279.943 82.8494 276.394 83.6359 275.113C84.4224 273.832 84.6176 270.679 84.6176 270.679C84.6176 270.679 85.605 256.499 86.2938 252.657C86.9827 248.815 91.0184 242.612 91.0184 242.612C91.0184 242.612 91.0127 242.434 91.0012 242.118Z" fill="black"/>
<path opacity="0.1" d="M90.542 304.351C87.8324 307.223 83.9631 307.843 80.9091 307.671C80.5532 306.327 80.0365 304.673 79.2845 304.363C78.0904 303.869 75.266 297.075 75.266 295.306C75.266 293.537 72.2177 282.498 71.1327 278.65C70.0477 274.802 69.755 263.259 69.755 263.259C69.755 263.259 68.7676 246.029 71.0351 239.252C71.0351 239.189 71.0753 239.12 71.104 239.051C74.5484 229.012 89.4053 231.211 89.8244 241.819C89.8244 242.135 89.8244 242.307 89.8244 242.307C89.8244 242.307 85.8059 248.51 85.0998 252.352C84.3937 256.194 83.435 270.374 83.435 270.374C83.435 270.374 83.2341 273.527 82.4476 274.808C81.6611 276.089 84.6118 279.638 84.3191 281.407C84.0263 283.176 85.892 284.658 85.892 284.658C85.892 284.658 86.7761 288.104 86.7761 289.39C86.7761 290.677 87.9586 291.653 87.6659 293.623C87.3731 295.593 88.946 296.874 89.1986 299.728C89.4095 301.328 89.8625 302.887 90.542 304.351Z" fill="black"/>
<path d="M90.4099 241.825C89.9908 231.217 75.1512 229.023 71.6895 239.057L71.6206 239.258C69.3531 246.058 70.3405 263.264 70.3405 263.264C70.3405 263.264 70.6333 274.814 71.7182 278.656C72.8032 282.499 75.8515 293.531 75.8515 295.312C75.8515 297.092 78.6817 303.881 79.87 304.375C81.0583 304.868 81.6611 308.711 81.9539 309.4C82.2466 310.089 83.102 319.049 83.102 319.049C83.102 319.049 94.2275 318.359 94.4226 316.59C94.6178 314.822 91.9656 306.149 91.9656 306.149C91.9656 306.149 90.0023 302.6 89.7497 299.746C89.4971 296.891 87.9242 295.61 88.2227 293.64C88.5212 291.671 87.3329 290.683 87.3329 289.402C87.3329 288.121 86.4488 284.675 86.4488 284.675C86.4488 284.675 84.5774 283.199 84.8759 281.425C85.1744 279.65 82.2179 276.106 83.0044 274.826C83.7909 273.545 83.9861 270.398 83.9861 270.398C83.9861 270.398 84.9735 256.212 85.6624 252.37C86.3512 248.527 90.3869 242.325 90.3869 242.325C90.3869 242.325 90.4214 242.141 90.4099 241.825Z" fill="#FF748E"/>
<path opacity="0.1" d="M72.1373 269.105C72.4301 268.807 78.0445 262.604 79.8126 264.821C81.5807 267.038 72.1373 269.105 72.1373 269.105Z" fill="black"/>
<path opacity="0.1" d="M72.654 273.906C72.8721 273.682 78.2626 273.464 79.5945 270.461C80.9263 267.457 72.654 273.906 72.654 273.906Z" fill="black"/>
<g opacity="0.1">
<path opacity="0.1" d="M66.5115 219.438C66.6441 219.594 66.7436 219.776 66.8043 219.972C66.9128 219.637 66.9428 219.281 66.892 218.933C66.8413 218.584 66.7111 218.252 66.5115 217.962C66.2474 217.657 65.8628 217.479 65.6217 217.158C65.6217 217.158 65.593 217.106 65.5758 217.077C65.4426 217.317 65.3766 217.588 65.3847 217.862C65.3928 218.136 65.4747 218.402 65.6217 218.634C65.8915 218.955 66.2474 219.139 66.5115 219.438Z" fill="black"/>
<path opacity="0.1" d="M74.026 200.307C74.026 199.733 74.026 199.158 74.026 198.63C73.9227 196.62 73.5495 194.558 73.4519 192.542C73.3314 195.012 73.8825 197.602 74.026 200.106C74.026 200.163 74.0203 200.226 74.026 200.307Z" fill="black"/>
<path opacity="0.1" d="M97.0346 224.968C95.6683 226.571 94.5948 221.959 94.3595 220.138C94.3222 220.455 94.305 220.773 94.3078 221.092C94.3422 222.24 95.5019 228.242 97.0346 226.444C98.0737 225.227 98.1828 223.153 98.1139 221.241C98.0392 222.705 97.8096 224.061 97.0346 224.968Z" fill="black"/>
<path opacity="0.1" d="M95.6109 208.445C95.7277 209.217 95.7987 209.996 95.8233 210.777C95.8732 209.502 95.8021 208.225 95.6109 206.963C95.5363 206.463 95.4387 205.958 95.3928 205.453C93.9749 208.106 92.6602 210.943 89.9736 212.109C87.8897 213.011 85.4614 212.655 83.3202 213.39C82.9091 213.502 82.5374 213.727 82.2467 214.039C81.9237 214.52 81.7372 215.08 81.707 215.658C81.0526 219.541 78.6185 222.912 75.7539 225.611C74.9205 226.558 73.8777 227.296 72.7086 227.767C71.5395 228.239 70.2765 228.431 69.0201 228.328C67.4102 228.329 65.8023 228.212 64.2095 227.978C63.9625 227.939 63.7201 227.876 63.4861 227.788C63.2622 228.041 63.0269 228.282 62.7858 228.517C62.8661 229.126 63.6067 229.362 64.2095 229.454C65.802 229.691 67.4101 229.808 69.0201 229.804C70.2765 229.907 71.5395 229.715 72.7086 229.243C73.8777 228.772 74.9205 228.034 75.7539 227.087C78.6243 224.388 81.0526 221.017 81.707 217.134C81.7381 216.556 81.9245 215.996 82.2467 215.515C82.5396 215.206 82.9105 214.982 83.3202 214.866C85.4614 214.131 87.9127 214.492 89.9736 213.585C92.6602 212.436 93.9921 209.565 95.3928 206.934C95.4387 207.434 95.5363 207.939 95.6109 208.445Z" fill="black"/>
<path opacity="0.1" d="M112.844 195.609C112.678 196.355 112.466 197.332 111.828 197.837C110.749 198.676 110.531 197.722 110.106 196.855C109.021 194.592 106.231 195.706 104.188 196.78L103.091 198.188C102.593 198.771 102.175 199.418 101.845 200.111C101.635 200.674 101.463 201.249 101.329 201.834C101.042 202.834 100.628 203.787 100.255 204.758C98.7711 208.656 98.0086 212.791 98.0048 216.962C98.0048 217.152 98.0048 217.358 98.0048 217.571C98.1071 213.694 98.866 209.862 100.249 206.24C100.623 205.269 101.036 204.31 101.323 203.31C101.457 202.725 101.629 202.15 101.84 201.588C102.169 200.894 102.588 200.247 103.085 199.664L104.182 198.256C106.225 197.171 109.015 196.068 110.1 198.331C110.519 199.198 110.738 200.157 111.823 199.313C112.46 198.814 112.672 197.831 112.839 197.085C113.272 195.354 113.465 193.573 113.413 191.79C113.321 193.075 113.131 194.352 112.844 195.609Z" fill="black"/>
</g>
<path d="M126.272 251.525L126.576 251.732C126.44 251.641 126.324 251.524 126.234 251.388C126.144 251.251 126.082 251.098 126.053 250.937C126.023 250.777 126.026 250.612 126.062 250.452C126.098 250.293 126.165 250.142 126.26 250.009L139.946 230.172C140.036 230.04 140.152 229.927 140.286 229.839C140.421 229.752 140.571 229.692 140.728 229.663C140.886 229.635 141.047 229.637 141.204 229.671C141.36 229.705 141.508 229.77 141.64 229.862L141.335 229.649C141.762 229.944 142.054 230.397 142.148 230.907C142.242 231.417 142.129 231.944 141.835 232.371L128.993 251.02C128.698 251.446 128.246 251.739 127.737 251.834C127.227 251.928 126.7 251.817 126.272 251.525Z" fill="#464353"/>
<path d="M141.482 229.724L141.714 229.884L126.649 251.764L126.418 251.604C126.2 251.454 126.05 251.223 126.002 250.962C125.954 250.701 126.011 250.432 126.162 250.214L140.09 229.985C140.24 229.767 140.471 229.617 140.731 229.569C140.992 229.521 141.261 229.578 141.479 229.729L141.482 229.724Z" fill="#9F9EFF"/>
<path d="M139.79 232.714L139.747 232.685C139.703 232.654 139.642 232.665 139.612 232.71L138.495 234.332C138.464 234.376 138.475 234.437 138.52 234.468L138.562 234.497C138.607 234.528 138.667 234.517 138.698 234.472L139.815 232.85C139.845 232.805 139.834 232.745 139.79 232.714Z" fill="#464353"/>
<path d="M430.206 161.959C430.211 163.922 429.633 165.842 428.547 167.476C427.46 169.11 425.913 170.385 424.102 171.139C422.291 171.893 420.297 172.093 418.372 171.713C416.447 171.333 414.679 170.39 413.29 169.004C411.901 167.617 410.954 165.85 410.57 163.926C410.186 162.001 410.381 160.005 411.13 158.192C411.88 156.378 413.151 154.828 414.782 153.737C416.413 152.646 418.33 152.063 420.292 152.063C422.917 152.063 425.436 153.105 427.294 154.96C429.153 156.816 430.2 159.332 430.206 161.959ZM419.144 167.208L426.503 159.851C426.622 159.731 426.688 159.569 426.688 159.4C426.688 159.232 426.622 159.07 426.503 158.95L425.596 158.042C425.538 157.982 425.468 157.935 425.39 157.902C425.313 157.87 425.23 157.853 425.146 157.853C425.062 157.853 424.979 157.87 424.901 157.902C424.824 157.935 424.754 157.982 424.695 158.042L418.696 164.044L415.895 161.253C415.773 161.134 415.611 161.068 415.441 161.068C415.272 161.068 415.109 161.134 414.988 161.253L414.086 162.16C414.026 162.219 413.979 162.289 413.946 162.366C413.914 162.444 413.897 162.527 413.897 162.611C413.897 162.695 413.914 162.778 413.946 162.855C413.979 162.933 414.026 163.003 414.086 163.062L418.243 167.22C418.301 167.28 418.372 167.327 418.449 167.36C418.526 167.392 418.609 167.409 418.693 167.409C418.777 167.409 418.86 167.392 418.938 167.36C419.015 167.327 419.085 167.28 419.144 167.22V167.208Z" fill="#3ACC6C"/>
<path d="M310.105 270.817C310.105 272.778 309.524 274.696 308.435 276.327C307.345 277.958 305.797 279.229 303.985 279.98C302.174 280.731 300.18 280.927 298.257 280.545C296.334 280.162 294.568 279.217 293.181 277.83C291.795 276.443 290.85 274.676 290.468 272.752C290.085 270.828 290.282 268.833 291.032 267.021C291.782 265.208 293.053 263.659 294.683 262.57C296.314 261.48 298.231 260.898 300.191 260.898C302.821 260.898 305.342 261.943 307.202 263.803C309.061 265.663 310.105 268.186 310.105 270.817ZM299.043 276.066L306.426 268.709C306.486 268.649 306.533 268.579 306.566 268.501C306.599 268.423 306.615 268.339 306.615 268.255C306.615 268.171 306.599 268.087 306.566 268.009C306.533 267.931 306.486 267.861 306.426 267.801L305.496 266.928C305.436 266.868 305.366 266.821 305.288 266.788C305.21 266.755 305.127 266.739 305.042 266.739C304.958 266.739 304.874 266.755 304.796 266.788C304.719 266.821 304.648 266.868 304.589 266.928L298.59 272.901L295.788 270.099C295.729 270.039 295.659 269.991 295.582 269.959C295.505 269.926 295.422 269.909 295.338 269.909C295.254 269.909 295.171 269.926 295.093 269.959C295.016 269.991 294.946 270.039 294.887 270.099L293.98 271C293.861 271.122 293.795 271.284 293.795 271.454C293.795 271.624 293.861 271.786 293.98 271.908L298.136 276.066C298.195 276.126 298.266 276.174 298.344 276.206C298.422 276.239 298.505 276.256 298.59 276.256C298.674 276.256 298.758 276.239 298.836 276.206C298.913 276.174 298.984 276.126 299.043 276.066Z" fill="#3ACC6C"/>
<path d="M310.105 379.169C310.105 381.13 309.524 383.048 308.435 384.679C307.345 386.31 305.797 387.581 303.985 388.332C302.174 389.083 300.18 389.279 298.257 388.897C296.334 388.514 294.568 387.569 293.181 386.182C291.795 384.795 290.85 383.028 290.468 381.104C290.085 379.18 290.282 377.185 291.032 375.373C291.782 373.561 293.053 372.011 294.683 370.922C296.314 369.832 298.231 369.25 300.191 369.25C302.821 369.25 305.342 370.295 307.202 372.155C309.061 374.015 310.105 376.538 310.105 379.169ZM299.043 384.418L306.426 377.061C306.486 377.002 306.533 376.931 306.566 376.853C306.599 376.775 306.615 376.692 306.615 376.607C306.615 376.523 306.599 376.439 306.566 376.361C306.533 376.283 306.486 376.213 306.426 376.153L305.524 375.252C305.465 375.192 305.395 375.144 305.317 375.111C305.239 375.079 305.155 375.062 305.071 375.062C304.987 375.062 304.903 375.079 304.825 375.111C304.747 375.144 304.677 375.192 304.617 375.252L298.618 381.253L295.817 378.451C295.758 378.391 295.688 378.343 295.611 378.311C295.533 378.278 295.45 378.261 295.366 378.261C295.282 378.261 295.199 378.278 295.122 378.311C295.045 378.343 294.974 378.391 294.916 378.451L294.009 379.352C293.89 379.474 293.824 379.636 293.824 379.806C293.824 379.976 293.89 380.139 294.009 380.26L298.165 384.418C298.224 384.478 298.295 384.526 298.373 384.558C298.45 384.591 298.534 384.608 298.618 384.608C298.703 384.608 298.786 384.591 298.864 384.558C298.942 384.526 299.013 384.478 299.072 384.418H299.043Z" fill="#3ACC6C"/>
</g>
<defs>
<linearGradient id="paint0_linear" x1="307.436" y1="405.163" x2="307.436" y2="0" gradientUnits="userSpaceOnUse">
<stop stop-color="#808080" stop-opacity="0.25"/>
<stop offset="0.54" stop-color="#808080" stop-opacity="0.12"/>
<stop offset="1" stop-color="#808080" stop-opacity="0.1"/>
</linearGradient>
<linearGradient id="paint1_linear" x1="28545.3" y1="216022" x2="28545.3" y2="94953.8" gradientUnits="userSpaceOnUse">
<stop stop-color="#808080" stop-opacity="0.25"/>
<stop offset="0.54" stop-color="#808080" stop-opacity="0.12"/>
<stop offset="1" stop-color="#808080" stop-opacity="0.1"/>
</linearGradient>
<clipPath id="clip0">
<rect width="583" height="450" fill="white"/>
</clipPath>
</defs>
</svg>
